<svg width="292" height="337" viewBox="0 0 292 337" fill="none" xmlns="http://www.w3.org/2000/svg">
<circle cx="123.5" cy="168.5" r="95.5" fill="#BAD9C2"/>
<g clip-path="url(#clip0_145_2)">
<path d="M108.75 227.065C110.447 228.609 112.85 229.145 115.609 228.663C116.357 233.897 118.954 237.523 122.459 238.05C125.282 238.475 128.177 236.789 130.397 233.517C131.914 234.368 133.515 234.693 135.078 234.351C140.084 233.257 142.596 225.958 140.797 217.734C139.462 211.629 136.112 206.885 132.364 205.398C134.537 201.924 133.782 195.345 132.031 186.711C134.06 188.731 136.44 190.068 139.211 190.245C138.097 193.649 138.442 198.341 140.379 203.01C143.606 210.787 149.836 215.329 154.571 213.376C156.051 212.763 157.178 211.579 157.936 210.013C161.626 211.428 164.967 211.158 167.04 209.195C169.608 206.764 169.651 202.314 167.286 197.602C169.757 196.45 171.481 194.648 172.008 192.344C173.229 186.992 167.477 181.268 158.915 179.313C155.529 178.539 152.149 178.477 149.229 179.115C148.729 179.225 148.244 179.355 147.775 179.504C144.316 180.61 142.075 182.693 141.463 185.371C141.355 185.844 141.32 186.319 141.318 186.794C141.045 187.046 140.791 187.321 140.557 187.622C130.896 188.44 126.114 170.187 124.849 164.405C124.695 163.701 124 163.254 123.295 163.409C122.589 163.563 122.144 164.259 122.298 164.963C123.235 169.246 125.151 176.337 128.428 181.926C128.415 182.058 128.404 182.192 128.434 182.328C130.153 190.185 132.436 200.672 130.058 204.129C129.977 204.048 129.908 203.958 129.823 203.88C128.018 202.24 125.425 201.719 122.44 202.372C122.063 202.455 121.68 202.556 121.292 202.676C118.061 203.672 114.778 205.878 112.043 208.886C109.309 211.895 107.424 215.375 106.74 218.685C106.004 222.242 106.717 225.217 108.75 227.065ZM153.57 210.965C150.288 212.325 145.368 208.219 142.79 202.012C140.911 197.485 140.709 192.764 142.083 190.058C142.093 190.077 142.108 190.097 142.117 190.116C142.55 191.002 143.151 191.862 143.896 192.678C143.935 192.722 143.974 192.764 144.014 192.806C144.774 193.619 145.678 194.384 146.707 195.083C146.753 195.114 146.799 195.143 146.845 195.174C147.341 195.505 147.862 195.821 148.413 196.119C148.44 196.133 148.465 196.149 148.492 196.163C149.066 196.47 149.666 196.757 150.292 197.024C150.362 197.054 150.434 197.08 150.504 197.108C150.929 197.284 151.364 197.452 151.811 197.607C151.812 197.608 151.814 197.609 151.817 197.61C151.818 197.609 151.819 197.609 151.821 197.611C151.922 197.647 152.029 197.678 152.133 197.712C152.286 197.762 152.437 197.813 152.591 197.863C152.779 197.922 152.964 197.981 153.157 198.037C153.161 198.039 153.165 198.042 153.17 198.042C153.625 198.172 154.088 198.294 154.558 198.402C154.844 198.467 155.131 198.526 155.415 198.58C155.463 198.724 155.514 198.868 155.558 199.014C155.597 199.141 155.637 199.269 155.674 199.396C155.779 199.762 155.874 200.127 155.957 200.491C155.967 200.536 155.981 200.579 155.99 200.624C156.085 201.048 156.163 201.469 156.228 201.887C156.239 201.954 156.245 202.019 156.255 202.085C156.306 202.434 156.346 202.78 156.376 203.12C156.384 203.205 156.39 203.289 156.397 203.373C156.424 203.749 156.44 204.123 156.441 204.485C156.441 204.499 156.442 204.514 156.442 204.529C156.441 205.763 156.287 206.909 155.975 207.902C155.969 207.919 155.973 207.937 155.968 207.954C155.497 209.423 154.691 210.501 153.57 210.965ZM165.245 207.3C163.926 208.546 161.498 208.622 158.758 207.546C158.886 206.932 158.97 206.285 159.014 205.614C159.016 205.585 159.018 205.557 159.019 205.527C159.061 204.86 159.065 204.171 159.022 203.458C158.943 202.087 158.704 200.638 158.307 199.155C158.29 199.091 158.282 199.028 158.265 198.964C158.28 198.965 158.296 198.965 158.311 198.966C160.67 199.145 162.888 198.974 164.825 198.478C166.781 202.197 166.971 205.668 165.245 207.3ZM148.569 181.994C151.347 181.107 154.819 181.058 158.333 181.861C165.231 183.436 170.328 187.972 169.461 191.766C169.052 193.563 167.357 194.921 164.963 195.693C164.424 195.869 163.854 196.011 163.258 196.122C163.165 196.14 163.07 196.154 162.975 196.171C162.398 196.268 161.8 196.34 161.184 196.378C161.082 196.385 160.975 196.385 160.872 196.391C160.231 196.42 159.58 196.425 158.914 196.389C158.875 196.387 158.833 196.381 158.794 196.379C158.106 196.338 157.408 196.264 156.708 196.154C156.661 196.146 156.616 196.142 156.569 196.135C156.095 196.058 155.619 195.968 155.138 195.86C154.73 195.766 154.329 195.66 153.935 195.547C153.78 195.502 153.627 195.451 153.473 195.403C153.254 195.335 153.036 195.268 152.821 195.195C152.62 195.125 152.423 195.05 152.227 194.976C152.067 194.916 151.908 194.856 151.751 194.793C151.531 194.703 151.313 194.61 151.1 194.514C150.979 194.46 150.861 194.406 150.743 194.352C150.512 194.243 150.284 194.133 150.061 194.017C149.973 193.972 149.888 193.925 149.802 193.88C149.562 193.752 149.325 193.621 149.096 193.485C149.047 193.456 149 193.426 148.951 193.397C148.286 192.994 147.675 192.563 147.121 192.111C146.958 191.978 146.794 191.845 146.643 191.709C146.475 191.558 146.315 191.406 146.159 191.252C146.125 191.218 146.087 191.185 146.054 191.151C145.911 191.004 145.781 190.855 145.649 190.705C145.583 190.628 145.513 190.552 145.449 190.475C145.338 190.34 145.238 190.204 145.138 190.067C145.07 189.972 145.001 189.879 144.938 189.785C144.852 189.655 144.773 189.526 144.696 189.395C144.636 189.291 144.579 189.187 144.525 189.084C144.46 188.959 144.4 188.834 144.345 188.708C144.297 188.597 144.255 188.486 144.215 188.375C144.172 188.255 144.129 188.134 144.095 188.013C144.06 187.892 144.037 187.773 144.013 187.653C143.99 187.543 143.966 187.432 143.951 187.321C143.894 186.859 143.908 186.401 144.01 185.952C144.407 184.212 146.026 182.805 148.569 181.994ZM122.847 235.468C120.494 235.113 118.663 232.148 118.143 227.969C118.165 227.96 118.188 227.948 118.211 227.939C119.629 227.403 121.042 226.642 122.408 225.69C122.432 225.674 122.455 225.657 122.478 225.64C122.886 225.353 123.29 225.048 123.688 224.727C123.727 224.696 123.768 224.67 123.807 224.637C123.827 224.694 123.854 224.744 123.875 224.801C124.671 227.006 125.726 228.922 126.944 230.458C126.961 230.479 126.976 230.5 126.992 230.519C127.415 231.045 127.853 231.528 128.309 231.958L128.311 231.959C126.667 234.445 124.674 235.742 122.847 235.468ZM138.247 218.292C139.683 224.858 137.976 231.045 134.521 231.801C133.336 232.06 132.058 231.637 130.835 230.7C130.822 230.689 130.814 230.673 130.8 230.661C129.977 230.028 129.198 229.177 128.493 228.167C128.478 228.147 128.465 228.124 128.45 228.103C128.25 227.814 128.058 227.51 127.87 227.197C127.824 227.118 127.777 227.039 127.731 226.958C127.566 226.671 127.407 226.373 127.253 226.068C127.218 226 127.183 225.934 127.149 225.864C126.966 225.488 126.791 225.103 126.628 224.706C126.606 224.653 126.587 224.596 126.566 224.543C126.431 224.209 126.305 223.866 126.187 223.519C126.142 223.387 126.099 223.254 126.056 223.119C126.011 222.979 125.973 222.835 125.93 222.694C126.132 222.488 126.332 222.276 126.53 222.059C126.696 221.877 126.848 221.687 127.007 221.503C127.159 221.325 127.318 221.148 127.465 220.969C127.581 220.826 127.686 220.68 127.798 220.537C127.912 220.391 128.023 220.245 128.132 220.097C128.463 219.65 128.78 219.199 129.074 218.74C129.141 218.636 129.21 218.532 129.275 218.427C129.569 217.954 129.836 217.476 130.087 216.996C130.193 216.795 130.291 216.595 130.388 216.393C130.525 216.109 130.653 215.825 130.775 215.54C130.791 215.503 130.808 215.466 130.824 215.429C130.844 215.384 130.862 215.337 130.881 215.291C130.952 215.12 131.03 214.947 131.096 214.775C131.219 214.448 131.324 214.12 131.425 213.793C131.431 213.773 131.438 213.753 131.445 213.733C131.482 213.61 131.521 213.488 131.555 213.365C131.615 213.156 131.664 212.95 131.715 212.743C131.727 212.689 131.746 212.634 131.758 212.581C131.76 212.573 131.756 212.566 131.757 212.558C131.779 212.458 131.811 212.358 131.832 212.26C131.864 212.105 131.878 211.957 131.905 211.804C131.944 211.579 131.985 211.354 132.012 211.132C132.072 210.644 132.11 210.165 132.112 209.705C132.113 209.646 132.105 209.59 132.104 209.532C132.099 209.084 132.061 208.653 132.002 208.234C131.995 208.185 131.998 208.131 131.99 208.083C134.667 209.515 137.199 213.503 138.247 218.292ZM109.296 219.215C109.888 216.356 111.548 213.312 113.974 210.645C116.398 207.977 119.271 206.033 122.061 205.173C124.615 204.385 126.745 204.613 128.066 205.814C128.39 206.108 128.657 206.457 128.873 206.852C128.934 206.965 128.982 207.085 129.033 207.204C129.073 207.295 129.117 207.382 129.153 207.477C129.199 207.604 129.233 207.74 129.27 207.873C129.297 207.972 129.328 208.065 129.351 208.167C129.381 208.305 129.399 208.45 129.42 208.594C129.435 208.701 129.454 208.805 129.465 208.915C129.479 209.065 129.484 209.222 129.49 209.377C129.494 209.487 129.499 209.597 129.498 209.709C129.497 209.876 129.487 210.049 129.477 210.221C129.47 210.327 129.464 210.431 129.453 210.539C129.434 210.733 129.408 210.931 129.376 211.131C129.363 211.212 129.351 211.294 129.335 211.378C129.296 211.595 129.252 211.814 129.199 212.035C129.153 212.235 129.092 212.441 129.035 212.644C128.747 213.652 128.333 214.695 127.792 215.74C127.781 215.762 127.77 215.785 127.759 215.807C127.614 216.082 127.461 216.358 127.301 216.63C127.272 216.679 127.243 216.73 127.214 216.78C127.063 217.032 126.906 217.283 126.743 217.533C126.687 217.616 126.632 217.7 126.576 217.783C126.428 218.001 126.277 218.22 126.12 218.436C126.007 218.588 125.892 218.74 125.775 218.89C125.654 219.049 125.534 219.208 125.406 219.365C125.234 219.577 125.049 219.786 124.865 219.996C124.777 220.097 124.694 220.202 124.602 220.302C124.261 220.677 123.911 221.033 123.557 221.375C123.5 221.431 123.44 221.482 123.382 221.536C122.051 222.794 120.612 223.85 119.159 224.637C119.132 224.652 119.106 224.666 119.078 224.68C118.804 224.827 118.529 224.963 118.255 225.09C118.203 225.115 118.15 225.137 118.099 225.16C117.841 225.277 117.583 225.387 117.327 225.484C117.263 225.509 117.199 225.529 117.136 225.551C116.882 225.644 116.628 225.733 116.377 225.807C116.375 225.807 116.373 225.809 116.372 225.809C116.103 225.888 115.837 225.962 115.578 226.019C113.442 226.486 111.666 226.179 110.51 225.129C109.185 223.931 108.755 221.83 109.296 219.215Z" fill="url(#paint0_linear_145_2)"/>
<path d="M114.538 184.704C110.54 189.027 108.644 195.277 110.013 201.59C110.125 202.109 110.541 202.507 111.064 202.6C111.331 202.645 111.599 202.606 111.839 202.497C116.484 201.419 120.438 198.566 122.991 194.44C125.554 190.299 126.397 185.363 125.388 180.521C125.387 180.513 125.389 180.505 125.388 180.497C125.387 180.486 125.381 180.477 125.379 180.467C125.371 180.431 125.369 180.397 125.361 180.361C125.346 180.292 125.311 180.233 125.287 180.169C125.275 180.142 125.268 180.113 125.255 180.086C125.18 179.932 125.082 179.794 124.953 179.683C121.139 174.313 114.487 172.025 108.223 173.395C106.156 173.847 104.131 174.697 102.266 175.966C101.826 176.265 101.612 176.801 101.724 177.32C101.78 177.581 101.914 177.811 102.097 177.988C104.975 182.08 109.584 184.491 114.538 184.704ZM120.772 193.067C118.789 196.272 115.823 198.578 112.327 199.663C111.504 193.437 114.273 187.469 119.118 184.192C119.126 184.186 119.137 184.187 119.145 184.181C120.288 183.413 121.505 182.819 122.773 182.392C122.845 182.368 122.913 182.337 122.986 182.315C123.008 182.307 123.03 182.304 123.053 182.296C123.553 186.074 122.762 189.85 120.772 193.067ZM121.829 179.945C121.16 180.172 120.516 180.45 119.89 180.751C119.814 180.788 119.74 180.83 119.664 180.868C119.102 181.149 118.559 181.459 118.035 181.795C117.994 181.822 117.95 181.841 117.908 181.867C112.967 182.806 108.033 181.076 104.931 177.393C110.626 174.265 117.641 175.355 121.829 179.945Z" fill="url(#paint1_linear_145_2)"/>
</g>
<g clip-path="url(#clip1_145_2)">
<path d="M78.026 120.696C75.8306 121.361 74.1378 123.148 73.1364 125.764C68.2599 123.722 63.8148 124.092 61.565 126.831C59.7527 129.037 59.7158 132.386 61.386 135.97C59.8777 136.836 58.7768 138.044 58.2686 139.561C56.6417 144.42 61.6193 150.32 69.6021 152.993C75.5276 154.977 81.3185 154.535 84.517 152.079C86.3848 155.726 92.4199 158.452 100.73 161.376C97.9551 162.083 95.5871 163.44 94.014 165.728C91.6631 163.026 87.458 160.916 82.4567 160.184C74.1256 158.967 67.0312 161.986 66.2791 167.052C66.047 168.637 66.4848 170.211 67.4405 171.666C64.3333 174.108 62.8518 177.114 63.4741 179.901C64.2442 183.353 68.0425 185.671 73.2998 186.057C73.022 188.77 73.6845 191.174 75.3925 192.807C79.3617 196.6 87.225 194.598 93.2949 188.25C95.695 185.74 97.4819 182.871 98.4311 180.036C98.5936 179.551 98.7305 179.068 98.843 178.588C99.6677 175.053 99.0287 172.061 97.0436 170.161C96.6932 169.826 96.3031 169.552 95.8964 169.307C95.8201 168.943 95.7145 168.584 95.5759 168.23C99.8278 159.516 117.951 164.771 123.563 166.65C124.246 166.879 124.986 166.512 125.215 165.827C125.445 165.143 125.075 164.404 124.392 164.175C120.234 162.782 113.164 160.791 106.686 160.737C106.579 160.659 106.47 160.581 106.337 160.537C98.7112 157.983 88.5371 154.565 86.7888 150.75C86.8999 150.722 87.013 150.709 87.1233 150.676C89.457 149.968 91.2335 148.009 92.2038 145.111C92.3265 144.745 92.436 144.365 92.5323 143.97C93.3336 140.685 93.1239 136.736 91.9433 132.845C90.7627 128.955 88.7414 125.552 86.2508 123.267C83.5751 120.811 80.6554 119.898 78.026 120.696ZM68.8619 167.429C69.3782 163.914 75.4261 161.796 82.0766 162.766C86.9273 163.475 91.0836 165.723 92.7019 168.29C92.6805 168.288 92.6561 168.291 92.6346 168.29C91.6519 168.207 90.6053 168.282 89.5222 168.503C89.4648 168.514 89.4087 168.525 89.3521 168.538C88.2641 168.774 87.1444 169.157 86.0159 169.683C85.9668 169.706 85.9172 169.731 85.8681 169.754C85.3294 170.01 84.7907 170.295 84.2524 170.616C84.2264 170.632 84.2 170.645 84.1739 170.661C83.6158 170.996 83.0617 171.364 82.5117 171.765C82.4501 171.809 82.391 171.858 82.3303 171.904C81.9617 172.178 81.5943 172.465 81.2323 172.77C81.2306 172.77 81.229 172.771 81.2269 172.773C81.2265 172.775 81.2261 172.776 81.2232 172.776C81.141 172.845 81.0591 172.921 80.9773 172.993C80.8554 173.098 80.7339 173.202 80.6128 173.308C80.4656 173.439 80.3193 173.568 80.173 173.705C80.1693 173.708 80.1647 173.709 80.1618 173.713C79.8167 174.037 79.4745 174.373 79.1404 174.72C78.9387 174.932 78.7411 175.148 78.5488 175.365C78.4003 175.332 78.2505 175.302 78.1031 175.265C77.9736 175.233 77.8436 175.202 77.7157 175.168C77.3476 175.071 76.9853 174.965 76.63 174.85C76.5867 174.836 76.5421 174.825 76.4988 174.811C76.0862 174.674 75.6843 174.525 75.2928 174.367C75.2297 174.342 75.1703 174.313 75.1084 174.289C74.7833 174.153 74.4652 174.01 74.1583 173.862C74.0812 173.825 74.0057 173.787 73.9302 173.749C73.5931 173.58 73.2644 173.403 72.9534 173.217C72.9406 173.21 72.9278 173.203 72.915 173.196C71.8554 172.562 70.9511 171.842 70.2587 171.065C70.2468 171.051 70.2294 171.045 70.2175 171.032C69.1982 169.874 68.6856 168.63 68.8619 167.429ZM66.0215 179.332C65.6276 177.561 66.8083 175.437 69.1373 173.637C69.5982 174.061 70.1112 174.465 70.6647 174.848C70.6882 174.864 70.7117 174.88 70.7364 174.896C71.2874 175.274 71.8768 175.631 72.5112 175.96C73.7289 176.595 75.095 177.132 76.5718 177.552C76.6358 177.571 76.6935 177.596 76.7575 177.615C76.7492 177.627 76.7405 177.641 76.7322 177.653C75.369 179.586 74.3784 181.578 73.8107 183.496C69.614 183.268 66.5376 181.651 66.0215 179.332ZM96.2985 177.994C95.6353 180.833 93.8966 183.839 91.4051 186.444C86.5154 191.558 80.0073 193.608 77.1953 190.918C75.8621 189.645 75.5653 187.493 76.1301 185.042C76.256 184.49 76.4264 183.927 76.636 183.359C76.6688 183.269 76.7052 183.181 76.7396 183.09C76.9525 182.545 77.1973 181.995 77.48 181.447C77.5272 181.355 77.5814 181.263 77.6298 181.172C77.9331 180.607 78.2629 180.046 78.6356 179.492C78.6575 179.46 78.6836 179.427 78.7055 179.394C79.0931 178.825 79.5149 178.264 79.9685 177.719C79.9987 177.683 80.026 177.646 80.0562 177.61C80.365 177.242 80.6863 176.879 81.0261 176.522C81.3159 176.22 81.6127 175.93 81.9115 175.65C82.0297 175.539 82.1516 175.434 82.2715 175.327C82.4426 175.174 82.6121 175.021 82.7852 174.874C82.9481 174.737 83.113 174.607 83.2779 174.476C83.4113 174.369 83.5444 174.264 83.6791 174.162C83.8688 174.019 84.0601 173.879 84.2522 173.745C84.3601 173.67 84.4675 173.596 84.5745 173.523C84.7861 173.38 84.998 173.24 85.2116 173.108C85.2951 173.056 85.379 173.007 85.462 172.957C85.695 172.816 85.9293 172.679 86.1631 172.553C86.2135 172.525 86.263 172.501 86.3134 172.474C87 172.109 87.6836 171.806 88.356 171.562C88.5534 171.491 88.7512 171.418 88.9462 171.358C89.1613 171.291 89.374 171.231 89.5863 171.177C89.6329 171.165 89.6808 171.149 89.7271 171.139C89.9261 171.091 90.121 171.056 90.3175 171.02C90.4171 171.002 90.519 170.981 90.6177 170.966C90.7903 170.94 90.9583 170.923 91.1272 170.908C91.2436 170.898 91.3588 170.887 91.4723 170.881C91.6276 170.873 91.7795 170.872 91.9306 170.873C92.0511 170.875 92.1696 170.879 92.2855 170.886C92.4259 170.894 92.565 170.907 92.7008 170.924C92.8209 170.94 92.9377 170.961 93.0528 170.983C93.1783 171.007 93.3045 171.033 93.4259 171.065C93.5472 171.098 93.6615 171.139 93.777 171.18C93.883 171.217 93.9907 171.253 94.093 171.297C94.5188 171.485 94.9057 171.732 95.2384 172.05C96.5283 173.283 96.906 175.394 96.2985 177.994ZM63.583 128.489C65.0947 126.65 68.5784 126.599 72.4332 128.296C72.4295 128.319 72.4278 128.345 72.4236 128.37C72.1566 129.862 72.085 131.465 72.202 133.126C72.2036 133.154 72.2065 133.182 72.2093 133.211C72.2462 133.709 72.3008 134.212 72.3724 134.718C72.3789 134.768 72.3805 134.817 72.3887 134.867C72.3293 134.855 72.2723 134.852 72.2129 134.841C69.9121 134.394 67.7256 134.317 65.7822 134.575C65.7562 134.578 65.7306 134.581 65.7058 134.585C65.0374 134.678 64.3982 134.806 63.7944 134.977L63.7928 134.978C62.502 132.292 62.4111 129.916 63.583 128.489ZM70.4311 150.517C64.0575 148.383 59.6209 143.745 60.7442 140.39C61.1293 139.24 62.1481 138.36 63.5792 137.791C63.5962 137.785 63.6135 137.787 63.6308 137.78C64.5969 137.399 65.7266 137.166 66.9548 137.079C66.9804 137.077 67.0064 137.077 67.032 137.075C67.3825 137.052 67.7421 137.043 68.107 137.042C68.1991 137.043 68.2911 137.043 68.384 137.046C68.7155 137.051 69.0527 137.067 69.3928 137.092C69.4696 137.097 69.5443 137.1 69.6219 137.106C70.038 137.142 70.4585 137.19 70.8832 137.253C70.9398 137.261 70.9988 137.274 71.0549 137.283C71.4107 137.339 71.7693 137.407 72.1279 137.483C72.2641 137.512 72.4007 137.544 72.5385 137.576C72.6817 137.609 72.8249 137.65 72.9685 137.686C73.0416 137.965 73.1213 138.245 73.2059 138.527C73.277 138.763 73.3617 138.99 73.4386 139.221C73.513 139.443 73.5829 139.67 73.6614 139.888C73.7248 140.061 73.796 140.226 73.8618 140.396C73.9292 140.568 73.9975 140.738 74.0687 140.908C74.2822 141.421 74.5074 141.925 74.7502 142.412C74.8054 142.523 74.8585 142.636 74.9153 142.746C75.171 143.24 75.4444 143.715 75.7274 144.177C75.8456 144.371 75.9675 144.557 76.0907 144.745C76.2641 145.008 76.4429 145.263 76.6246 145.514C76.6481 145.547 76.6712 145.58 76.6947 145.613C76.7239 145.653 76.7548 145.692 76.7841 145.733C76.8953 145.881 77.0028 146.037 77.117 146.181C77.335 146.455 77.5625 146.713 77.7912 146.967C77.8053 146.983 77.8189 147 77.8329 147.016C77.9194 147.111 78.0043 147.207 78.0917 147.299C78.2409 147.458 78.3926 147.605 78.5448 147.755C78.5843 147.793 78.6218 147.837 78.6614 147.875C78.6664 147.881 78.6746 147.881 78.6812 147.886C78.7554 147.956 78.8255 148.035 78.8989 148.104C79.016 148.21 79.1351 148.298 79.2526 148.4C79.4258 148.549 79.5982 148.7 79.7755 148.836C80.1631 149.138 80.5545 149.417 80.9484 149.654C80.9987 149.685 81.0507 149.707 81.1014 149.736C81.4883 149.962 81.8781 150.15 82.268 150.314C82.3138 150.333 82.3587 150.364 82.4037 150.381C79.8013 151.945 75.0791 152.074 70.4311 150.517ZM84.4851 125.189C86.6363 127.164 88.3978 130.15 89.4436 133.601C90.4911 137.05 90.6861 140.513 89.9936 143.35C89.361 145.946 88.0719 147.658 86.3634 148.176C85.9451 148.303 85.5083 148.354 85.0584 148.337C84.9308 148.331 84.8029 148.31 84.6749 148.294C84.5759 148.281 84.4789 148.275 84.379 148.257C84.2457 148.231 84.112 148.191 83.9783 148.154C83.8801 148.127 83.7839 148.105 83.6849 148.072C83.5512 148.028 83.4167 147.969 83.2827 147.913C83.1836 147.871 83.0846 147.834 82.9848 147.787C82.8482 147.722 82.7113 147.646 82.5752 147.571C82.4787 147.518 82.3817 147.467 82.2856 147.408C82.1425 147.322 81.999 147.224 81.8567 147.127C81.7693 147.067 81.6831 147.008 81.5961 146.943C81.4393 146.827 81.2827 146.703 81.1276 146.574C81.0641 146.521 81.0006 146.469 80.9367 146.413C80.7706 146.268 80.6048 146.117 80.442 145.958C80.294 145.816 80.1485 145.659 80.003 145.505C79.2858 144.741 78.6021 143.851 77.9831 142.851C77.9695 142.83 77.9559 142.809 77.9423 142.788C77.7804 142.523 77.6227 142.25 77.4704 141.973C77.4432 141.922 77.4148 141.872 77.3864 141.821C77.2472 141.562 77.1126 141.298 76.9821 141.03C76.9393 140.94 76.8952 140.85 76.8528 140.758C76.7413 140.52 76.631 140.278 76.5261 140.032C76.4537 139.858 76.3821 139.681 76.3134 139.504C76.2393 139.318 76.1636 139.133 76.095 138.943C76.0008 138.686 75.9161 138.421 75.8302 138.155C75.7891 138.027 75.7414 137.903 75.7023 137.773C75.5552 137.287 75.4292 136.804 75.3171 136.325C75.2991 136.247 75.2852 136.17 75.2683 136.092C74.8716 134.305 74.7028 132.527 74.7723 130.877C74.7732 130.845 74.7749 130.816 74.777 130.785C74.7914 130.474 74.8154 130.168 74.8472 129.868C74.8526 129.811 74.8606 129.754 74.8668 129.698C74.899 129.417 74.9369 129.14 74.9848 128.869C74.9964 128.802 75.0114 128.736 75.0251 128.671C75.0754 128.405 75.1294 128.141 75.195 127.888C75.1954 127.887 75.195 127.884 75.1954 127.883C75.2656 127.611 75.3382 127.345 75.4223 127.094C76.1166 125.021 77.2917 123.653 78.7858 123.2C80.4935 122.676 82.5181 123.384 84.4851 125.189Z" fill="url(#paint2_linear_145_2)"/>
<path d="M111.424 147.389C109.763 141.739 105.37 136.906 99.2488 134.844C98.7454 134.674 98.1904 134.827 97.8427 135.228C97.6661 135.435 97.563 135.685 97.5333 135.946C96.0761 140.487 96.4979 145.345 98.731 149.653C100.971 153.976 104.776 157.232 109.451 158.848C109.458 158.852 109.464 158.858 109.472 158.86C109.481 158.865 109.492 158.865 109.502 158.868C109.537 158.88 109.567 158.895 109.602 158.907C109.669 158.929 109.737 158.93 109.805 158.942C109.834 158.946 109.863 158.954 109.892 158.957C110.064 158.972 110.232 158.958 110.393 158.905C116.959 158.384 122.336 153.847 124.372 147.767C125.044 145.76 125.352 143.586 125.219 141.334C125.188 140.803 124.838 140.344 124.334 140.174C124.082 140.089 123.816 140.086 123.569 140.152C118.581 140.525 114.148 143.244 111.424 147.389ZM101.048 148.452C99.3135 145.105 98.8551 141.377 99.7161 137.819C105.483 140.306 109.186 145.743 109.515 151.583C109.516 151.593 109.51 151.602 109.511 151.612C109.584 152.987 109.47 154.336 109.186 155.644C109.169 155.718 109.161 155.792 109.143 155.866C109.138 155.889 109.13 155.91 109.125 155.933C105.625 154.425 102.788 151.81 101.048 148.452ZM111.771 156.088C111.919 155.397 112.011 154.702 112.073 154.01C112.081 153.926 112.082 153.841 112.088 153.756C112.136 153.129 112.148 152.505 112.128 151.882C112.126 151.834 112.132 151.786 112.131 151.736C113.859 147.013 117.875 143.665 122.628 142.89C122.392 149.383 117.859 154.846 111.771 156.088Z" fill="url(#paint3_linear_145_2)"/>
</g>
<g clip-path="url(#clip2_145_2)">
<path d="M185.565 148.854C186.156 146.637 185.529 144.257 183.832 142.028C188.136 138.958 190.163 134.984 189.02 131.629C188.099 128.927 185.271 127.132 181.345 126.664C181.404 124.926 180.957 123.354 179.935 122.122C176.662 118.18 169.025 119.304 162.548 124.682C157.74 128.674 155.066 133.83 155.469 137.842C151.385 137.509 145.889 141.203 139.026 146.727C139.888 143.996 139.981 141.268 138.864 138.726C142.399 138.151 146.408 135.687 149.664 131.822C155.087 125.381 156.257 117.76 152.347 114.452C151.122 113.42 149.553 112.963 147.813 113.01C147.374 109.082 145.599 106.239 142.902 105.301C139.562 104.137 135.591 106.145 132.493 110.41C130.334 108.745 127.942 108.043 125.654 108.634C120.339 110.01 117.899 117.749 120.098 126.252C120.968 129.615 122.466 132.645 124.375 134.945C124.702 135.338 125.04 135.709 125.389 136.057C127.96 138.621 130.84 139.653 133.5 138.966C133.97 138.845 134.408 138.658 134.83 138.441C135.18 138.568 135.541 138.667 135.915 138.736C141.083 146.94 127.071 159.578 122.517 163.358C121.963 163.819 121.886 164.641 122.347 165.197C122.808 165.752 123.631 165.827 124.185 165.367C127.558 162.566 132.975 157.605 136.433 152.126C136.556 152.077 136.679 152.025 136.787 151.936C142.974 146.798 151.238 139.95 155.402 140.473C155.367 140.582 155.319 140.685 155.289 140.796C154.662 143.153 155.391 145.695 157.343 148.046C157.59 148.343 157.856 148.637 158.14 148.926C160.511 151.337 163.978 153.239 167.907 154.285C171.836 155.331 175.793 155.405 179.048 154.491C182.544 153.51 184.858 151.509 185.565 148.854ZM150.666 116.449C153.382 118.739 151.997 124.996 147.67 130.139C144.512 133.889 140.412 136.238 137.378 136.261C137.39 136.244 137.401 136.222 137.414 136.204C138.001 135.412 138.489 134.483 138.872 133.446C138.892 133.392 138.912 133.338 138.931 133.283C139.304 132.234 139.567 131.08 139.715 129.844C139.721 129.79 139.726 129.735 139.732 129.681C139.798 129.088 139.84 128.48 139.851 127.854C139.851 127.823 139.854 127.794 139.854 127.763C139.863 127.112 139.842 126.447 139.791 125.769C139.786 125.693 139.775 125.617 139.768 125.541C139.729 125.084 139.679 124.62 139.611 124.152C139.611 124.15 139.611 124.148 139.61 124.146C139.61 124.145 139.609 124.144 139.61 124.141C139.595 124.035 139.573 123.925 139.556 123.818C139.53 123.659 139.506 123.501 139.479 123.342C139.445 123.148 139.413 122.955 139.374 122.759C139.373 122.754 139.375 122.75 139.372 122.745C139.279 122.281 139.174 121.814 139.054 121.346C138.98 121.063 138.901 120.781 138.818 120.504C138.925 120.395 139.029 120.283 139.138 120.178C139.233 120.085 139.328 119.99 139.424 119.899C139.7 119.637 139.981 119.385 140.266 119.144C140.301 119.115 140.334 119.083 140.369 119.053C140.703 118.775 141.04 118.511 141.381 118.262C141.436 118.222 141.491 118.186 141.545 118.146C141.831 117.941 142.121 117.746 142.408 117.564C142.48 117.517 142.552 117.473 142.624 117.429C142.945 117.231 143.269 117.046 143.591 116.879C143.603 116.872 143.616 116.864 143.629 116.857C144.726 116.291 145.814 115.901 146.84 115.722C146.858 115.719 146.872 115.707 146.889 115.704C148.41 115.447 149.738 115.667 150.666 116.449ZM142.044 107.766C143.757 108.364 144.941 110.486 145.244 113.414C144.641 113.582 144.027 113.805 143.41 114.075C143.384 114.086 143.358 114.098 143.331 114.11C142.72 114.38 142.106 114.692 141.492 115.058C140.311 115.759 139.135 116.637 138 117.671C137.95 117.716 137.899 117.752 137.849 117.796C137.843 117.783 137.836 117.768 137.83 117.755C136.904 115.578 135.733 113.686 134.402 112.194C136.806 108.747 139.801 106.983 142.044 107.766ZM127.235 134.208C125.17 132.148 123.531 129.087 122.629 125.597C120.857 118.747 122.543 112.135 126.31 111.162C128.094 110.699 130.08 111.58 131.866 113.351C132.269 113.749 132.658 114.19 133.03 114.668C133.089 114.743 133.145 114.82 133.204 114.897C133.555 115.365 133.894 115.863 134.211 116.392C134.264 116.48 134.314 116.575 134.366 116.664C134.686 117.219 134.989 117.795 135.264 118.404C135.28 118.44 135.294 118.479 135.31 118.515C135.59 119.144 135.845 119.798 136.069 120.471C136.084 120.516 136.101 120.558 136.116 120.603C136.266 121.059 136.405 121.523 136.53 122C136.634 122.406 136.724 122.811 136.805 123.212C136.836 123.371 136.861 123.53 136.889 123.688C136.93 123.915 136.97 124.139 137.004 124.364C137.034 124.574 137.059 124.783 137.083 124.992C137.103 125.162 137.123 125.33 137.139 125.499C137.16 125.735 137.178 125.972 137.191 126.205C137.198 126.337 137.205 126.467 137.21 126.597C137.22 126.851 137.227 127.105 137.227 127.356C137.227 127.455 137.225 127.552 137.224 127.649C137.221 127.921 137.214 128.192 137.198 128.458C137.195 128.515 137.19 128.57 137.186 128.627C137.135 129.403 137.032 130.143 136.885 130.844C136.842 131.049 136.8 131.256 136.748 131.453C136.692 131.671 136.63 131.883 136.565 132.092C136.55 132.138 136.538 132.187 136.523 132.232C136.459 132.426 136.386 132.611 136.313 132.797C136.276 132.89 136.24 132.988 136.201 133.08C136.132 133.241 136.058 133.392 135.981 133.544C135.929 133.648 135.878 133.752 135.823 133.852C135.747 133.987 135.669 134.117 135.588 134.245C135.523 134.347 135.458 134.445 135.39 134.54C135.309 134.655 135.226 134.767 135.139 134.873C135.062 134.967 134.983 135.055 134.904 135.141C134.817 135.235 134.729 135.329 134.637 135.415C134.546 135.501 134.451 135.576 134.355 135.653C134.267 135.724 134.18 135.796 134.089 135.86C133.705 136.123 133.291 136.322 132.846 136.437C131.118 136.884 129.124 136.093 127.235 134.208ZM186.548 132.472C187.314 134.725 185.523 137.714 182.051 140.097C182.032 140.081 182.012 140.066 181.993 140.05C180.865 139.037 179.54 138.131 178.066 137.356C178.042 137.343 178.016 137.33 177.99 137.317C177.547 137.086 177.091 136.868 176.623 136.662C176.577 136.641 176.535 136.617 176.488 136.598C176.53 136.553 176.562 136.506 176.603 136.462C178.195 134.742 179.412 132.924 180.216 131.136C180.227 131.112 180.238 131.089 180.248 131.065C180.521 130.448 180.748 129.837 180.921 129.234L180.921 129.232C183.884 129.549 185.952 130.724 186.548 132.472ZM164.216 126.691C169.387 122.397 175.666 121.068 177.926 123.79C178.701 124.723 178.912 126.053 178.643 127.569C178.638 127.586 178.628 127.6 178.624 127.619C178.439 128.641 178.042 129.724 177.47 130.813C177.458 130.837 177.444 130.858 177.433 130.881C177.268 131.192 177.086 131.502 176.894 131.812C176.845 131.89 176.796 131.968 176.745 132.046C176.567 132.325 176.375 132.603 176.175 132.879C176.13 132.942 176.088 133.004 176.042 133.066C175.792 133.401 175.53 133.734 175.252 134.061C175.216 134.105 175.174 134.148 175.137 134.191C174.902 134.464 174.655 134.733 174.402 134.998C174.305 135.099 174.206 135.198 174.106 135.298C174.003 135.402 173.892 135.503 173.786 135.606C173.511 135.521 173.231 135.441 172.947 135.365C172.709 135.301 172.47 135.253 172.234 135.197C172.006 135.143 171.776 135.083 171.55 135.035C171.369 134.998 171.191 134.971 171.013 134.938C170.83 134.904 170.65 134.873 170.468 134.844C169.919 134.755 169.372 134.681 168.83 134.631C168.707 134.62 168.583 134.605 168.46 134.596C167.905 134.553 167.358 134.535 166.816 134.532C166.589 134.531 166.366 134.536 166.142 134.542C165.827 134.551 165.515 134.568 165.206 134.591C165.166 134.593 165.125 134.595 165.085 134.598C165.036 134.602 164.986 134.607 164.937 134.611C164.752 134.627 164.563 134.637 164.38 134.658C164.032 134.699 163.693 134.756 163.357 134.817C163.336 134.821 163.314 134.823 163.293 134.827C163.167 134.85 163.041 134.872 162.916 134.898C162.703 134.941 162.498 134.992 162.29 135.042C162.237 135.056 162.179 135.065 162.126 135.078C162.119 135.079 162.114 135.086 162.107 135.089C162.008 135.116 161.904 135.134 161.807 135.16C161.655 135.203 161.517 135.258 161.369 135.305C161.151 135.374 160.932 135.44 160.723 135.519C160.262 135.69 159.819 135.876 159.409 136.085C159.357 136.112 159.311 136.145 159.26 136.172C158.864 136.382 158.498 136.615 158.154 136.86C158.113 136.888 158.064 136.911 158.025 136.94C158.066 133.904 160.444 129.822 164.216 126.691ZM178.343 151.977C175.532 152.766 172.065 152.69 168.582 151.762C165.098 150.836 162.051 149.178 160.005 147.095C158.131 145.19 157.355 143.192 157.814 141.467C157.926 141.044 158.113 140.647 158.365 140.273C158.437 140.168 158.522 140.07 158.603 139.97C158.666 139.892 158.723 139.813 158.791 139.738C158.883 139.638 158.988 139.546 159.089 139.451C159.164 139.382 159.233 139.312 159.313 139.245C159.422 139.155 159.542 139.071 159.661 138.987C159.748 138.925 159.832 138.86 159.924 138.8C160.052 138.718 160.188 138.642 160.323 138.565C160.419 138.511 160.514 138.456 160.615 138.405C160.763 138.329 160.922 138.258 161.08 138.189C161.176 138.146 161.272 138.104 161.373 138.064C161.554 137.992 161.742 137.924 161.933 137.86C162.012 137.834 162.09 137.808 162.171 137.783C162.382 137.718 162.597 137.656 162.818 137.602C163.017 137.551 163.227 137.51 163.434 137.467C164.462 137.26 165.578 137.148 166.755 137.148C166.78 137.148 166.805 137.147 166.83 137.147C167.14 137.149 167.456 137.158 167.771 137.175C167.828 137.178 167.886 137.181 167.945 137.183C168.238 137.201 168.533 137.226 168.83 137.256C168.929 137.267 169.029 137.277 169.129 137.289C169.39 137.32 169.654 137.354 169.918 137.394C170.104 137.424 170.292 137.457 170.479 137.492C170.676 137.527 170.873 137.56 171.071 137.601C171.339 137.657 171.609 137.724 171.88 137.791C172.01 137.824 172.142 137.849 172.273 137.884C172.763 138.015 173.24 138.162 173.706 138.319C173.782 138.345 173.855 138.374 173.93 138.4C175.658 139.004 177.258 139.797 178.624 140.725C178.651 140.743 178.675 140.76 178.7 140.778C178.956 140.954 179.204 141.135 179.442 141.32C179.488 141.355 179.532 141.392 179.576 141.426C179.798 141.602 180.014 141.78 180.219 141.963C180.27 142.009 180.318 142.056 180.367 142.102C180.566 142.285 180.762 142.47 180.943 142.659C180.943 142.66 180.946 142.661 180.947 142.662C181.14 142.865 181.328 143.067 181.498 143.27C182.894 144.953 183.438 146.672 183.036 148.181C182.582 149.908 180.914 151.256 178.343 151.977Z" fill="url(#paint4_linear_145_2)"/>
<path d="M145.284 163.185C150.961 164.749 157.384 163.559 162.36 159.442C162.77 159.104 162.932 158.552 162.775 158.045C162.692 157.786 162.533 157.566 162.327 157.403C159.234 153.773 154.883 151.573 150.045 151.203C145.19 150.829 140.418 152.35 136.582 155.472C136.575 155.476 136.567 155.478 136.561 155.483C136.552 155.489 136.546 155.498 136.538 155.505C136.51 155.528 136.481 155.546 136.453 155.569C136.398 155.614 136.362 155.672 136.316 155.724C136.297 155.746 136.275 155.766 136.257 155.789C136.154 155.927 136.077 156.078 136.038 156.243C133.022 162.098 134.047 169.059 138.143 173.992C139.495 175.62 141.181 177.027 143.165 178.1C143.633 178.353 144.207 178.297 144.617 177.959C144.823 177.79 144.965 177.565 145.039 177.32C147.349 172.884 147.373 167.683 145.284 163.185ZM149.846 153.805C153.604 154.093 157.015 155.667 159.586 158.273C154.434 161.865 147.861 162.149 142.725 159.353C142.716 159.348 142.711 159.338 142.702 159.334C141.494 158.672 140.408 157.864 139.446 156.934C139.391 156.881 139.332 156.835 139.279 156.781C139.262 156.764 139.249 156.746 139.232 156.73C142.357 154.549 146.074 153.515 149.846 153.805ZM137.706 158.898C138.216 159.387 138.758 159.831 139.313 160.249C139.381 160.3 139.453 160.345 139.521 160.395C140.029 160.766 140.554 161.106 141.094 161.416C141.136 161.44 141.173 161.471 141.216 161.496C144.321 165.452 145.052 170.629 143.207 175.078C137.812 171.457 135.556 164.727 137.706 158.898Z" fill="url(#paint5_linear_145_2)"/>
</g>
<defs>
<linearGradient id="paint0_linear_145_2" x1="145.261" y1="233.457" x2="129.634" y2="162.022" gradientUnits="userSpaceOnUse">
<stop stop-color="#001801"/>
<stop offset="1" stop-color="#308C50"/>
</linearGradient>
<linearGradient id="paint1_linear_145_2" x1="118.41" y1="201.091" x2="112.163" y2="172.533" gradientUnits="userSpaceOnUse">
<stop stop-color="#001801"/>
<stop offset="1" stop-color="#308C50"/>
</linearGradient>
<linearGradient id="paint2_linear_145_2" x1="53.8149" y1="148.761" x2="123.155" y2="171.981" gradientUnits="userSpaceOnUse">
<stop stop-color="#001801"/>
<stop offset="1" stop-color="#308C50"/>
</linearGradient>
<linearGradient id="paint3_linear_145_2" x1="95.3709" y1="142.308" x2="123.091" y2="151.591" gradientUnits="userSpaceOnUse">
<stop stop-color="#001801"/>
<stop offset="1" stop-color="#308C50"/>
</linearGradient>
<linearGradient id="paint4_linear_145_2" x1="174.46" y1="113.491" x2="118.201" y2="160.204" gradientUnits="userSpaceOnUse">
<stop stop-color="#001801"/>
<stop offset="1" stop-color="#308C50"/>
</linearGradient>
<linearGradient id="paint5_linear_145_2" x1="158.058" y1="152.214" x2="135.567" y2="170.889" gradientUnits="userSpaceOnUse">
<stop stop-color="#001801"/>
<stop offset="1" stop-color="#308C50"/>
</linearGradient>
<clipPath id="clip0_145_2">
<rect width="73.1212" height="73.1212" fill="white" transform="translate(180.977 225.644) rotate(167.661)"/>
</clipPath>
<clipPath id="clip1_145_2">
<rect width="73.1212" height="73.1212" fill="white" transform="translate(42.206 183.43) rotate(-71.4861)"/>
</clipPath>
<clipPath id="clip2_145_2">
<rect width="73.1212" height="73.1212" fill="white" transform="translate(151.104 85.3627) rotate(50.2963)"/>
</clipPath>
</defs>
</svg>
