<svg width="308" height="308" viewBox="0 0 308 308" fill="none" xmlns="http://www.w3.org/2000/svg">
<circle cx="154" cy="154" r="154" fill="white"/>
<path d="M134.377 268.032C137.435 270.815 141.766 271.783 146.74 270.914C148.089 280.348 152.771 286.886 159.09 287.835C164.179 288.601 169.396 285.561 173.398 279.663C176.133 281.197 179.02 281.785 181.838 281.168C190.861 279.194 195.39 266.036 192.147 251.211C189.74 240.206 183.702 231.653 176.944 228.974C180.861 222.711 179.5 210.852 176.344 195.287C180.002 198.929 184.292 201.339 189.288 201.657C187.279 207.794 187.901 216.252 191.392 224.669C197.21 238.688 208.441 246.876 216.977 243.356C219.645 242.25 221.676 240.117 223.044 237.293C229.696 239.844 235.718 239.358 239.455 235.818C244.085 231.435 244.161 223.414 239.899 214.921C244.354 212.843 247.462 209.595 248.41 205.442C250.611 195.792 240.244 185.474 224.807 181.949C218.704 180.555 212.612 180.442 207.347 181.594C206.446 181.791 205.572 182.026 204.726 182.295C198.491 184.288 194.452 188.043 193.347 192.871C193.153 193.723 193.09 194.58 193.087 195.435C192.593 195.89 192.136 196.385 191.715 196.928C174.299 198.403 165.677 165.498 163.397 155.075C163.119 153.806 161.867 153.001 160.595 153.279C159.324 153.557 158.522 154.812 158.799 156.081C160.488 163.803 163.942 176.585 169.849 186.66C169.826 186.899 169.806 187.139 169.86 187.385C172.958 201.549 177.075 220.454 172.787 226.687C172.642 226.54 172.517 226.377 172.363 226.237C169.11 223.28 164.436 222.342 159.055 223.519C158.374 223.668 157.684 223.85 156.985 224.066C151.16 225.862 145.242 229.838 140.312 235.262C135.383 240.686 131.986 246.96 130.752 252.927C129.425 259.338 130.711 264.701 134.377 268.032ZM215.173 239.01C209.256 241.461 200.386 234.059 195.74 222.87C192.352 214.708 191.989 206.197 194.465 201.32C194.483 201.355 194.509 201.39 194.527 201.424C195.307 203.022 196.391 204.572 197.734 206.044C197.804 206.122 197.874 206.199 197.946 206.275C199.317 207.74 200.946 209.118 202.802 210.379C202.883 210.434 202.968 210.488 203.049 210.542C203.943 211.139 204.882 211.709 205.877 212.246C205.925 212.271 205.97 212.3 206.019 212.325C207.053 212.88 208.135 213.397 209.264 213.878C209.389 213.932 209.52 213.978 209.646 214.03C210.412 214.347 211.196 214.65 212.001 214.929C212.004 214.931 212.007 214.932 212.012 214.934C212.014 214.933 212.017 214.933 212.02 214.937C212.203 215 212.396 215.057 212.582 215.117C212.858 215.209 213.131 215.301 213.408 215.39C213.747 215.496 214.081 215.604 214.428 215.704C214.436 215.707 214.442 215.713 214.452 215.713C215.272 215.948 216.107 216.167 216.955 216.363C217.469 216.479 217.986 216.585 218.499 216.682C218.585 216.943 218.677 217.202 218.757 217.464C218.826 217.695 218.898 217.925 218.965 218.153C219.155 218.813 219.326 219.472 219.476 220.128C219.494 220.208 219.519 220.287 219.536 220.367C219.706 221.132 219.848 221.891 219.964 222.644C219.984 222.765 219.995 222.883 220.014 223.002C220.105 223.63 220.177 224.255 220.231 224.867C220.246 225.02 220.257 225.172 220.269 225.324C220.318 226.002 220.347 226.675 220.348 227.327C220.349 227.354 220.35 227.38 220.351 227.406C220.349 229.632 220.071 231.697 219.508 233.487C219.498 233.518 219.505 233.551 219.495 233.582C218.646 236.229 217.194 238.173 215.173 239.01ZM236.22 232.402C233.842 234.649 229.464 234.786 224.525 232.845C224.755 231.74 224.907 230.572 224.987 229.362C224.99 229.311 224.993 229.26 224.996 229.206C225.071 228.005 225.078 226.762 225.002 225.476C224.858 223.004 224.427 220.394 223.712 217.72C223.682 217.603 223.667 217.491 223.637 217.375C223.663 217.376 223.692 217.377 223.719 217.378C227.972 217.701 231.97 217.392 235.463 216.498C238.989 223.204 239.331 229.459 236.22 232.402ZM206.158 186.783C211.165 185.184 217.424 185.096 223.76 186.543C236.194 189.383 245.383 197.56 243.82 204.399C243.083 207.638 240.027 210.087 235.711 211.479C234.74 211.795 233.712 212.051 232.638 212.252C232.469 212.285 232.299 212.31 232.127 212.34C231.086 212.515 230.009 212.644 228.899 212.714C228.714 212.725 228.522 212.727 228.336 212.736C227.181 212.789 226.008 212.797 224.806 212.732C224.735 212.729 224.661 212.718 224.59 212.715C223.35 212.641 222.092 212.507 220.83 212.309C220.745 212.296 220.664 212.287 220.579 212.274C219.725 212.136 218.866 211.975 217.999 211.779C217.264 211.61 216.54 211.419 215.831 211.215C215.551 211.134 215.275 211.043 214.999 210.956C214.603 210.833 214.211 210.712 213.823 210.58C213.46 210.454 213.106 210.32 212.751 210.185C212.463 210.078 212.176 209.969 211.894 209.855C211.497 209.694 211.104 209.527 210.719 209.353C210.503 209.256 210.289 209.158 210.077 209.06C209.661 208.865 209.249 208.666 208.847 208.457C208.689 208.376 208.536 208.292 208.381 208.21C207.947 207.98 207.52 207.743 207.107 207.498C207.019 207.446 206.935 207.392 206.846 207.339C205.647 206.614 204.547 205.835 203.547 205.02C203.254 204.781 202.958 204.542 202.685 204.296C202.382 204.025 202.094 203.751 201.814 203.473C201.752 203.411 201.684 203.352 201.624 203.29C201.367 203.026 201.132 202.757 200.894 202.486C200.775 202.348 200.648 202.21 200.534 202.071C200.334 201.828 200.153 201.584 199.973 201.336C199.849 201.166 199.726 200.998 199.611 200.828C199.457 200.594 199.314 200.36 199.176 200.125C199.067 199.937 198.964 199.75 198.868 199.564C198.751 199.339 198.641 199.113 198.544 198.886C198.456 198.686 198.381 198.485 198.309 198.287C198.23 198.07 198.153 197.851 198.091 197.634C198.029 197.416 197.987 197.201 197.944 196.984C197.903 196.786 197.86 196.586 197.833 196.387C197.73 195.554 197.754 194.727 197.939 193.919C198.655 190.782 201.573 188.246 206.158 186.783ZM159.789 283.18C155.547 282.54 152.246 277.196 151.308 269.662C151.348 269.646 151.389 269.625 151.432 269.608C153.988 268.642 156.535 267.271 158.997 265.554C159.039 265.526 159.081 265.495 159.122 265.464C159.859 264.946 160.587 264.397 161.304 263.819C161.376 263.762 161.45 263.715 161.519 263.656C161.556 263.759 161.604 263.849 161.641 263.952C163.077 267.926 164.979 271.381 167.175 274.15C167.204 274.187 167.232 274.224 167.261 274.259C168.023 275.207 168.813 276.078 169.635 276.854L169.638 276.856C166.675 281.337 163.082 283.674 159.789 283.18ZM187.549 252.217C190.139 264.054 187.062 275.208 180.832 276.57C178.697 277.037 176.393 276.274 174.188 274.586C174.164 274.565 174.151 274.537 174.125 274.516C172.641 273.373 171.237 271.84 169.966 270.02C169.939 269.983 169.916 269.942 169.888 269.905C169.528 269.383 169.182 268.835 168.844 268.271C168.76 268.128 168.676 267.985 168.593 267.839C168.294 267.322 168.008 266.784 167.732 266.235C167.669 266.112 167.604 265.994 167.543 265.867C167.214 265.19 166.898 264.496 166.604 263.779C166.564 263.685 166.53 263.581 166.492 263.486C166.249 262.884 166.023 262.266 165.809 261.641C165.728 261.403 165.651 261.162 165.574 260.919C165.492 260.667 165.423 260.407 165.346 260.152C165.71 259.781 166.07 259.399 166.428 259.007C166.727 258.679 167.001 258.338 167.288 258.005C167.562 257.685 167.849 257.367 168.113 257.044C168.322 256.786 168.512 256.523 168.713 256.265C168.918 256.001 169.118 255.738 169.315 255.471C169.913 254.666 170.484 253.852 171.013 253.025C171.134 252.837 171.259 252.651 171.377 252.462C171.906 251.609 172.387 250.747 172.841 249.882C173.031 249.52 173.208 249.158 173.383 248.795C173.63 248.283 173.86 247.77 174.08 247.257C174.109 247.191 174.14 247.124 174.169 247.057C174.204 246.975 174.236 246.891 174.271 246.808C174.399 246.499 174.54 246.188 174.658 245.878C174.881 245.288 175.069 244.697 175.251 244.108C175.263 244.072 175.276 244.035 175.288 243.999C175.355 243.777 175.425 243.557 175.487 243.336C175.595 242.958 175.682 242.588 175.774 242.214C175.796 242.117 175.83 242.018 175.852 241.922C175.857 241.909 175.849 241.896 175.851 241.881C175.891 241.701 175.947 241.52 175.986 241.343C176.043 241.064 176.069 240.798 176.117 240.522C176.187 240.117 176.262 239.71 176.309 239.309C176.418 238.43 176.487 237.567 176.491 236.738C176.492 236.632 176.477 236.531 176.476 236.426C176.468 235.618 176.399 234.841 176.292 234.086C176.279 233.997 176.285 233.9 176.271 233.814C181.097 236.395 185.661 243.585 187.549 252.217ZM135.359 253.882C136.426 248.727 139.42 243.24 143.793 238.432C148.163 233.622 153.342 230.119 158.372 228.568C162.975 227.147 166.816 227.559 169.197 229.724C169.781 230.254 170.263 230.883 170.652 231.596C170.761 231.798 170.847 232.015 170.94 232.229C171.012 232.394 171.092 232.55 171.156 232.721C171.24 232.951 171.301 233.195 171.368 233.436C171.416 233.613 171.472 233.782 171.513 233.965C171.567 234.214 171.6 234.476 171.638 234.735C171.665 234.927 171.699 235.115 171.718 235.313C171.744 235.584 171.753 235.867 171.763 236.146C171.77 236.344 171.78 236.542 171.779 236.745C171.777 237.046 171.759 237.359 171.74 237.669C171.728 237.859 171.717 238.047 171.696 238.242C171.662 238.592 171.615 238.949 171.559 239.308C171.535 239.455 171.512 239.602 171.485 239.753C171.414 240.144 171.334 240.54 171.239 240.939C171.156 241.299 171.047 241.67 170.944 242.037C170.424 243.854 169.679 245.734 168.703 247.617C168.683 247.657 168.663 247.698 168.643 247.738C168.383 248.234 168.106 248.73 167.818 249.222C167.766 249.311 167.713 249.402 167.661 249.492C167.389 249.947 167.105 250.399 166.811 250.849C166.711 250.999 166.612 251.15 166.51 251.3C166.244 251.693 165.971 252.088 165.688 252.477C165.485 252.751 165.278 253.025 165.067 253.295C164.848 253.581 164.632 253.87 164.402 254.151C164.091 254.535 163.759 254.911 163.427 255.289C163.267 255.471 163.118 255.66 162.953 255.841C162.337 256.518 161.707 257.159 161.068 257.776C160.965 257.876 160.858 257.969 160.754 258.066C158.354 260.333 155.759 262.237 153.141 263.656C153.091 263.683 153.044 263.708 152.994 263.733C152.5 263.998 152.005 264.244 151.51 264.472C151.416 264.517 151.321 264.557 151.229 264.599C150.765 264.809 150.3 265.007 149.837 265.183C149.722 265.227 149.607 265.264 149.493 265.304C149.036 265.471 148.577 265.632 148.124 265.765C148.122 265.765 148.118 265.768 148.115 265.769C147.631 265.911 147.152 266.045 146.685 266.147C142.835 266.989 139.632 266.435 137.549 264.542C135.159 262.383 134.384 258.595 135.359 253.882Z" fill="url(#paint0_linear_190_30)"/>
<path d="M144.81 191.668C137.602 199.462 134.184 210.729 136.652 222.108C136.854 223.044 137.604 223.762 138.546 223.929C139.029 224.012 139.512 223.94 139.944 223.744C148.318 221.801 155.446 216.658 160.048 209.219C164.669 201.755 166.189 192.857 164.368 184.128C164.368 184.114 164.371 184.098 164.368 184.084C164.367 184.066 164.356 184.049 164.352 184.03C164.338 183.966 164.334 183.904 164.32 183.84C164.293 183.716 164.231 183.609 164.186 183.493C164.166 183.445 164.152 183.392 164.129 183.344C163.994 183.066 163.817 182.818 163.585 182.618C156.71 172.937 144.717 168.811 133.425 171.281C129.698 172.096 126.05 173.629 122.686 175.916C121.893 176.456 121.507 177.422 121.71 178.358C121.81 178.828 122.052 179.242 122.383 179.562C127.571 186.938 135.878 191.285 144.81 191.668ZM156.047 206.744C152.472 212.522 147.125 216.678 140.823 218.635C139.341 207.411 144.332 196.653 153.066 190.746C153.08 190.735 153.1 190.736 153.114 190.726C155.174 189.34 157.368 188.27 159.655 187.5C159.785 187.457 159.908 187.402 160.039 187.361C160.079 187.347 160.118 187.341 160.159 187.327C161.061 194.138 159.635 200.946 156.047 206.744ZM157.953 183.089C156.746 183.499 155.586 183.999 154.457 184.542C154.32 184.608 154.188 184.686 154.051 184.754C153.036 185.26 152.058 185.819 151.114 186.425C151.04 186.473 150.961 186.507 150.884 186.555C141.978 188.248 133.084 185.127 127.491 178.488C137.757 172.851 150.403 174.816 157.953 183.089Z" fill="url(#paint1_linear_190_30)"/>
<path d="M78.9896 76.2809C75.032 77.4795 71.9803 80.7012 70.1752 85.4174C61.3843 81.7366 53.3711 82.4035 49.3153 87.3413C46.0482 91.3173 45.9819 97.3553 48.9927 103.816C46.2737 105.377 44.289 107.554 43.3729 110.29C40.44 119.048 49.4133 129.684 63.8038 134.503C74.4857 138.08 84.925 137.282 90.6909 132.855C94.0581 139.43 104.938 144.344 119.918 149.616C114.916 150.889 110.647 153.336 107.811 157.461C103.573 152.59 95.9926 148.786 86.9768 147.467C71.9583 145.271 59.1692 150.714 57.8134 159.847C57.395 162.705 58.1843 165.543 59.9072 168.164C54.3058 172.567 51.635 177.986 52.757 183.01C54.1452 189.232 60.9923 193.411 70.4697 194.108C69.9688 198.998 71.1632 203.332 74.2421 206.276C81.3974 213.114 95.5726 209.505 106.515 198.061C110.842 193.537 114.063 188.364 115.774 183.254C116.067 182.379 116.314 181.509 116.516 180.644C118.003 174.27 116.851 168.876 113.273 165.452C112.641 164.848 111.938 164.355 111.205 163.913C111.067 163.257 110.877 162.61 110.627 161.97C118.292 146.262 150.962 155.735 161.079 159.123C162.311 159.536 163.645 158.873 164.058 157.639C164.471 156.405 163.805 155.073 162.574 154.66C155.078 152.15 142.334 148.56 130.655 148.464C130.462 148.322 130.265 148.182 130.027 148.102C116.279 143.498 97.938 137.337 94.7863 130.459C94.9865 130.41 95.1905 130.386 95.3892 130.326C99.5962 129.05 102.799 125.519 104.548 120.295C104.769 119.634 104.967 118.949 105.14 118.237C106.585 112.316 106.207 105.196 104.078 98.1825C101.95 91.1688 98.3062 85.035 93.8164 80.9158C88.993 76.4889 83.7296 74.843 78.9896 76.2809ZM62.4694 160.528C63.4001 154.191 74.3028 150.372 86.2917 152.121C95.036 153.399 102.528 157.452 105.446 162.079C105.407 162.076 105.363 162.081 105.325 162.078C103.553 161.929 101.666 162.064 99.7139 162.462C99.6104 162.482 99.5092 162.503 99.4072 162.526C97.4458 162.951 95.4274 163.643 93.3931 164.59C93.3045 164.632 93.2151 164.676 93.1265 164.719C92.1555 165.18 91.1844 165.694 90.214 166.272C90.1671 166.301 90.1194 166.325 90.0725 166.354C89.0663 166.957 88.0675 167.621 87.076 168.343C86.965 168.423 86.8585 168.511 86.749 168.594C86.0845 169.088 85.4222 169.606 84.7696 170.154C84.7666 170.156 84.7636 170.157 84.7599 170.161C84.7592 170.163 84.7584 170.165 84.7532 170.166C84.605 170.29 84.4574 170.427 84.3099 170.556C84.0901 170.746 83.8711 170.933 83.6528 171.125C83.3875 171.362 83.1238 171.593 82.86 171.84C82.8533 171.845 82.8451 171.848 82.8399 171.856C82.2177 172.439 81.6007 173.044 80.9986 173.671C80.6349 174.053 80.2787 174.443 79.9321 174.833C79.6643 174.773 79.3942 174.72 79.1287 174.653C78.8951 174.595 78.6608 174.539 78.4301 174.479C77.7666 174.304 77.1135 174.112 76.4731 173.905C76.395 173.879 76.3146 173.86 76.2365 173.834C75.4927 173.587 74.7683 173.32 74.0625 173.034C73.9487 172.988 73.8416 172.937 73.73 172.892C73.144 172.649 72.5706 172.39 72.0173 172.123C71.8782 172.056 71.7421 171.989 71.6061 171.921C70.9985 171.615 70.4059 171.295 69.8452 170.961C69.8222 170.949 69.7991 170.936 69.7761 170.923C67.8659 169.78 66.2358 168.482 64.9875 167.081C64.966 167.057 64.9347 167.046 64.9132 167.022C63.0758 164.935 62.1516 162.692 62.4694 160.528ZM57.3491 181.984C56.6391 178.791 58.7674 174.962 62.966 171.718C63.7969 172.482 64.7216 173.211 65.7193 173.9C65.7617 173.929 65.8041 173.958 65.8487 173.988C66.8419 174.668 67.9044 175.312 69.0481 175.906C71.2433 177.05 73.7058 178.019 76.3681 178.776C76.4834 178.81 76.5875 178.855 76.7028 178.889C76.6879 178.911 76.6723 178.935 76.6574 178.958C74.1998 182.443 72.4141 186.034 71.3906 189.491C63.8254 189.079 58.2795 186.165 57.3491 181.984ZM111.929 179.572C110.734 184.691 107.6 190.108 103.108 194.806C94.2935 204.024 82.5613 207.719 77.4921 202.87C75.0887 200.576 74.5537 196.697 75.5719 192.278C75.7987 191.282 76.106 190.268 76.4839 189.243C76.5429 189.082 76.6087 188.923 76.6706 188.76C77.0545 187.776 77.4957 186.785 78.0053 185.797C78.0903 185.632 78.188 185.466 78.2753 185.302C78.8222 184.284 79.4167 183.272 80.0885 182.273C80.1281 182.214 80.175 182.156 80.2146 182.097C80.9132 181.07 81.6737 180.059 82.4914 179.077C82.5458 179.011 82.595 178.946 82.6494 178.88C83.2062 178.217 83.7853 177.563 84.3979 176.919C84.9203 176.374 85.4553 175.851 85.994 175.346C86.2071 175.147 86.4269 174.958 86.643 174.765C86.9514 174.488 87.2569 174.213 87.5691 173.948C87.8626 173.701 88.1599 173.466 88.4571 173.231C88.6977 173.038 88.9376 172.848 89.1805 172.664C89.5224 172.406 89.8673 172.154 90.2137 171.913C90.4081 171.777 90.6017 171.643 90.7946 171.512C91.176 171.255 91.5581 171.003 91.9432 170.765C92.0936 170.671 92.2448 170.583 92.3945 170.492C92.8145 170.238 93.2368 169.992 93.6583 169.763C93.7492 169.714 93.8385 169.67 93.9294 169.621C95.1671 168.963 96.3994 168.418 97.6115 167.977C97.9674 167.849 98.324 167.717 98.6754 167.609C99.0633 167.488 99.4467 167.381 99.8293 167.283C99.9134 167.262 99.9998 167.234 100.083 167.214C100.442 167.129 100.793 167.065 101.148 167C101.327 166.968 101.511 166.931 101.689 166.903C102 166.856 102.303 166.826 102.607 166.799C102.817 166.78 103.025 166.76 103.229 166.749C103.509 166.736 103.783 166.734 104.055 166.735C104.273 166.739 104.486 166.746 104.695 166.759C104.948 166.774 105.199 166.796 105.444 166.828C105.66 166.856 105.871 166.894 106.078 166.934C106.305 166.977 106.532 167.024 106.751 167.082C106.97 167.141 107.176 167.215 107.384 167.289C107.575 167.356 107.769 167.421 107.954 167.5C108.721 167.839 109.419 168.283 110.018 168.856C112.344 171.079 113.025 174.886 111.929 179.572ZM52.9531 90.3289C55.6783 87.0152 61.9584 86.9219 68.9075 89.9811C68.9008 90.0235 68.8977 90.0696 68.8902 90.1142C68.4088 92.8044 68.2798 95.6945 68.4907 98.6886C68.4936 98.7392 68.4988 98.7905 68.5039 98.8419C68.5704 99.7402 68.6688 100.647 68.7978 101.558C68.8096 101.649 68.8124 101.737 68.8272 101.826C68.7201 101.805 68.6174 101.801 68.5103 101.78C64.3627 100.974 60.4211 100.836 56.9177 101.3C56.8708 101.307 56.8247 101.311 56.78 101.319C55.575 101.486 54.4228 101.718 53.3344 102.026L53.3314 102.028C51.0044 97.1859 50.8406 92.9023 52.9531 90.3289ZM65.2983 130.04C53.8086 126.192 45.8108 117.831 47.8358 111.784C48.5299 109.711 50.3665 108.125 52.9464 107.098C52.9769 107.088 53.0082 107.091 53.0394 107.079C54.781 106.392 56.8175 105.972 59.0316 105.815C59.0778 105.811 59.1246 105.811 59.1708 105.807C59.8026 105.765 60.4508 105.749 61.1086 105.749C61.2746 105.75 61.4405 105.751 61.608 105.755C62.2055 105.764 62.8134 105.793 63.4266 105.837C63.565 105.847 63.6996 105.852 63.8395 105.864C64.5896 105.929 65.3477 106.014 66.1133 106.129C66.2152 106.143 66.3216 106.167 66.4228 106.183C67.0641 106.284 67.7106 106.406 68.3571 106.543C68.6026 106.595 68.8488 106.653 69.0973 106.711C69.3554 106.771 69.6136 106.845 69.8724 106.909C70.0042 107.412 70.1479 107.917 70.3005 108.425C70.4286 108.85 70.5814 109.261 70.7199 109.677C70.8541 110.077 70.98 110.486 71.1216 110.878C71.2358 111.19 71.3641 111.488 71.4828 111.794C71.6044 112.105 71.7275 112.412 71.8558 112.718C72.2407 113.643 72.6465 114.551 73.0844 115.429C73.1838 115.629 73.2795 115.832 73.382 116.03C73.8428 116.922 74.3358 117.777 74.8459 118.61C75.059 118.959 75.2788 119.296 75.5008 119.634C75.8134 120.108 76.1358 120.568 76.4633 121.02C76.5057 121.079 76.5473 121.14 76.5896 121.199C76.6423 121.272 76.698 121.342 76.7508 121.415C76.9513 121.683 77.1452 121.964 77.3509 122.224C77.7439 122.717 78.154 123.182 78.5664 123.641C78.5917 123.669 78.6162 123.699 78.6415 123.728C78.7975 123.899 78.9505 124.072 79.1081 124.239C79.3771 124.525 79.6506 124.79 79.9248 125.061C79.9961 125.129 80.0637 125.209 80.1351 125.278C80.144 125.288 80.1589 125.288 80.1708 125.297C80.3045 125.424 80.4309 125.565 80.5631 125.689C80.7742 125.881 80.9891 126.04 81.2009 126.223C81.5131 126.491 81.8237 126.764 82.1434 127.01C82.8421 127.554 83.5477 128.056 84.2577 128.485C84.3484 128.54 84.4422 128.579 84.5336 128.632C85.2311 129.039 85.9338 129.378 86.6366 129.673C86.7192 129.708 86.8002 129.763 86.8813 129.795C82.19 132.614 73.6773 132.846 65.2983 130.04ZM90.6334 84.3815C94.5115 87.9409 97.6868 93.3247 99.5721 99.5448C101.46 105.763 101.812 112.006 100.564 117.119C99.4231 121.8 97.0994 124.886 94.0195 125.82C93.2654 126.049 92.4779 126.14 91.6668 126.109C91.4369 126.099 91.2063 126.062 90.9756 126.032C90.7971 126.009 90.6222 125.998 90.4422 125.965C90.2019 125.919 89.9609 125.846 89.7198 125.78C89.5428 125.73 89.3695 125.692 89.1909 125.632C88.9499 125.552 88.7075 125.446 88.4658 125.345C88.2873 125.27 88.1088 125.203 87.9288 125.118C87.6827 125.001 87.4358 124.864 87.1904 124.729C87.0164 124.634 86.8417 124.54 86.6684 124.435C86.4104 124.279 86.1517 124.103 85.8952 123.928C85.7376 123.821 85.5822 123.714 85.4254 123.597C85.1429 123.388 84.8604 123.165 84.5809 122.932C84.4664 122.837 84.352 122.741 84.2368 122.641C83.9372 122.379 83.6385 122.108 83.3449 121.821C83.0781 121.565 82.8158 121.281 82.5535 121.005C81.2606 119.627 80.0282 118.023 78.9123 116.22C78.8878 116.182 78.8632 116.144 78.8387 116.106C78.5469 115.628 78.2626 115.136 77.988 114.637C77.939 114.546 77.8878 114.455 77.8365 114.363C77.5857 113.897 77.343 113.421 77.1077 112.938C77.0306 112.775 76.9512 112.612 76.8747 112.448C76.6737 112.018 76.4748 111.582 76.2857 111.139C76.1552 110.824 76.0261 110.506 75.9023 110.186C75.7688 109.851 75.6323 109.518 75.5085 109.176C75.3387 108.712 75.1861 108.234 75.0312 107.755C74.9571 107.525 74.8711 107.3 74.8008 107.065C74.5356 106.19 74.3083 105.32 74.1063 104.455C74.0738 104.315 74.0487 104.175 74.0184 104.036C73.3032 100.814 72.9988 97.6098 73.1242 94.6341C73.1258 94.5776 73.1288 94.524 73.1326 94.4682C73.1587 93.9086 73.2019 93.3572 73.2592 92.8156C73.269 92.7122 73.2833 92.6102 73.2946 92.5098C73.3526 92.0031 73.421 91.5024 73.5072 91.0151C73.5282 90.8931 73.5552 90.7755 73.5799 90.6572C73.6706 90.1789 73.768 89.7027 73.8862 89.246C73.8869 89.2438 73.8862 89.2385 73.8869 89.2363C74.0134 88.7476 74.1443 88.2678 74.296 87.8148C75.5476 84.0772 77.6658 81.6124 80.3593 80.7946C83.4377 79.8501 87.0875 81.1268 90.6334 84.3815Z" fill="url(#paint2_linear_190_30)"/>
<path d="M139.197 124.401C136.202 114.216 128.282 105.503 117.248 101.786C116.34 101.48 115.34 101.755 114.713 102.478C114.395 102.851 114.209 103.302 114.155 103.773C111.528 111.959 112.289 120.716 116.314 128.481C120.353 136.276 127.212 142.144 135.64 145.058C135.652 145.065 135.663 145.076 135.677 145.08C135.694 145.088 135.714 145.088 135.732 145.094C135.794 145.115 135.849 145.143 135.912 145.164C136.032 145.204 136.156 145.206 136.278 145.227C136.33 145.234 136.382 145.249 136.435 145.255C136.744 145.281 137.047 145.256 137.338 145.16C149.174 144.222 158.867 136.042 162.537 125.082C163.748 121.464 164.304 117.546 164.065 113.485C164.008 112.528 163.377 111.701 162.47 111.395C162.015 111.24 161.535 111.236 161.091 111.355C152.098 112.027 144.106 116.929 139.197 124.401ZM120.491 126.316C117.365 120.284 116.538 113.562 118.09 107.148C128.486 111.632 135.162 121.434 135.754 131.961C135.756 131.979 135.745 131.995 135.747 132.013C135.88 134.492 135.673 136.924 135.162 139.282C135.132 139.416 135.117 139.55 135.084 139.683C135.075 139.725 135.061 139.762 135.052 139.803C128.743 137.085 123.629 132.37 120.491 126.316ZM139.822 140.083C140.088 138.837 140.254 137.585 140.367 136.337C140.38 136.185 140.382 136.032 140.393 135.879C140.479 134.749 140.501 133.622 140.465 132.501C140.462 132.413 140.473 132.328 140.471 132.238C143.585 123.724 150.825 117.688 159.393 116.291C158.968 127.996 150.796 137.844 139.822 140.083Z" fill="url(#paint3_linear_190_30)"/>
<path d="M272.85 127.041C273.916 123.045 272.784 118.754 269.726 114.736C277.485 109.202 281.139 102.039 279.077 95.9904C277.418 91.1191 272.321 87.8825 265.243 87.0392C265.348 83.9056 264.543 81.0719 262.7 78.8523C256.8 71.7462 243.032 73.7721 231.357 83.4667C222.69 90.6629 217.87 99.9569 218.596 107.19C211.234 106.589 201.327 113.249 188.955 123.207C190.507 118.284 190.676 113.367 188.662 108.783C195.035 107.746 202.262 103.306 208.132 96.337C217.908 84.7266 220.017 70.9884 212.968 65.0258C210.759 63.1649 207.931 62.3413 204.795 62.4249C204.002 55.3444 200.803 50.22 195.941 48.5277C189.921 46.4305 182.762 50.0499 177.178 57.7391C173.285 54.7378 168.972 53.4707 164.848 54.5372C155.266 57.018 150.868 70.9684 154.833 86.2975C156.4 92.3585 159.101 97.821 162.543 101.967C163.132 102.677 163.742 103.345 164.371 103.973C169.006 108.594 174.198 110.455 178.993 109.217C179.839 108.998 180.629 108.66 181.391 108.27C182.021 108.499 182.671 108.678 183.347 108.802C192.662 123.591 167.402 146.373 159.193 153.189C158.194 154.018 158.055 155.501 158.886 156.502C159.718 157.504 161.201 157.639 162.2 156.81C168.281 151.76 178.046 142.817 184.279 132.941C184.501 132.851 184.724 132.758 184.917 132.597C196.072 123.335 210.969 110.99 218.476 111.933C218.412 112.13 218.325 112.315 218.271 112.516C217.14 116.764 218.455 121.346 221.974 125.585C222.419 126.121 222.898 126.65 223.411 127.172C227.684 131.518 233.936 134.947 241.018 136.832C248.101 138.717 255.235 138.85 261.101 137.203C267.405 135.434 271.576 131.827 272.85 127.041ZM209.937 68.6251C214.833 72.7538 212.337 84.0331 204.536 93.3031C198.844 100.063 191.453 104.298 185.983 104.34C186.006 104.309 186.024 104.269 186.047 104.238C187.107 102.81 187.986 101.135 188.676 99.266C188.713 99.1675 188.749 99.0705 188.783 98.9718C189.455 97.0805 189.93 95.0006 190.197 92.7726C190.207 92.675 190.217 92.5756 190.227 92.478C190.347 91.4095 190.421 90.3135 190.441 89.184C190.441 89.1289 190.446 89.0758 190.446 89.0207C190.463 87.8475 190.425 86.6491 190.333 85.4257C190.324 85.2895 190.305 85.1524 190.293 85.0159C190.222 84.1905 190.131 83.3548 190.008 82.5112C190.009 82.5079 190.009 82.5046 190.008 82.4995C190.006 82.4977 190.005 82.4959 190.007 82.4911C189.979 82.2997 189.941 82.1023 189.909 81.9088C189.863 81.6222 189.82 81.3373 189.771 81.0504C189.71 80.7005 189.652 80.3542 189.581 80.0001C189.58 79.9916 189.583 79.9835 189.578 79.9747C189.41 79.1386 189.221 78.2956 189.005 77.4534C188.872 76.943 188.728 76.4351 188.579 75.9349C188.771 75.7388 188.959 75.5373 189.155 75.3466C189.328 75.1788 189.499 75.0092 189.671 74.8447C190.17 74.3728 190.676 73.9185 191.19 73.4831C191.253 73.4305 191.312 73.3724 191.375 73.3198C191.976 72.8174 192.585 72.3424 193.2 71.8931C193.299 71.8204 193.398 71.7561 193.495 71.6848C194.011 71.3148 194.533 70.9638 195.052 70.6342C195.181 70.551 195.311 70.4711 195.44 70.3912C196.019 70.0355 196.604 69.7003 197.183 69.3997C197.206 69.3868 197.229 69.3739 197.252 69.361C199.23 68.3395 201.192 67.6373 203.04 67.314C203.072 67.3086 203.097 67.2876 203.13 67.2822C205.871 66.8195 208.264 67.2151 209.937 68.6251ZM194.394 52.9715C197.483 54.0499 199.617 57.8757 200.163 63.1536C199.076 63.4572 197.969 63.8593 196.858 64.3445C196.811 64.3652 196.764 64.3859 196.715 64.4081C195.614 64.8943 194.507 65.4585 193.4 66.1178C191.271 67.381 189.15 68.9642 187.104 70.8283C187.015 70.9086 186.922 70.9735 186.833 71.0538C186.821 71.0294 186.809 71.0031 186.798 70.9787C185.129 67.054 183.017 63.6447 180.618 60.954C184.952 54.7399 190.351 51.5606 194.394 52.9715ZM167.698 100.638C163.976 96.9261 161.022 91.4083 159.394 85.1161C156.201 72.7679 159.239 60.8488 166.031 59.0938C169.247 58.2589 172.826 59.8474 176.046 63.0402C176.774 63.7577 177.474 64.5529 178.146 65.414C178.252 65.5492 178.353 65.6888 178.458 65.8273C179.092 66.6715 179.702 67.5686 180.274 68.5224C180.37 68.6816 180.459 68.852 180.553 69.0128C181.13 70.0138 181.677 71.0522 182.172 72.1492C182.201 72.2137 182.226 72.2846 182.256 72.3491C182.76 73.4838 183.219 74.6627 183.623 75.8749C183.651 75.956 183.681 76.0323 183.708 76.1134C183.978 76.9355 184.229 77.7727 184.454 78.6324C184.642 79.3634 184.805 80.0937 184.95 80.8174C185.007 81.1034 185.052 81.39 185.103 81.6755C185.175 82.0832 185.248 82.4877 185.309 82.8928C185.364 83.2722 185.408 83.6489 185.451 84.0256C185.488 84.3315 185.523 84.6356 185.552 84.939C185.591 85.3654 185.623 85.7912 185.646 86.2128C185.659 86.4496 185.671 86.6847 185.681 86.9179C185.699 87.3774 185.711 87.8348 185.711 88.2877C185.711 88.4648 185.707 88.6399 185.706 88.8152C185.7 89.306 185.687 89.7944 185.659 90.2731C185.653 90.3762 185.644 90.4756 185.637 90.5786C185.545 91.9771 185.359 93.3118 185.095 94.5741C185.017 94.9445 184.941 95.3168 184.848 95.6725C184.746 96.0658 184.635 96.4482 184.517 96.825C184.491 96.9078 184.469 96.996 184.442 97.077C184.326 97.4272 184.195 97.7593 184.063 98.0947C183.996 98.2639 183.931 98.4401 183.861 98.6057C183.737 98.895 183.603 99.1683 183.466 99.4414C183.371 99.6298 183.279 99.8168 183.18 99.9965C183.044 100.241 182.902 100.475 182.757 100.706C182.64 100.889 182.521 101.067 182.4 101.238C182.254 101.445 182.103 101.646 181.947 101.837C181.809 102.007 181.666 102.166 181.523 102.321C181.366 102.49 181.207 102.659 181.042 102.815C180.878 102.97 180.706 103.106 180.533 103.244C180.376 103.371 180.218 103.502 180.054 103.617C179.361 104.091 178.616 104.45 177.813 104.658C174.699 105.464 171.104 104.037 167.698 100.638ZM274.622 97.5092C276.003 101.571 272.775 106.959 266.514 111.255C266.482 111.226 266.444 111.2 266.41 111.17C264.377 109.343 261.988 107.712 259.332 106.314C259.288 106.29 259.241 106.267 259.195 106.244C258.396 105.828 257.574 105.434 256.731 105.063C256.647 105.026 256.571 104.982 256.488 104.947C256.562 104.867 256.62 104.782 256.694 104.702C259.563 101.601 261.757 98.3236 263.207 95.1008C263.227 95.0574 263.247 95.0159 263.264 94.974C263.757 93.8616 264.166 92.7599 264.478 91.6724L264.478 91.6691C269.819 92.2412 273.547 94.3581 274.622 97.5092ZM234.363 87.0876C243.685 79.3473 255.005 76.9525 259.079 81.8589C260.476 83.5408 260.857 85.9374 260.371 88.6714C260.363 88.7025 260.344 88.7274 260.338 88.7603C260.005 90.6027 259.289 92.5551 258.256 94.5198C258.236 94.5613 258.21 94.6008 258.19 94.6423C257.892 95.2013 257.565 95.7608 257.219 96.3203C257.131 96.4609 257.042 96.6014 256.951 96.7417C256.628 97.2449 256.283 97.7459 255.922 98.2439C255.842 98.3568 255.766 98.4684 255.682 98.581C255.232 99.1843 254.76 99.7839 254.259 100.374C254.194 100.453 254.118 100.532 254.051 100.609C253.627 101.101 253.183 101.586 252.726 102.064C252.552 102.245 252.373 102.424 252.193 102.604C252.007 102.792 251.808 102.973 251.617 103.159C251.119 103.006 250.615 102.862 250.103 102.724C249.674 102.61 249.244 102.523 248.817 102.421C248.407 102.325 247.992 102.216 247.584 102.13C247.26 102.063 246.938 102.015 246.616 101.955C246.288 101.895 245.962 101.838 245.634 101.785C244.645 101.625 243.66 101.492 242.682 101.402C242.46 101.381 242.237 101.355 242.014 101.338C241.014 101.26 240.028 101.229 239.05 101.224C238.641 101.221 238.239 101.23 237.836 101.241C237.268 101.257 236.707 101.289 236.15 101.329C236.077 101.334 236.003 101.337 235.931 101.342C235.842 101.349 235.752 101.359 235.663 101.366C235.33 101.395 234.989 101.412 234.659 101.45C234.033 101.524 233.421 101.628 232.815 101.737C232.777 101.743 232.738 101.748 232.701 101.755C232.473 101.797 232.246 101.836 232.021 101.882C231.636 101.96 231.266 102.053 230.892 102.143C230.796 102.168 230.693 102.183 230.597 102.208C230.583 102.21 230.576 102.223 230.562 102.228C230.383 102.275 230.197 102.308 230.022 102.355C229.747 102.433 229.499 102.532 229.232 102.616C228.84 102.74 228.444 102.861 228.067 103.003C227.236 103.31 226.438 103.646 225.699 104.023C225.605 104.071 225.522 104.131 225.429 104.18C224.716 104.559 224.057 104.977 223.436 105.419C223.363 105.471 223.274 105.511 223.204 105.563C223.278 100.091 227.565 92.7324 234.363 87.0876ZM259.831 132.672C254.763 134.094 248.514 133.957 242.234 132.284C235.953 130.614 230.462 127.625 226.772 123.87C223.394 120.436 221.995 116.835 222.823 113.725C223.026 112.963 223.363 112.246 223.816 111.573C223.946 111.382 224.099 111.206 224.246 111.026C224.36 110.886 224.461 110.743 224.584 110.608C224.75 110.428 224.939 110.261 225.122 110.091C225.257 109.967 225.381 109.839 225.526 109.719C225.721 109.557 225.939 109.406 226.152 109.254C226.309 109.142 226.461 109.025 226.628 108.917C226.857 108.77 227.104 108.632 227.347 108.494C227.52 108.397 227.691 108.297 227.872 108.205C228.14 108.068 228.426 107.941 228.71 107.815C228.884 107.738 229.057 107.662 229.239 107.59C229.565 107.46 229.904 107.338 230.249 107.223C230.39 107.175 230.532 107.128 230.678 107.083C231.058 106.967 231.446 106.856 231.845 106.757C232.202 106.665 232.582 106.592 232.955 106.514C234.808 106.141 236.82 105.938 238.941 105.939C238.986 105.939 239.031 105.938 239.076 105.937C239.636 105.94 240.204 105.958 240.773 105.987C240.876 105.993 240.981 105.998 241.086 106.003C241.614 106.035 242.146 106.079 242.681 106.134C242.86 106.154 243.04 106.172 243.22 106.194C243.691 106.249 244.167 106.31 244.643 106.383C244.979 106.437 245.318 106.495 245.655 106.558C246.01 106.621 246.365 106.681 246.721 106.756C247.205 106.856 247.691 106.978 248.18 107.098C248.415 107.157 248.652 107.202 248.888 107.266C249.772 107.502 250.631 107.767 251.472 108.05C251.608 108.096 251.741 108.149 251.875 108.196C254.991 109.286 257.875 110.714 260.338 112.388C260.385 112.419 260.429 112.45 260.475 112.483C260.937 112.8 261.383 113.127 261.813 113.461C261.896 113.524 261.975 113.589 262.054 113.652C262.454 113.968 262.844 114.29 263.213 114.62C263.305 114.702 263.391 114.787 263.479 114.87C263.838 115.199 264.191 115.533 264.517 115.874C264.519 115.876 264.523 115.878 264.525 115.88C264.874 116.244 265.213 116.608 265.518 116.976C268.036 120.008 269.015 123.107 268.292 125.828C267.473 128.942 264.466 131.372 259.831 132.672Z" fill="url(#paint4_linear_190_30)"/>
<path d="M200.235 152.876C210.47 155.694 222.047 153.551 231.019 146.129C231.758 145.519 232.05 144.523 231.766 143.61C231.617 143.143 231.331 142.747 230.959 142.454C225.384 135.909 217.54 131.943 208.818 131.275C200.066 130.602 191.464 133.343 184.549 138.972C184.537 138.979 184.521 138.983 184.51 138.992C184.494 139.002 184.484 139.019 184.47 139.031C184.419 139.073 184.366 139.105 184.315 139.147C184.218 139.228 184.151 139.333 184.069 139.425C184.035 139.466 183.995 139.502 183.963 139.544C183.778 139.793 183.639 140.064 183.568 140.361C178.131 150.917 179.979 163.464 187.363 172.357C189.8 175.292 192.838 177.828 196.416 179.764C197.259 180.22 198.295 180.119 199.033 179.509C199.404 179.204 199.66 178.798 199.793 178.358C203.959 170.36 204.001 160.984 200.235 152.876ZM208.459 135.966C215.234 136.485 221.383 139.323 226.017 144.021C216.731 150.496 204.882 151.009 195.622 145.967C195.606 145.959 195.597 145.942 195.581 145.934C193.404 144.741 191.445 143.284 189.711 141.608C189.613 141.512 189.507 141.428 189.41 141.331C189.38 141.301 189.356 141.269 189.325 141.239C194.959 137.308 201.661 135.444 208.459 135.966ZM186.575 145.147C187.494 146.029 188.471 146.83 189.472 147.583C189.594 147.675 189.724 147.757 189.847 147.847C190.763 148.515 191.709 149.127 192.682 149.687C192.758 149.731 192.824 149.786 192.902 149.831C198.499 156.963 199.817 166.296 196.491 174.315C186.766 167.788 182.698 155.655 186.575 145.147Z" fill="url(#paint5_linear_190_30)"/>
<defs>
<linearGradient id="paint0_linear_190_30" x1="200.193" y1="279.555" x2="172.024" y2="150.779" gradientUnits="userSpaceOnUse">
<stop stop-color="#001801"/>
<stop offset="1" stop-color="#308C50"/>
</linearGradient>
<linearGradient id="paint1_linear_190_30" x1="151.789" y1="221.209" x2="140.527" y2="169.728" gradientUnits="userSpaceOnUse">
<stop stop-color="#001801"/>
<stop offset="1" stop-color="#308C50"/>
</linearGradient>
<linearGradient id="paint2_linear_190_30" x1="35.3442" y1="126.875" x2="160.343" y2="168.732" gradientUnits="userSpaceOnUse">
<stop stop-color="#001801"/>
<stop offset="1" stop-color="#308C50"/>
</linearGradient>
<linearGradient id="paint3_linear_190_30" x1="110.257" y1="115.242" x2="160.229" y2="131.976" gradientUnits="userSpaceOnUse">
<stop stop-color="#001801"/>
<stop offset="1" stop-color="#308C50"/>
</linearGradient>
<linearGradient id="paint4_linear_190_30" x1="252.831" y1="63.2922" x2="151.413" y2="147.502" gradientUnits="userSpaceOnUse">
<stop stop-color="#001801"/>
<stop offset="1" stop-color="#308C50"/>
</linearGradient>
<linearGradient id="paint5_linear_190_30" x1="223.263" y1="133.099" x2="182.719" y2="166.764" gradientUnits="userSpaceOnUse">
<stop stop-color="#001801"/>
<stop offset="1" stop-color="#308C50"/>
</linearGradient>
</defs>
</svg>
