<svg width="424" height="423" viewBox="0 0 424 423" fill="none" xmlns="http://www.w3.org/2000/svg">
<path d="M123.4 408.75C123.4 409.917 123.15 410.75 122.65 411.25C122.15 411.75 121.367 412 120.3 412C119.533 412 118.95 411.8 118.55 411.4C118.183 411 118 410.367 118 409.5V379.05C118 378.183 118.183 377.55 118.55 377.15C118.95 376.75 119.533 376.55 120.3 376.55H137.3C138.333 376.55 139.083 376.683 139.55 376.95C140.05 377.217 140.3 377.7 140.3 378.4V382.25C140.3 383.117 140.117 383.75 139.75 384.15C139.417 384.55 138.883 384.75 138.15 384.75C137.183 384.75 136.45 384.5 135.95 384C135.483 383.5 135.25 382.667 135.25 381.5V379.2H123.4V392.55H133.9C134.833 392.55 135.3 393.017 135.3 393.95C135.3 394.383 135.167 394.717 134.9 394.95C134.667 395.183 134.333 395.3 133.9 395.3H123.4V408.75ZM150.233 408.6C150.233 410 150 410.917 149.533 411.35C149.067 411.783 148.233 412 147.033 412C146.267 412 145.733 411.817 145.433 411.45C145.167 411.05 145.033 410.45 145.033 409.65V376.35C145.033 375.55 145.167 374.967 145.433 374.6C145.733 374.2 146.267 374 147.033 374C148.167 374 148.983 374.317 149.483 374.95C149.983 375.583 150.233 376.633 150.233 378.1V408.6ZM168.454 412C164.821 412 162.004 410.95 160.004 408.85C158.004 406.75 157.004 403.617 157.004 399.45C157.004 395.217 158.021 392.067 160.054 390C162.087 387.933 164.887 386.9 168.454 386.9C172.021 386.9 174.821 387.933 176.854 390C178.887 392.067 179.904 395.217 179.904 399.45C179.904 403.617 178.904 406.75 176.904 408.85C174.904 410.95 172.087 412 168.454 412ZM168.454 410C170.421 410 171.921 409.25 172.954 407.75C173.987 406.217 174.504 403.45 174.504 399.45C174.504 395.517 173.971 392.783 172.904 391.25C171.837 389.683 170.354 388.9 168.454 388.9C166.587 388.9 165.104 389.683 164.004 391.25C162.937 392.817 162.404 395.55 162.404 399.45C162.404 403.417 162.921 406.167 163.954 407.7C164.987 409.233 166.487 410 168.454 410ZM202.585 389.05C202.585 390.35 201.935 391 200.635 391H198.985C196.485 391 194.618 391.617 193.385 392.85C192.185 394.083 191.585 395.55 191.585 397.25V408.45C191.585 409.883 191.335 410.833 190.835 411.3C190.368 411.767 189.551 412 188.385 412C187.618 412 187.085 411.817 186.785 411.45C186.518 411.05 186.385 410.45 186.385 409.65V389.05C186.385 388.25 186.551 387.7 186.885 387.4C187.218 387.067 187.768 386.9 188.535 386.9C189.468 386.9 190.185 387.267 190.685 388C191.218 388.7 191.485 389.767 191.485 391.2V392.45H191.585C192.551 390.917 193.651 389.617 194.885 388.55C196.118 387.45 197.701 386.9 199.635 386.9H200.235C201.068 386.9 201.651 387.083 201.985 387.45C202.351 387.817 202.551 388.35 202.585 389.05ZM223.373 405.7C223.706 405.333 224.123 405.15 224.623 405.15C224.923 405.15 225.19 405.25 225.423 405.45C225.656 405.65 225.773 405.9 225.773 406.2C225.773 406.8 225.556 407.367 225.123 407.9C222.923 410.633 219.856 412 215.923 412C212.023 412 209.073 410.95 207.073 408.85C205.106 406.717 204.123 403.783 204.123 400.05C204.123 395.783 205.123 392.533 207.123 390.3C209.123 388.033 212.023 386.9 215.823 386.9C218.856 386.9 221.29 387.767 223.123 389.5C224.956 391.233 225.873 393.717 225.873 396.95C225.873 398.583 224.923 399.4 223.023 399.4H209.573C209.54 399.667 209.523 400.033 209.523 400.5C209.523 403.367 210.09 405.633 211.223 407.3C212.356 408.967 214.106 409.8 216.473 409.8C218.073 409.8 219.34 409.467 220.273 408.8C221.206 408.133 221.923 407.5 222.423 406.9C222.923 406.267 223.24 405.867 223.373 405.7ZM215.523 388.9C213.923 388.9 212.606 389.583 211.573 390.95C210.54 392.317 209.923 394.433 209.723 397.3H219.073C219.673 397.3 220.106 397.2 220.373 397C220.64 396.767 220.773 396.383 220.773 395.85C220.773 393.617 220.24 391.9 219.173 390.7C218.14 389.5 216.923 388.9 215.523 388.9ZM245.343 405.9C245.343 404.967 245.059 404.2 244.493 403.6C243.959 402.967 243.259 402.467 242.393 402.1C241.559 401.7 240.359 401.233 238.793 400.7C236.893 400.067 235.393 399.483 234.293 398.95C233.226 398.417 232.359 397.733 231.693 396.9C231.026 396.033 230.693 394.917 230.693 393.55C230.693 391.817 231.209 390.467 232.243 389.5C233.309 388.5 234.543 387.817 235.943 387.45C237.343 387.083 238.676 386.9 239.943 386.9C242.709 386.9 244.876 387.317 246.443 388.15C247.209 388.55 247.843 389.033 248.343 389.6C248.843 390.167 249.093 390.8 249.093 391.5C249.093 392.033 248.893 392.467 248.493 392.8C248.126 393.133 247.676 393.3 247.143 393.3C246.443 393.3 245.876 393.15 245.443 392.85C245.043 392.55 244.709 392.1 244.443 391.5C244.076 390.7 243.543 390.067 242.843 389.6C242.143 389.133 241.193 388.9 239.993 388.9C238.759 388.9 237.726 389.217 236.893 389.85C236.093 390.45 235.693 391.367 235.693 392.6C235.693 393.433 235.943 394.15 236.443 394.75C236.943 395.317 237.593 395.783 238.393 396.15C239.193 396.517 240.309 396.95 241.743 397.45C243.609 398.117 245.109 398.717 246.243 399.25C247.409 399.783 248.393 400.483 249.193 401.35C250.026 402.217 250.443 403.283 250.443 404.55C250.443 406.783 249.476 408.583 247.543 409.95C245.643 411.317 243.159 412 240.093 412C238.659 412 237.293 411.85 235.993 411.55C234.726 411.25 233.659 410.867 232.793 410.4C231.159 409.567 230.343 408.467 230.343 407.1C230.343 406.567 230.543 406.133 230.943 405.8C231.376 405.433 231.826 405.25 232.293 405.25C233.593 405.25 234.509 405.85 235.043 407.05C235.476 407.917 236.059 408.633 236.793 409.2C237.559 409.733 238.693 410 240.193 410C241.659 410 242.876 409.667 243.843 409C244.843 408.3 245.343 407.267 245.343 405.9ZM273.7 405.7C274.033 405.333 274.45 405.15 274.95 405.15C275.25 405.15 275.516 405.25 275.75 405.45C275.983 405.65 276.1 405.9 276.1 406.2C276.1 406.8 275.883 407.367 275.45 407.9C273.25 410.633 270.233 412 266.4 412C262.433 412 259.55 410.883 257.75 408.65C255.983 406.417 255.1 403.367 255.1 399.5C255.1 395.133 256.183 391.95 258.35 389.95C260.516 387.917 263.383 386.9 266.95 386.9C269.15 386.9 271.1 387.4 272.8 388.4C274.633 389.5 275.55 390.783 275.55 392.25C275.55 392.85 275.333 393.333 274.9 393.7C274.466 394.033 273.983 394.2 273.45 394.2C272.716 394.2 272.133 394.033 271.7 393.7C271.3 393.333 270.983 392.8 270.75 392.1C270.416 391.133 269.95 390.367 269.35 389.8C268.783 389.2 267.95 388.9 266.85 388.9C264.683 388.9 263.083 389.7 262.05 391.3C261.016 392.867 260.5 395.6 260.5 399.5C260.5 402.933 260.983 405.517 261.95 407.25C262.95 408.95 264.616 409.8 266.95 409.8C268.516 409.8 269.75 409.483 270.65 408.85C271.55 408.217 272.25 407.583 272.75 406.95C273.25 406.283 273.566 405.867 273.7 405.7ZM298.861 405.7C299.195 405.333 299.611 405.15 300.111 405.15C300.411 405.15 300.678 405.25 300.911 405.45C301.145 405.65 301.261 405.9 301.261 406.2C301.261 406.8 301.045 407.367 300.611 407.9C298.411 410.633 295.345 412 291.411 412C287.511 412 284.561 410.95 282.561 408.85C280.595 406.717 279.611 403.783 279.611 400.05C279.611 395.783 280.611 392.533 282.611 390.3C284.611 388.033 287.511 386.9 291.311 386.9C294.345 386.9 296.778 387.767 298.611 389.5C300.445 391.233 301.361 393.717 301.361 396.95C301.361 398.583 300.411 399.4 298.511 399.4H285.061C285.028 399.667 285.011 400.033 285.011 400.5C285.011 403.367 285.578 405.633 286.711 407.3C287.845 408.967 289.595 409.8 291.961 409.8C293.561 409.8 294.828 409.467 295.761 408.8C296.695 408.133 297.411 407.5 297.911 406.9C298.411 406.267 298.728 405.867 298.861 405.7ZM291.011 388.9C289.411 388.9 288.095 389.583 287.061 390.95C286.028 392.317 285.411 394.433 285.211 397.3H294.561C295.161 397.3 295.595 397.2 295.861 397C296.128 396.767 296.261 396.383 296.261 395.85C296.261 393.617 295.728 391.9 294.661 390.7C293.628 389.5 292.411 388.9 291.011 388.9ZM323.581 389.05C323.581 390.35 322.931 391 321.631 391H319.981C317.481 391 315.614 391.617 314.381 392.85C313.181 394.083 312.581 395.55 312.581 397.25V408.45C312.581 409.883 312.331 410.833 311.831 411.3C311.364 411.767 310.548 412 309.381 412C308.614 412 308.081 411.817 307.781 411.45C307.514 411.05 307.381 410.45 307.381 409.65V389.05C307.381 388.25 307.548 387.7 307.881 387.4C308.214 387.067 308.764 386.9 309.531 386.9C310.464 386.9 311.181 387.267 311.681 388C312.214 388.7 312.481 389.767 312.481 391.2V392.45H312.581C313.548 390.917 314.648 389.617 315.881 388.55C317.114 387.45 318.698 386.9 320.631 386.9H321.231C322.064 386.9 322.648 387.083 322.981 387.45C323.348 387.817 323.548 388.35 323.581 389.05Z" fill="#F2F2F2"/>
<g clip-path="url(#clip0_256_3)">
<path d="M182.044 324.818C185.524 327.984 190.452 329.085 196.112 328.096C197.646 338.831 202.973 346.27 210.163 347.35C215.954 348.221 221.89 344.763 226.444 338.052C229.556 339.797 232.84 340.465 236.047 339.764C246.314 337.518 251.467 322.547 247.777 305.678C245.038 293.156 238.168 283.424 230.478 280.375C234.936 273.25 233.387 259.755 229.796 242.045C233.958 246.189 238.839 248.931 244.524 249.293C242.239 256.276 242.946 265.9 246.919 275.477C253.538 291.428 266.318 300.745 276.03 296.74C279.065 295.481 281.377 293.054 282.933 289.841C290.502 292.744 297.354 292.191 301.606 288.163C306.874 283.176 306.961 274.049 302.112 264.385C307.18 262.021 310.716 258.325 311.796 253.6C314.3 242.62 302.503 230.879 284.939 226.869C277.995 225.282 271.063 225.154 265.073 226.465C264.047 226.689 263.053 226.956 262.09 227.262C254.996 229.529 250.399 233.802 249.143 239.296C248.922 240.265 248.85 241.24 248.846 242.214C248.285 242.731 247.764 243.295 247.285 243.912C227.469 245.591 217.659 208.15 215.064 196.29C214.748 194.846 213.323 193.93 211.876 194.247C210.43 194.563 209.517 195.991 209.833 197.435C211.755 206.221 215.685 220.765 222.405 232.229C222.38 232.501 222.357 232.774 222.418 233.054C225.944 249.17 230.627 270.681 225.748 277.773C225.583 277.606 225.441 277.421 225.267 277.261C221.565 273.897 216.247 272.829 210.124 274.168C209.349 274.338 208.564 274.545 207.768 274.791C201.141 276.835 194.407 281.359 188.798 287.53C183.188 293.702 179.323 300.841 177.919 307.63C176.41 314.925 177.873 321.027 182.044 324.818ZM273.978 291.795C267.245 294.583 257.152 286.162 251.865 273.43C248.011 264.143 247.597 254.459 250.415 248.909C250.435 248.949 250.465 248.989 250.485 249.028C251.373 250.846 252.606 252.61 254.134 254.285C254.214 254.374 254.294 254.461 254.376 254.547C255.935 256.215 257.789 257.783 259.901 259.218C259.994 259.28 260.089 259.341 260.182 259.403C261.2 260.082 262.268 260.731 263.399 261.341C263.455 261.37 263.506 261.403 263.562 261.432C264.738 262.063 265.969 262.651 267.253 263.198C267.396 263.26 267.544 263.313 267.689 263.371C268.56 263.732 269.452 264.077 270.368 264.394C270.372 264.396 270.375 264.398 270.381 264.4C270.383 264.399 270.386 264.399 270.39 264.403C270.597 264.476 270.817 264.54 271.029 264.609C271.343 264.713 271.653 264.818 271.969 264.918C272.354 265.04 272.735 265.162 273.129 265.276C273.138 265.279 273.145 265.286 273.156 265.286C274.089 265.554 275.04 265.803 276.004 266.026C276.59 266.158 277.178 266.279 277.761 266.389C277.859 266.686 277.965 266.981 278.055 267.279C278.134 267.541 278.216 267.803 278.292 268.063C278.508 268.814 278.702 269.563 278.874 270.31C278.894 270.401 278.922 270.491 278.942 270.583C279.135 271.453 279.296 272.317 279.429 273.173C279.451 273.311 279.464 273.445 279.485 273.58C279.589 274.295 279.671 275.006 279.733 275.702C279.749 275.877 279.762 276.049 279.775 276.222C279.831 276.993 279.865 277.759 279.865 278.502C279.866 278.532 279.868 278.562 279.869 278.592C279.866 281.125 279.55 283.474 278.91 285.511C278.898 285.546 278.906 285.583 278.895 285.618C277.929 288.631 276.277 290.842 273.978 291.795ZM297.925 284.276C295.22 286.833 290.238 286.988 284.618 284.78C284.88 283.522 285.053 282.194 285.144 280.817C285.147 280.759 285.151 280.7 285.154 280.639C285.239 279.272 285.248 277.859 285.16 276.395C284.998 273.583 284.507 270.612 283.693 267.57C283.659 267.437 283.642 267.31 283.607 267.177C283.638 267.179 283.671 267.18 283.701 267.181C288.54 267.548 293.09 267.197 297.064 266.18C301.076 273.81 301.465 280.928 297.925 284.276ZM263.719 232.369C269.417 230.549 276.538 230.45 283.748 232.096C297.896 235.327 308.351 244.631 306.572 252.413C305.734 256.099 302.257 258.885 297.346 260.469C296.241 260.829 295.071 261.12 293.85 261.349C293.658 261.386 293.464 261.414 293.268 261.449C292.084 261.647 290.858 261.795 289.595 261.874C289.385 261.887 289.166 261.888 288.954 261.899C287.641 261.959 286.305 261.969 284.938 261.895C284.857 261.891 284.773 261.879 284.692 261.875C283.282 261.791 281.85 261.639 280.414 261.413C280.318 261.398 280.225 261.388 280.129 261.374C279.157 261.216 278.179 261.033 277.193 260.81C276.356 260.618 275.533 260.4 274.726 260.168C274.407 260.076 274.094 259.972 273.779 259.874C273.329 259.734 272.882 259.596 272.441 259.446C272.029 259.303 271.625 259.15 271.222 258.997C270.893 258.874 270.567 258.751 270.246 258.621C269.795 258.438 269.347 258.248 268.909 258.05C268.663 257.94 268.42 257.828 268.179 257.717C267.705 257.494 267.236 257.268 266.779 257.031C266.6 256.938 266.425 256.842 266.248 256.749C265.755 256.487 265.269 256.218 264.8 255.94C264.699 255.88 264.603 255.818 264.502 255.758C263.138 254.933 261.886 254.047 260.748 253.12C260.415 252.848 260.079 252.576 259.768 252.296C259.424 251.987 259.095 251.676 258.776 251.359C258.706 251.289 258.628 251.221 258.561 251.151C258.268 250.851 258.001 250.545 257.73 250.236C257.595 250.08 257.451 249.922 257.32 249.764C257.092 249.488 256.886 249.21 256.682 248.928C256.541 248.734 256.401 248.543 256.27 248.349C256.095 248.084 255.932 247.818 255.775 247.55C255.651 247.336 255.534 247.124 255.424 246.912C255.292 246.656 255.167 246.398 255.055 246.14C254.956 245.912 254.871 245.684 254.788 245.458C254.699 245.212 254.611 244.963 254.541 244.715C254.47 244.467 254.422 244.223 254.374 243.976C254.327 243.75 254.277 243.523 254.247 243.296C254.13 242.349 254.157 241.408 254.367 240.488C255.182 236.919 258.503 234.033 263.719 232.369ZM210.959 342.053C206.132 341.325 202.376 335.245 201.309 326.672C201.355 326.654 201.402 326.63 201.45 326.611C204.358 325.511 207.257 323.951 210.058 321.998C210.106 321.965 210.153 321.93 210.2 321.895C211.039 321.306 211.867 320.681 212.682 320.023C212.764 319.959 212.848 319.905 212.927 319.838C212.969 319.955 213.024 320.058 213.066 320.175C214.7 324.696 216.864 328.628 219.363 331.779C219.396 331.821 219.428 331.863 219.461 331.902C220.327 332.982 221.227 333.972 222.163 334.855L222.166 334.857C218.794 339.956 214.705 342.615 210.959 342.053ZM242.546 306.822C245.492 320.29 241.992 332.982 234.903 334.532C232.473 335.064 229.852 334.196 227.343 332.275C227.316 332.251 227.3 332.218 227.271 332.195C225.583 330.895 223.984 329.15 222.539 327.079C222.508 327.037 222.481 326.99 222.45 326.948C222.041 326.355 221.647 325.731 221.262 325.089C221.166 324.926 221.071 324.764 220.977 324.598C220.637 324.009 220.311 323.398 219.996 322.773C219.925 322.633 219.851 322.498 219.781 322.354C219.407 321.584 219.048 320.793 218.714 319.978C218.668 319.871 218.629 319.753 218.586 319.645C218.31 318.959 218.052 318.257 217.809 317.545C217.717 317.275 217.629 317.001 217.541 316.724C217.448 316.437 217.37 316.142 217.282 315.851C217.697 315.429 218.106 314.994 218.513 314.549C218.853 314.176 219.165 313.787 219.491 313.408C219.803 313.044 220.13 312.682 220.43 312.315C220.668 312.022 220.885 311.722 221.114 311.428C221.347 311.128 221.574 310.828 221.798 310.524C222.478 309.608 223.128 308.682 223.731 307.742C223.868 307.528 224.01 307.316 224.144 307.101C224.746 306.13 225.293 305.15 225.81 304.165C226.027 303.753 226.227 303.342 226.427 302.928C226.708 302.346 226.97 301.763 227.22 301.179C227.253 301.103 227.289 301.027 227.321 300.951C227.361 300.857 227.398 300.762 227.438 300.668C227.582 300.316 227.744 299.962 227.878 299.61C228.131 298.938 228.346 298.266 228.553 297.596C228.565 297.554 228.581 297.513 228.594 297.471C228.67 297.219 228.75 296.969 228.821 296.717C228.943 296.288 229.043 295.866 229.147 295.44C229.173 295.33 229.211 295.218 229.236 295.108C229.241 295.093 229.233 295.079 229.234 295.062C229.28 294.857 229.345 294.651 229.388 294.45C229.453 294.131 229.483 293.829 229.537 293.515C229.617 293.054 229.703 292.591 229.756 292.135C229.88 291.135 229.959 290.153 229.963 289.209C229.964 289.089 229.948 288.974 229.946 288.854C229.937 287.935 229.858 287.051 229.736 286.192C229.722 286.091 229.728 285.98 229.712 285.882C235.204 288.82 240.397 297 242.546 306.822ZM183.162 308.717C184.376 302.852 187.782 296.608 192.758 291.137C197.73 285.664 203.623 281.678 209.346 279.913C214.584 278.296 218.954 278.766 221.664 281.229C222.328 281.832 222.876 282.548 223.319 283.358C223.444 283.589 223.542 283.836 223.647 284.079C223.729 284.266 223.82 284.444 223.893 284.639C223.988 284.9 224.057 285.179 224.134 285.452C224.189 285.654 224.253 285.846 224.299 286.055C224.36 286.337 224.398 286.636 224.441 286.931C224.472 287.149 224.511 287.363 224.532 287.588C224.562 287.897 224.572 288.218 224.584 288.536C224.592 288.762 224.603 288.987 224.601 289.218C224.599 289.561 224.578 289.916 224.557 290.269C224.544 290.485 224.531 290.699 224.508 290.921C224.469 291.319 224.415 291.725 224.351 292.134C224.325 292.301 224.298 292.469 224.267 292.64C224.186 293.085 224.096 293.535 223.987 293.99C223.893 294.399 223.768 294.821 223.652 295.239C223.059 297.306 222.212 299.446 221.102 301.588C221.079 301.634 221.056 301.68 221.033 301.726C220.737 302.29 220.422 302.855 220.095 303.414C220.035 303.515 219.975 303.619 219.916 303.722C219.607 304.239 219.284 304.754 218.949 305.266C218.835 305.436 218.722 305.609 218.606 305.779C218.304 306.226 217.994 306.675 217.671 307.119C217.44 307.429 217.204 307.741 216.965 308.049C216.715 308.375 216.469 308.703 216.208 309.023C215.853 309.46 215.476 309.888 215.098 310.318C214.916 310.525 214.747 310.74 214.559 310.946C213.858 311.716 213.141 312.446 212.415 313.147C212.297 313.261 212.175 313.367 212.056 313.478C209.326 316.057 206.374 318.224 203.394 319.838C203.338 319.869 203.284 319.897 203.227 319.926C202.665 320.227 202.101 320.507 201.539 320.767C201.432 320.818 201.324 320.863 201.22 320.911C200.691 321.15 200.162 321.375 199.635 321.575C199.504 321.626 199.373 321.668 199.243 321.713C198.723 321.904 198.201 322.086 197.686 322.237C197.684 322.238 197.679 322.242 197.676 322.242C197.125 322.404 196.58 322.556 196.049 322.672C191.668 323.631 188.024 323 185.653 320.846C182.934 318.39 182.052 314.08 183.162 308.717Z" fill="#F2F2F2"/>
<path d="M193.916 237.927C185.714 246.795 181.825 259.616 184.633 272.563C184.863 273.629 185.716 274.445 186.788 274.635C187.338 274.729 187.887 274.647 188.378 274.425C197.907 272.214 206.018 266.362 211.254 257.898C216.512 249.405 218.241 239.28 216.17 229.348C216.169 229.331 216.173 229.314 216.17 229.298C216.168 229.277 216.156 229.258 216.151 229.237C216.135 229.163 216.131 229.093 216.114 229.02C216.084 228.879 216.013 228.757 215.962 228.626C215.939 228.57 215.924 228.511 215.898 228.456C215.744 228.139 215.542 227.857 215.279 227.629C207.456 216.615 193.81 211.92 180.961 214.73C176.721 215.658 172.569 217.402 168.742 220.004C167.84 220.618 167.401 221.718 167.631 222.783C167.745 223.317 168.021 223.788 168.397 224.153C174.3 232.545 183.753 237.491 193.916 237.927ZM206.702 255.081C202.634 261.656 196.55 266.385 189.379 268.612C187.693 255.841 193.372 243.599 203.309 236.878C203.326 236.866 203.348 236.867 203.365 236.855C205.709 235.279 208.205 234.061 210.806 233.185C210.955 233.136 211.094 233.073 211.243 233.027C211.289 233.011 211.334 233.004 211.38 232.988C212.406 240.737 210.785 248.484 206.702 255.081ZM208.87 228.165C207.497 228.633 206.177 229.201 204.893 229.819C204.736 229.894 204.586 229.982 204.43 230.06C203.276 230.636 202.162 231.272 201.088 231.962C201.004 232.016 200.914 232.055 200.827 232.109C190.693 234.035 180.573 230.485 174.209 222.931C185.891 216.516 200.279 218.752 208.87 228.165Z" fill="#F2F2F2"/>
</g>
<g clip-path="url(#clip1_256_3)">
<path d="M119.022 106.635C114.518 107.999 111.046 111.665 108.992 117.031C98.9895 112.843 89.8717 113.602 85.2569 119.22C81.5395 123.744 81.464 130.614 84.8899 137.965C81.796 139.742 79.5378 142.219 78.4954 145.331C75.1583 155.297 85.3684 167.399 101.743 172.882C113.897 176.952 125.775 176.045 132.336 171.007C136.167 178.488 148.546 184.079 165.592 190.078C159.9 191.527 155.043 194.311 151.816 199.005C146.994 193.462 138.368 189.134 128.11 187.633C111.021 185.135 96.4691 191.329 94.9264 201.72C94.4503 204.972 95.3485 208.201 97.3088 211.184C90.9353 216.194 87.8964 222.36 89.173 228.076C90.7525 235.156 98.5435 239.911 109.327 240.704C108.757 246.268 110.116 251.198 113.62 254.549C121.761 262.329 137.89 258.223 150.341 245.201C155.264 240.053 158.929 234.168 160.876 228.353C161.209 227.358 161.49 226.368 161.721 225.383C163.413 218.131 162.102 211.994 158.03 208.097C157.312 207.41 156.511 206.849 155.677 206.346C155.521 205.599 155.304 204.863 155.02 204.136C163.741 186.262 200.915 197.041 212.427 200.896C213.828 201.366 215.346 200.612 215.816 199.208C216.286 197.803 215.528 196.288 214.127 195.818C205.598 192.962 191.097 188.877 177.809 188.767C177.589 188.606 177.365 188.447 177.094 188.356C161.451 183.118 140.582 176.107 136.996 168.281C137.224 168.225 137.456 168.198 137.682 168.13C142.469 166.678 146.113 162.66 148.103 156.716C148.355 155.964 148.579 155.184 148.777 154.375C150.42 147.637 149.99 139.536 147.569 131.555C145.147 123.575 141.001 116.596 135.892 111.909C130.404 106.872 124.415 104.999 119.022 106.635ZM100.224 202.494C101.283 195.284 113.689 190.939 127.33 192.929C137.28 194.383 145.805 198.994 149.125 204.26C149.081 204.256 149.031 204.262 148.987 204.258C146.971 204.089 144.824 204.243 142.602 204.696C142.485 204.719 142.37 204.742 142.254 204.768C140.022 205.252 137.725 206.039 135.41 207.116C135.31 207.164 135.208 207.215 135.107 207.263C134.002 207.788 132.897 208.373 131.793 209.031C131.74 209.064 131.685 209.091 131.632 209.124C130.487 209.81 129.351 210.565 128.223 211.387C128.096 211.478 127.975 211.578 127.85 211.672C127.094 212.235 126.341 212.824 125.598 213.448C125.595 213.45 125.591 213.451 125.587 213.456C125.586 213.458 125.586 213.461 125.58 213.462C125.411 213.603 125.243 213.758 125.075 213.905C124.825 214.121 124.576 214.334 124.327 214.553C124.026 214.822 123.726 215.086 123.425 215.366C123.418 215.372 123.409 215.375 123.403 215.384C122.695 216.048 121.993 216.736 121.307 217.45C120.894 217.884 120.488 218.327 120.094 218.771C119.789 218.703 119.482 218.643 119.18 218.567C118.914 218.501 118.647 218.437 118.385 218.369C117.63 218.169 116.887 217.952 116.158 217.716C116.069 217.686 115.978 217.664 115.889 217.634C115.043 217.354 114.218 217.05 113.415 216.724C113.286 216.672 113.164 216.615 113.037 216.564C112.37 216.287 111.718 215.992 111.088 215.688C110.93 215.612 110.775 215.535 110.62 215.458C109.929 215.111 109.255 214.746 108.617 214.366C108.59 214.352 108.564 214.337 108.538 214.323C106.365 213.022 104.51 211.545 103.089 209.951C103.065 209.923 103.029 209.911 103.005 209.883C100.914 207.509 99.8626 204.957 100.224 202.494ZM94.3981 226.909C93.5902 223.275 96.0119 218.919 100.789 215.227C101.735 216.097 102.787 216.926 103.922 217.71C103.97 217.743 104.018 217.776 104.069 217.81C105.199 218.584 106.408 219.316 107.71 219.992C110.207 221.295 113.009 222.397 116.039 223.259C116.17 223.297 116.288 223.348 116.42 223.386C116.403 223.412 116.385 223.439 116.368 223.465C113.572 227.43 111.54 231.516 110.375 235.45C101.767 234.981 95.4567 231.665 94.3981 226.909ZM156.502 224.164C155.142 229.988 151.575 236.152 146.465 241.498C136.435 251.987 123.086 256.191 117.318 250.673C114.583 248.063 113.974 243.649 115.133 238.621C115.391 237.488 115.74 236.334 116.17 235.168C116.238 234.984 116.312 234.803 116.383 234.618C116.82 233.499 117.322 232.371 117.902 231.247C117.998 231.059 118.11 230.87 118.209 230.683C118.831 229.525 119.508 228.373 120.272 227.237C120.317 227.17 120.37 227.104 120.415 227.037C121.21 225.869 122.076 224.718 123.006 223.601C123.068 223.526 123.124 223.451 123.186 223.376C123.819 222.622 124.478 221.877 125.175 221.145C125.77 220.525 126.378 219.93 126.991 219.356C127.234 219.129 127.484 218.914 127.73 218.694C128.081 218.379 128.428 218.067 128.784 217.765C129.118 217.484 129.456 217.216 129.794 216.948C130.068 216.729 130.341 216.513 130.617 216.303C131.006 216.01 131.399 215.724 131.793 215.449C132.014 215.294 132.234 215.142 132.454 214.993C132.888 214.7 133.322 214.414 133.761 214.143C133.932 214.036 134.104 213.936 134.274 213.832C134.752 213.543 135.233 213.263 135.712 213.003C135.816 212.947 135.917 212.897 136.021 212.841C137.429 212.093 138.831 211.472 140.21 210.971C140.615 210.824 141.021 210.675 141.421 210.552C141.862 210.415 142.298 210.292 142.734 210.181C142.83 210.157 142.928 210.125 143.023 210.103C143.431 210.005 143.831 209.933 144.234 209.859C144.438 209.823 144.647 209.78 144.85 209.749C145.204 209.695 145.548 209.661 145.895 209.63C146.133 209.608 146.37 209.586 146.602 209.574C146.921 209.559 147.232 209.556 147.542 209.558C147.79 209.562 148.033 209.57 148.271 209.584C148.558 209.602 148.844 209.627 149.122 209.663C149.369 209.695 149.608 209.739 149.844 209.784C150.102 209.833 150.361 209.886 150.61 209.952C150.858 210.019 151.093 210.103 151.33 210.188C151.547 210.264 151.768 210.338 151.978 210.428C152.851 210.813 153.645 211.319 154.327 211.971C156.973 214.501 157.748 218.832 156.502 224.164ZM89.3962 122.619C92.497 118.849 99.6427 118.743 107.55 122.224C107.542 122.272 107.539 122.324 107.53 122.375C106.982 125.436 106.835 128.725 107.075 132.131C107.079 132.189 107.085 132.247 107.09 132.306C107.166 133.328 107.278 134.359 107.425 135.397C107.438 135.5 107.442 135.6 107.458 135.702C107.336 135.678 107.22 135.673 107.098 135.649C102.378 134.732 97.8936 134.574 93.9073 135.103C93.8539 135.111 93.8014 135.116 93.7506 135.124C92.3795 135.314 91.0684 135.578 89.83 135.929L89.8266 135.931C87.1788 130.421 86.9925 125.547 89.3962 122.619ZM103.443 167.804C90.3696 163.426 81.2693 153.913 83.5734 147.032C84.3633 144.673 86.453 142.868 89.3885 141.7C89.4232 141.689 89.4588 141.692 89.4944 141.679C91.476 140.896 93.7933 140.419 96.3125 140.24C96.365 140.235 96.4184 140.236 96.4709 140.231C97.1898 140.184 97.9273 140.165 98.6759 140.165C98.8647 140.166 99.0535 140.167 99.244 140.171C99.9239 140.182 100.616 140.215 101.313 140.266C101.471 140.276 101.624 140.282 101.783 140.296C102.637 140.37 103.499 140.467 104.37 140.597C104.486 140.614 104.607 140.64 104.723 140.659C105.452 140.773 106.188 140.912 106.923 141.068C107.203 141.128 107.483 141.194 107.766 141.26C108.059 141.327 108.353 141.412 108.648 141.485C108.798 142.057 108.961 142.632 109.135 143.209C109.281 143.693 109.454 144.161 109.612 144.634C109.765 145.089 109.908 145.555 110.069 146.002C110.199 146.356 110.345 146.695 110.48 147.043C110.618 147.397 110.758 147.746 110.904 148.094C111.342 149.147 111.804 150.18 112.302 151.18C112.415 151.407 112.524 151.638 112.641 151.864C113.165 152.878 113.726 153.851 114.307 154.799C114.549 155.196 114.799 155.579 115.052 155.963C115.408 156.503 115.774 157.027 116.147 157.542C116.195 157.608 116.243 157.678 116.291 157.745C116.351 157.827 116.414 157.908 116.474 157.99C116.702 158.295 116.923 158.615 117.157 158.91C117.604 159.472 118.071 160.001 118.54 160.523C118.569 160.555 118.597 160.59 118.625 160.622C118.803 160.817 118.977 161.014 119.156 161.204C119.462 161.529 119.774 161.831 120.086 162.139C120.167 162.217 120.244 162.307 120.325 162.385C120.335 162.397 120.352 162.397 120.366 162.408C120.518 162.552 120.661 162.713 120.812 162.854C121.052 163.072 121.297 163.253 121.538 163.461C121.893 163.766 122.246 164.076 122.61 164.356C123.405 164.976 124.208 165.547 125.016 166.035C125.119 166.097 125.226 166.142 125.33 166.202C126.123 166.665 126.923 167.052 127.723 167.387C127.817 167.427 127.909 167.489 128.001 167.526C122.663 170.733 112.977 170.997 103.443 167.804ZM132.27 115.852C136.683 119.902 140.296 126.028 142.441 133.106C144.59 140.181 144.99 147.284 143.569 153.103C142.272 158.428 139.628 161.94 136.123 163.002C135.265 163.263 134.369 163.367 133.446 163.332C133.185 163.32 132.922 163.278 132.66 163.243C132.457 163.218 132.258 163.205 132.053 163.167C131.779 163.115 131.505 163.032 131.231 162.957C131.029 162.901 130.832 162.857 130.629 162.789C130.355 162.697 130.079 162.577 129.804 162.462C129.601 162.377 129.398 162.301 129.193 162.204C128.913 162.07 128.632 161.914 128.353 161.761C128.155 161.653 127.956 161.547 127.759 161.427C127.465 161.25 127.171 161.049 126.879 160.85C126.7 160.728 126.523 160.607 126.344 160.473C126.023 160.236 125.702 159.981 125.384 159.717C125.253 159.608 125.123 159.5 124.992 159.385C124.651 159.087 124.311 158.779 123.977 158.452C123.674 158.162 123.375 157.839 123.077 157.524C121.606 155.955 120.203 154.131 118.934 152.079C118.906 152.036 118.878 151.992 118.85 151.949C118.518 151.406 118.194 150.846 117.882 150.278C117.826 150.175 117.768 150.07 117.71 149.966C117.424 149.436 117.148 148.894 116.88 148.344C116.792 148.16 116.702 147.974 116.615 147.787C116.386 147.298 116.16 146.802 115.945 146.298C115.796 145.94 115.65 145.577 115.509 145.214C115.357 144.833 115.201 144.453 115.061 144.064C114.867 143.537 114.694 142.993 114.518 142.448C114.433 142.185 114.335 141.93 114.255 141.663C113.954 140.667 113.695 139.676 113.465 138.693C113.428 138.534 113.4 138.375 113.365 138.216C112.551 134.55 112.205 130.904 112.348 127.518C112.349 127.454 112.353 127.393 112.357 127.329C112.387 126.693 112.436 126.065 112.501 125.449C112.512 125.331 112.529 125.215 112.541 125.101C112.607 124.524 112.685 123.955 112.783 123.4C112.807 123.261 112.838 123.128 112.866 122.993C112.969 122.449 113.08 121.907 113.215 121.387C113.216 121.385 113.215 121.379 113.216 121.376C113.359 120.82 113.508 120.274 113.681 119.759C115.105 115.506 117.515 112.701 120.58 111.771C124.083 110.696 128.236 112.149 132.27 115.852Z" fill="#F2F2F2"/>
<path d="M187.528 161.387C184.12 149.799 175.109 139.885 162.553 135.656C161.521 135.307 160.382 135.621 159.669 136.443C159.307 136.867 159.095 137.381 159.035 137.917C156.046 147.231 156.911 157.195 161.491 166.031C166.086 174.9 173.891 181.577 183.48 184.892C183.495 184.9 183.507 184.913 183.523 184.918C183.542 184.927 183.565 184.926 183.585 184.933C183.656 184.957 183.719 184.989 183.79 185.013C183.927 185.059 184.068 185.061 184.206 185.085C184.266 185.093 184.325 185.11 184.385 185.116C184.736 185.146 185.082 185.118 185.412 185.008C198.88 183.941 209.909 174.634 214.085 162.162C215.463 158.047 216.095 153.588 215.824 148.968C215.759 147.879 215.041 146.938 214.008 146.589C213.491 146.413 212.945 146.408 212.44 146.544C202.207 147.308 193.114 152.886 187.528 161.387ZM166.244 163.567C162.686 156.703 161.746 149.055 163.512 141.757C175.34 146.859 182.937 158.012 183.611 169.99C183.612 170.01 183.601 170.029 183.602 170.049C183.753 172.87 183.518 175.637 182.936 178.32C182.902 178.472 182.885 178.625 182.849 178.776C182.838 178.824 182.821 178.866 182.811 178.913C175.633 175.821 169.814 170.455 166.244 163.567ZM188.239 179.232C188.542 177.814 188.731 176.389 188.859 174.969C188.874 174.796 188.876 174.622 188.889 174.448C188.987 173.162 189.012 171.881 188.971 170.604C188.967 170.505 188.98 170.407 188.978 170.305C192.521 160.617 200.759 153.75 210.508 152.16C210.024 165.479 200.726 176.684 188.239 179.232Z" fill="#F2F2F2"/>
</g>
<g clip-path="url(#clip2_256_3)">
<path d="M339.605 164.392C340.817 159.845 339.53 154.963 336.05 150.391C344.878 144.094 349.036 135.944 346.69 129.061C344.803 123.519 339.002 119.836 330.949 118.876C331.069 115.311 330.153 112.087 328.055 109.561C321.342 101.475 305.677 103.781 292.392 114.811C282.53 123 277.045 133.575 277.872 141.805C269.495 141.121 258.222 148.7 244.145 160.03C245.912 154.428 246.103 148.833 243.812 143.618C251.064 142.438 259.286 137.386 265.965 129.456C277.089 116.245 279.489 100.613 271.468 93.8286C268.955 91.7113 265.737 90.7741 262.168 90.8692C261.267 82.8128 257.626 76.982 252.094 75.0564C245.244 72.6701 237.099 76.7885 230.745 85.5375C226.315 82.1226 221.408 80.6808 216.715 81.8943C205.813 84.717 200.808 100.59 205.32 118.032C207.103 124.929 210.176 131.144 214.093 135.862C214.763 136.669 215.457 137.43 216.172 138.144C221.446 143.402 227.354 145.52 232.81 144.111C233.773 143.862 234.672 143.478 235.538 143.033C236.256 143.294 236.995 143.497 237.764 143.639C248.364 160.466 219.622 186.389 210.281 194.144C209.144 195.088 208.986 196.775 209.932 197.914C210.878 199.054 212.565 199.208 213.702 198.264C220.622 192.518 231.732 182.343 238.825 171.105C239.078 171.003 239.331 170.897 239.551 170.714C252.243 160.176 269.194 146.129 277.735 147.202C277.663 147.425 277.563 147.637 277.502 147.865C276.216 152.699 277.712 157.912 281.716 162.735C282.222 163.345 282.767 163.947 283.351 164.541C288.213 169.487 295.326 173.388 303.385 175.533C311.445 177.677 319.561 177.829 326.236 175.955C333.408 173.943 338.155 169.838 339.605 164.392ZM268.019 97.9241C273.591 102.622 270.75 115.456 261.874 126.004C255.398 133.696 246.988 138.514 240.763 138.563C240.789 138.527 240.811 138.481 240.837 138.446C242.043 136.821 243.043 134.916 243.828 132.789C243.87 132.676 243.911 132.566 243.95 132.454C244.714 130.302 245.255 127.935 245.558 125.4C245.57 125.289 245.581 125.176 245.593 125.065C245.729 123.849 245.814 122.602 245.836 121.317C245.836 121.254 245.842 121.194 245.842 121.131C245.861 119.796 245.818 118.433 245.713 117.04C245.703 116.886 245.681 116.729 245.667 116.574C245.587 115.635 245.483 114.684 245.344 113.724C245.344 113.721 245.345 113.717 245.343 113.711C245.341 113.709 245.34 113.707 245.342 113.701C245.311 113.484 245.267 113.259 245.231 113.039C245.179 112.713 245.129 112.389 245.074 112.062C245.004 111.664 244.938 111.27 244.858 110.867C244.857 110.857 244.859 110.848 244.855 110.838C244.663 109.887 244.448 108.928 244.202 107.969C244.051 107.389 243.887 106.811 243.718 106.242C243.936 106.018 244.149 105.789 244.373 105.572C244.57 105.381 244.764 105.188 244.96 105.001C245.527 104.464 246.104 103.947 246.688 103.452C246.76 103.392 246.827 103.326 246.899 103.266C247.583 102.694 248.276 102.154 248.976 101.643C249.088 101.56 249.201 101.487 249.311 101.406C249.898 100.985 250.492 100.585 251.082 100.21C251.23 100.115 251.377 100.025 251.524 99.9336C252.184 99.5289 252.848 99.1475 253.507 98.8055C253.534 98.7908 253.56 98.7761 253.586 98.7614C255.836 97.5991 258.069 96.8001 260.172 96.4322C260.208 96.4261 260.237 96.4022 260.274 96.3961C263.393 95.8696 266.116 96.3197 268.019 97.9241ZM250.335 80.1128C253.849 81.3399 256.277 85.693 256.899 91.6984C255.661 92.0439 254.402 92.5014 253.138 93.0535C253.084 93.077 253.03 93.1006 252.975 93.1259C251.722 93.679 250.463 94.321 249.203 95.0712C246.78 96.5085 244.367 98.3099 242.039 100.431C241.938 100.522 241.832 100.596 241.73 100.688C241.718 100.66 241.703 100.63 241.691 100.602C239.792 96.1365 237.389 92.2572 234.659 89.1956C239.591 82.1249 245.734 78.5073 250.335 80.1128ZM219.958 134.35C215.724 130.126 212.362 123.848 210.51 116.688C206.876 102.638 210.334 89.0759 218.062 87.079C221.721 86.129 225.794 87.9364 229.457 91.5694C230.285 92.3858 231.081 93.2906 231.846 94.2704C231.967 94.4242 232.082 94.5831 232.202 94.7407C232.923 95.7012 233.617 96.722 234.268 97.8072C234.377 97.9884 234.478 98.1823 234.585 98.3652C235.242 99.5042 235.864 100.686 236.428 101.934C236.461 102.007 236.489 102.088 236.522 102.161C237.097 103.452 237.619 104.794 238.079 106.173C238.11 106.266 238.144 106.352 238.175 106.445C238.482 107.38 238.768 108.333 239.024 109.311C239.238 110.143 239.423 110.974 239.588 111.797C239.653 112.122 239.705 112.449 239.762 112.773C239.844 113.237 239.927 113.698 239.997 114.158C240.059 114.59 240.109 115.019 240.159 115.447C240.2 115.795 240.241 116.141 240.273 116.487C240.318 116.972 240.355 117.456 240.38 117.936C240.395 118.206 240.409 118.473 240.42 118.738C240.44 119.261 240.455 119.782 240.454 120.297C240.455 120.499 240.45 120.698 240.448 120.897C240.442 121.456 240.427 122.011 240.395 122.556C240.388 122.673 240.378 122.786 240.371 122.904C240.265 124.495 240.054 126.014 239.753 127.45C239.665 127.871 239.578 128.295 239.472 128.7C239.356 129.147 239.23 129.582 239.096 130.011C239.066 130.105 239.041 130.206 239.01 130.298C238.878 130.696 238.729 131.074 238.579 131.456C238.503 131.648 238.429 131.849 238.349 132.037C238.208 132.366 238.056 132.677 237.899 132.988C237.792 133.203 237.687 133.415 237.575 133.62C237.419 133.898 237.258 134.165 237.093 134.427C236.959 134.635 236.825 134.837 236.687 135.032C236.521 135.268 236.349 135.497 236.171 135.714C236.014 135.907 235.851 136.088 235.688 136.265C235.511 136.457 235.329 136.65 235.142 136.826C234.954 137.003 234.759 137.158 234.562 137.315C234.384 137.46 234.204 137.608 234.017 137.739C233.229 138.279 232.382 138.687 231.468 138.923C227.924 139.84 223.834 138.218 219.958 134.35ZM341.621 130.79C343.192 135.411 339.519 141.541 332.396 146.43C332.359 146.398 332.316 146.367 332.277 146.333C329.964 144.255 327.246 142.398 324.223 140.808C324.173 140.781 324.12 140.755 324.067 140.729C323.158 140.255 322.223 139.807 321.263 139.385C321.169 139.342 321.082 139.292 320.987 139.253C321.071 139.162 321.137 139.065 321.222 138.974C324.487 135.446 326.983 131.716 328.633 128.049C328.655 128 328.678 127.953 328.698 127.905C329.258 126.639 329.724 125.386 330.078 124.148L330.079 124.145C336.156 124.795 340.398 127.204 341.621 130.79ZM295.813 118.932C306.42 110.124 319.3 107.399 323.935 112.982C325.524 114.896 325.958 117.623 325.405 120.734C325.396 120.769 325.375 120.797 325.368 120.835C324.989 122.931 324.174 125.153 322.999 127.388C322.976 127.435 322.947 127.48 322.924 127.528C322.585 128.164 322.212 128.8 321.819 129.437C321.718 129.597 321.618 129.757 321.514 129.916C321.147 130.489 320.754 131.059 320.344 131.626C320.252 131.754 320.166 131.881 320.07 132.009C319.558 132.696 319.021 133.378 318.451 134.05C318.377 134.14 318.29 134.229 318.214 134.316C317.732 134.876 317.226 135.429 316.706 135.972C316.509 136.178 316.305 136.381 316.1 136.587C315.888 136.801 315.662 137.006 315.444 137.218C314.879 137.044 314.304 136.88 313.722 136.724C313.234 136.593 312.745 136.494 312.259 136.379C311.792 136.269 311.321 136.146 310.856 136.047C310.487 135.971 310.121 135.916 309.755 135.848C309.381 135.779 309.01 135.715 308.637 135.655C307.512 135.473 306.39 135.322 305.278 135.218C305.025 135.195 304.771 135.166 304.519 135.146C303.38 135.058 302.258 135.022 301.146 135.016C300.68 135.013 300.223 135.024 299.764 135.036C299.117 135.054 298.479 135.09 297.845 135.136C297.763 135.142 297.679 135.145 297.597 135.151C297.495 135.159 297.393 135.17 297.292 135.178C296.912 135.211 296.525 135.23 296.15 135.274C295.437 135.358 294.741 135.476 294.051 135.6C294.008 135.607 293.964 135.613 293.921 135.62C293.662 135.668 293.403 135.713 293.147 135.765C292.709 135.854 292.289 135.96 291.863 136.063C291.754 136.091 291.636 136.108 291.527 136.136C291.512 136.138 291.503 136.153 291.487 136.159C291.284 136.212 291.072 136.25 290.873 136.304C290.56 136.393 290.278 136.505 289.974 136.601C289.528 136.742 289.078 136.879 288.648 137.04C287.703 137.39 286.795 137.772 285.955 138.202C285.847 138.256 285.753 138.324 285.647 138.38C284.835 138.811 284.086 139.287 283.379 139.79C283.296 139.849 283.195 139.895 283.115 139.954C283.2 133.727 288.077 125.354 295.813 118.932ZM324.792 170.799C319.025 172.417 311.914 172.262 304.768 170.358C297.622 168.457 291.373 165.056 287.175 160.784C283.332 156.876 281.74 152.779 282.682 149.24C282.912 148.374 283.296 147.558 283.812 146.792C283.96 146.575 284.134 146.375 284.301 146.17C284.43 146.01 284.546 145.848 284.686 145.694C284.874 145.489 285.089 145.299 285.297 145.106C285.451 144.964 285.592 144.819 285.757 144.683C285.979 144.498 286.227 144.327 286.47 144.153C286.649 144.026 286.821 143.893 287.011 143.77C287.272 143.602 287.552 143.446 287.829 143.289C288.026 143.178 288.221 143.065 288.427 142.96C288.732 142.804 289.057 142.659 289.38 142.516C289.579 142.428 289.775 142.342 289.982 142.26C290.353 142.112 290.739 141.973 291.131 141.842C291.292 141.788 291.453 141.735 291.62 141.684C292.052 141.551 292.494 141.424 292.947 141.312C293.354 141.207 293.786 141.124 294.21 141.036C296.319 140.611 298.608 140.381 301.021 140.382C301.073 140.381 301.124 140.38 301.176 140.379C301.812 140.383 302.459 140.403 303.106 140.436C303.223 140.443 303.342 140.449 303.462 140.454C304.063 140.491 304.669 140.541 305.277 140.603C305.48 140.626 305.686 140.647 305.891 140.672C306.427 140.735 306.968 140.804 307.51 140.886C307.892 140.948 308.278 141.015 308.661 141.086C309.065 141.158 309.469 141.226 309.874 141.311C310.424 141.425 310.978 141.563 311.534 141.7C311.801 141.767 312.071 141.819 312.34 141.891C313.345 142.159 314.323 142.461 315.28 142.784C315.435 142.836 315.585 142.896 315.738 142.95C319.284 144.189 322.565 145.815 325.368 147.719C325.422 147.755 325.472 147.79 325.524 147.827C326.049 148.188 326.557 148.56 327.046 148.94C327.14 149.011 327.23 149.086 327.321 149.157C327.776 149.517 328.219 149.883 328.639 150.259C328.744 150.352 328.842 150.449 328.941 150.544C329.35 150.918 329.752 151.298 330.123 151.686C330.125 151.688 330.13 151.69 330.132 151.692C330.529 152.107 330.914 152.521 331.262 152.94C334.127 156.39 335.241 159.916 334.418 163.011C333.487 166.555 330.064 169.32 324.792 170.799Z" fill="#F2F2F2"/>
<path d="M256.98 193.788C268.626 196.995 281.799 194.556 292.007 186.111C292.848 185.417 293.181 184.284 292.857 183.244C292.687 182.713 292.362 182.263 291.939 181.929C285.596 174.482 276.67 169.97 266.746 169.21C256.787 168.444 247 171.562 239.132 177.967C239.118 177.976 239.1 177.98 239.088 177.99C239.069 178.001 239.058 178.021 239.042 178.035C238.984 178.083 238.924 178.119 238.866 178.167C238.755 178.259 238.679 178.378 238.586 178.483C238.547 178.529 238.501 178.571 238.465 178.619C238.254 178.901 238.096 179.21 238.015 179.549C231.829 191.559 233.932 205.836 242.334 215.955C245.106 219.294 248.564 222.18 252.634 224.383C253.594 224.901 254.772 224.786 255.612 224.092C256.034 223.745 256.326 223.283 256.477 222.782C261.217 213.682 261.264 203.013 256.98 193.788ZM266.337 174.547C274.046 175.138 281.043 178.367 286.316 183.712C275.749 191.08 262.267 191.663 251.731 185.927C251.712 185.918 251.703 185.898 251.685 185.889C249.207 184.532 246.978 182.874 245.005 180.967C244.893 180.857 244.773 180.763 244.663 180.652C244.628 180.618 244.601 180.581 244.566 180.548C250.976 176.074 258.602 173.954 266.337 174.547ZM241.437 184.994C242.483 185.998 243.594 186.909 244.734 187.766C244.873 187.87 245.02 187.963 245.16 188.066C246.202 188.826 247.279 189.523 248.385 190.16C248.472 190.21 248.548 190.272 248.636 190.324C255.005 198.438 256.504 209.058 252.72 218.182C241.654 210.756 237.026 196.95 241.437 184.994Z" fill="#F2F2F2"/>
</g>
<defs>
<clipPath id="clip0_256_3">
<rect width="149.985" height="149.985" fill="white" transform="translate(330.193 321.902) rotate(167.661)"/>
</clipPath>
<clipPath id="clip1_256_3">
<rect width="149.985" height="149.985" fill="white" transform="translate(45.548 235.315) rotate(-71.4861)"/>
</clipPath>
<clipPath id="clip2_256_3">
<rect width="149.985" height="149.985" fill="white" transform="translate(268.918 34.1602) rotate(50.2963)"/>
</clipPath>
</defs>
</svg>
