<svg width="155" height="71" viewBox="0 0 155 71" fill="none" xmlns="http://www.w3.org/2000/svg">
<g clip-path="url(#clip0_256_2)">
<path d="M31.0679 55.4061C31.6618 55.9465 32.5028 56.1344 33.4688 55.9656C33.7306 57.7977 34.6398 59.0671 35.8669 59.2515C36.855 59.4002 37.8682 58.81 38.6454 57.6647C39.1764 57.9625 39.737 58.0766 40.2843 57.9568C42.0364 57.5736 42.9159 55.0185 42.2861 52.1396C41.8187 50.0026 40.6461 48.3418 39.3339 47.8214C40.0946 46.6054 39.8303 44.3024 39.2173 41.2799C39.9277 41.9871 40.7608 42.4551 41.7309 42.517C41.3409 43.7086 41.4616 45.3511 42.1396 46.9855C43.2693 49.7078 45.4502 51.2978 47.1077 50.6143C47.6258 50.3995 48.0203 49.9853 48.2858 49.437C49.5776 49.9323 50.7469 49.8379 51.4727 49.1505C52.3717 48.2995 52.3865 46.7418 51.5589 45.0925C52.4239 44.689 53.0274 44.0584 53.2116 43.2519C53.639 41.3781 51.6258 39.3744 48.6283 38.6899C47.4431 38.4192 46.26 38.3973 45.2378 38.621C45.0628 38.6592 44.8931 38.7048 44.7287 38.7571C43.5181 39.144 42.7336 39.8732 42.5191 40.8107C42.4814 40.9762 42.4692 41.1426 42.4686 41.3088C42.3728 41.3971 42.2839 41.4932 42.2022 41.5986C38.8202 41.8851 37.146 35.4954 36.7033 33.4714C36.6494 33.2249 36.4061 33.0686 36.1592 33.1226C35.9123 33.1766 35.7565 33.4202 35.8104 33.6667C36.1385 35.1661 36.8091 37.6483 37.9561 39.6048C37.9517 39.6511 37.9479 39.6978 37.9583 39.7456C38.56 42.4959 39.3593 46.167 38.5266 47.3773C38.4984 47.3489 38.4742 47.3172 38.4444 47.29C37.8127 46.7158 36.9051 46.5336 35.8601 46.7622C35.7279 46.7911 35.5939 46.8265 35.4581 46.8684C34.3271 47.2173 33.1778 47.9893 32.2205 49.0426C31.2633 50.0958 30.6036 51.3141 30.364 52.4728C30.1064 53.7177 30.3562 54.7591 31.0679 55.4061ZM46.7575 49.7703C45.6085 50.2462 43.8861 48.809 42.9837 46.6362C42.3259 45.0512 42.2554 43.3986 42.7363 42.4514C42.7396 42.4582 42.7449 42.465 42.7482 42.4717C42.8998 42.7819 43.1102 43.083 43.371 43.3688C43.3847 43.384 43.3982 43.3989 43.4122 43.4136C43.6784 43.6982 43.9947 43.9658 44.3551 44.2107C44.371 44.2212 44.3873 44.2317 44.4032 44.2423C44.5768 44.3582 44.7591 44.4689 44.9522 44.5731C44.9617 44.578 44.9704 44.5836 44.9799 44.5885C45.1807 44.6962 45.3907 44.7966 45.61 44.89C45.6343 44.9005 45.6596 44.9095 45.6843 44.9195C45.8329 44.9811 45.9852 45.0399 46.1416 45.0941C46.1421 45.0944 46.1426 45.0948 46.1436 45.095C46.1441 45.0949 46.1445 45.0948 46.1452 45.0956C46.1806 45.108 46.2181 45.119 46.2543 45.1307C46.3078 45.1485 46.3608 45.1663 46.4147 45.1836C46.4805 45.2043 46.5454 45.2251 46.6128 45.2445C46.6143 45.2451 46.6155 45.2463 46.6174 45.2463C46.7766 45.292 46.9389 45.3346 47.1034 45.3725C47.2033 45.3951 47.3037 45.4157 47.4032 45.4346C47.4199 45.4852 47.4379 45.5355 47.4533 45.5865C47.4668 45.6312 47.4808 45.6759 47.4938 45.7203C47.5307 45.8483 47.5638 45.9762 47.5931 46.1036C47.5965 46.1193 47.6013 46.1346 47.6047 46.1502C47.6376 46.2988 47.6652 46.4462 47.6878 46.5923C47.6916 46.6158 47.6938 46.6387 47.6974 46.6618C47.7152 46.7837 47.7291 46.9051 47.7397 47.0239C47.7425 47.0537 47.7447 47.0832 47.7469 47.1126C47.7565 47.2443 47.7622 47.375 47.7623 47.5017C47.7625 47.5068 47.7627 47.5119 47.7629 47.517C47.7625 47.9493 47.7085 48.3503 47.5993 48.6979C47.5973 48.704 47.5987 48.7102 47.5967 48.7163C47.4318 49.2304 47.15 49.6078 46.7575 49.7703ZM50.8444 48.4872C50.3827 48.9235 49.5325 48.95 48.5735 48.5732C48.6182 48.3586 48.6477 48.1318 48.6632 47.8969C48.6638 47.8869 48.6644 47.8769 48.6649 47.8665C48.6794 47.6332 48.6809 47.392 48.666 47.1422C48.6382 46.6623 48.5544 46.1553 48.4156 45.636C48.4097 45.6135 48.4068 45.5916 48.4009 45.5691C48.4061 45.5693 48.4118 45.5695 48.417 45.5698C49.2427 45.6324 50.0192 45.5724 50.6974 45.3988C51.3822 46.701 51.4486 47.9158 50.8444 48.4872ZM45.0068 39.6285C45.9792 39.3181 47.1945 39.3011 48.4249 39.582C50.8394 40.1334 52.6238 41.7213 52.3202 43.0493C52.1771 43.6784 51.5837 44.1539 50.7457 44.4242C50.557 44.4856 50.3574 44.5353 50.1489 44.5744C50.1161 44.5806 50.083 44.5855 50.0497 44.5914C49.8476 44.6253 49.6384 44.6505 49.4229 44.664C49.3869 44.6662 49.3495 44.6665 49.3134 44.6683C49.0893 44.6785 48.8614 44.6802 48.628 44.6676C48.6143 44.6669 48.5998 44.6649 48.5861 44.6641C48.3453 44.6499 48.1011 44.6238 47.856 44.5853C47.8395 44.5828 47.8237 44.5811 47.8073 44.5786C47.6414 44.5518 47.4746 44.5204 47.3063 44.4824C47.1634 44.4496 47.0229 44.4125 46.8852 44.3729C46.8308 44.3572 46.7773 44.3394 46.7236 44.3227C46.6468 44.2988 46.5705 44.2752 46.4952 44.2496C46.4249 44.2252 46.356 44.1991 46.2872 44.173C46.2311 44.1521 46.1755 44.131 46.1206 44.1089C46.0436 44.0775 45.9673 44.0451 45.8926 44.0114C45.8505 43.9925 45.809 43.9736 45.7678 43.9545C45.687 43.9165 45.607 43.8779 45.5289 43.8374C45.4984 43.8217 45.4686 43.8053 45.4384 43.7894C45.3543 43.7447 45.2713 43.6987 45.1912 43.6512C45.174 43.641 45.1576 43.6305 45.1404 43.6202C44.9075 43.4794 44.6939 43.3283 44.4998 43.17C44.4429 43.1236 44.3855 43.0772 44.3324 43.0294C44.2737 42.9767 44.2176 42.9235 44.1632 42.8695C44.1513 42.8576 44.138 42.846 44.1264 42.834C44.0764 42.7827 44.0308 42.7305 43.9847 42.6779C43.9616 42.6512 43.937 42.6243 43.9147 42.5973C43.8758 42.5502 43.8407 42.5027 43.8058 42.4546C43.7818 42.4215 43.7578 42.3889 43.7356 42.3558C43.7055 42.3105 43.6778 42.2651 43.651 42.2195C43.6299 42.183 43.6098 42.1467 43.5912 42.1105C43.5685 42.0668 43.5472 42.0228 43.5282 41.9788C43.5113 41.9399 43.4967 41.901 43.4826 41.8625C43.4674 41.8204 43.4524 41.7779 43.4404 41.7356C43.4283 41.6933 43.4202 41.6516 43.4119 41.6095C43.4039 41.571 43.3954 41.5321 43.3902 41.4935C43.3703 41.3318 43.375 41.1713 43.4108 41.0142C43.5498 40.4052 44.1165 39.9126 45.0068 39.6285ZM36.0026 58.3475C35.1788 58.2232 34.5379 57.1856 34.3558 55.7225C34.3636 55.7194 34.3716 55.7153 34.3797 55.7121C34.8762 55.5245 35.3708 55.2582 35.8489 54.9248C35.8571 54.9193 35.8651 54.9133 35.8732 54.9074C36.0163 54.8068 36.1576 54.7001 36.2968 54.5878C36.3107 54.5768 36.3251 54.5676 36.3385 54.5563C36.3457 54.5762 36.3551 54.5938 36.3623 54.6137C36.641 55.3854 37.0104 56.0563 37.4368 56.594C37.4426 56.6012 37.4479 56.6084 37.4536 56.6152C37.6015 56.7994 37.7549 56.9684 37.9147 57.1191L37.9152 57.1195C37.3398 57.9896 36.642 58.4434 36.0026 58.3475ZM41.3933 52.3349C41.8961 54.6334 41.2987 56.7994 40.089 57.064C39.6742 57.1547 39.2269 57.0065 38.7988 56.6787C38.7941 56.6746 38.7915 56.6691 38.7864 56.6651C38.4984 56.4432 38.2256 56.1455 37.9789 55.792C37.9736 55.7848 37.9691 55.7769 37.9637 55.7696C37.8939 55.6684 37.8266 55.562 37.761 55.4524C37.7447 55.4246 37.7283 55.3969 37.7123 55.3686C37.6543 55.2681 37.5987 55.1637 37.545 55.0571C37.5327 55.0332 37.5202 55.0102 37.5083 54.9856C37.4445 54.8541 37.3831 54.7193 37.3261 54.5802C37.3183 54.5618 37.3116 54.5417 37.3042 54.5232C37.2571 54.4063 37.2131 54.2863 37.1716 54.1649C37.1559 54.1188 37.141 54.072 37.126 54.0248C37.1101 53.9758 37.0968 53.9254 37.0817 53.8759C37.1525 53.8038 37.2223 53.7296 37.2918 53.6536C37.3499 53.5899 37.4032 53.5235 37.4587 53.4589C37.512 53.3968 37.5677 53.335 37.6191 53.2723C37.6596 53.2223 37.6966 53.1712 37.7356 53.121C37.7754 53.0697 37.8143 53.0186 37.8525 52.9668C37.9685 52.8104 38.0794 52.6524 38.1823 52.4919C38.2056 52.4554 38.23 52.4192 38.2528 52.3824C38.3555 52.2168 38.449 52.0495 38.5371 51.8815C38.5741 51.8112 38.6083 51.741 38.6425 51.6704C38.6904 51.571 38.7351 51.4714 38.7778 51.3718C38.7834 51.3589 38.7895 51.3459 38.7951 51.333C38.8019 51.317 38.8081 51.3006 38.8149 51.2847C38.8396 51.2245 38.8671 51.1642 38.89 51.104C38.9332 50.9893 38.9699 50.8747 39.0052 50.7603C39.0074 50.7533 39.01 50.7461 39.0122 50.7391C39.0253 50.696 39.0388 50.6533 39.051 50.6104C39.0719 50.5371 39.0889 50.4651 39.1067 50.3924C39.111 50.3737 39.1175 50.3545 39.1219 50.3358C39.1227 50.3332 39.1212 50.3308 39.1216 50.3279C39.1293 50.293 39.1404 50.2578 39.1478 50.2234C39.1589 50.1691 39.1639 50.1175 39.1733 50.064C39.1869 49.9852 39.2015 49.9063 39.2106 49.8285C39.2318 49.6578 39.2452 49.4902 39.2459 49.3291C39.2461 49.3085 39.2433 49.289 39.243 49.2685C39.2414 49.1117 39.228 48.9607 39.2072 48.8142C39.2048 48.7969 39.2058 48.778 39.2031 48.7613C40.1403 49.2626 41.0266 50.6586 41.3933 52.3349ZM31.2588 52.6583C31.4659 51.6573 32.0472 50.5918 32.8964 49.6581C33.745 48.724 34.7507 48.0438 35.7274 47.7426C36.6213 47.4666 37.3671 47.5467 37.8296 47.9671C37.9428 48.0701 38.0365 48.1923 38.1121 48.3305C38.1333 48.3699 38.15 48.4121 38.168 48.4535C38.182 48.4855 38.1975 48.5158 38.21 48.5491C38.2263 48.5937 38.238 48.6412 38.2511 48.6879C38.2605 48.7223 38.2714 48.755 38.2792 48.7908C38.2897 48.839 38.2962 48.8899 38.3035 48.9403C38.3088 48.9775 38.3154 49.0139 38.3191 49.0524C38.3241 49.1051 38.3258 49.1599 38.3278 49.2142C38.3293 49.2527 38.3311 49.2911 38.3308 49.3305C38.3305 49.389 38.327 49.4497 38.3233 49.5099C38.3211 49.5469 38.3188 49.5834 38.3149 49.6212C38.3082 49.6891 38.2991 49.7584 38.2881 49.8282C38.2836 49.8568 38.2791 49.8854 38.2738 49.9146C38.26 49.9906 38.2446 50.0674 38.226 50.1449C38.2099 50.2148 38.1887 50.2868 38.1688 50.3581C38.0677 50.7109 37.9231 51.0761 37.7336 51.4417C37.7297 51.4495 37.7258 51.4574 37.7219 51.4653C37.6714 51.5615 37.6177 51.6579 37.5618 51.7534C37.5516 51.7706 37.5414 51.7882 37.5312 51.8059C37.4785 51.8941 37.4233 51.982 37.3662 52.0693C37.3468 52.0984 37.3275 52.1278 37.3077 52.157C37.2561 52.2333 37.2032 52.3099 37.1482 52.3855C37.1088 52.4386 37.0685 52.4918 37.0276 52.5443C36.985 52.5999 36.943 52.6559 36.8984 52.7105C36.8379 52.785 36.7735 52.8581 36.7091 52.9316C36.678 52.9669 36.6491 53.0036 36.617 53.0387C36.4974 53.1701 36.375 53.2947 36.251 53.4144C36.231 53.4338 36.2101 53.4519 36.1899 53.4708C35.724 53.9109 35.2201 54.2807 34.7116 54.5562C34.702 54.5615 34.6928 54.5664 34.6831 54.5713C34.5872 54.6227 34.491 54.6704 34.395 54.7148C34.3768 54.7234 34.3584 54.7312 34.3405 54.7393C34.2502 54.7801 34.16 54.8186 34.0701 54.8527C34.0477 54.8614 34.0254 54.8686 34.0032 54.8762C33.9145 54.9088 33.8254 54.9399 33.7375 54.9657C33.737 54.9658 33.7362 54.9665 33.7358 54.9666C33.6417 54.9941 33.5487 55.0201 33.4581 55.0399C32.7104 55.2035 32.0885 55.0958 31.6839 54.7282C31.2199 54.3091 31.0693 53.5735 31.2588 52.6583Z" fill="url(#paint0_linear_256_2)"/>
<path d="M33.094 40.5771C31.6943 42.0906 31.0306 44.2785 31.5098 46.4882C31.5491 46.67 31.6946 46.8094 31.8776 46.8419C31.9714 46.8578 32.0651 46.8439 32.149 46.8059C33.7752 46.4286 35.1593 45.4298 36.053 43.9854C36.9503 42.536 37.2454 40.808 36.8919 39.113C36.8918 39.1102 36.8925 39.1072 36.8919 39.1046C36.8916 39.1009 36.8895 39.0976 36.8887 39.094C36.886 39.0815 36.8852 39.0695 36.8825 39.057C36.8772 39.0329 36.8652 39.0122 36.8565 38.9898C36.8526 38.9803 36.8499 38.9702 36.8455 38.9608C36.8192 38.9067 36.7848 38.8586 36.7398 38.8198C35.4048 36.9399 33.0759 36.1387 30.8831 36.6184C30.1595 36.7767 29.4509 37.0743 28.7978 37.5184C28.6439 37.6232 28.5689 37.8108 28.6082 37.9926C28.6277 38.0838 28.6748 38.1642 28.7389 38.2264C29.7464 39.6587 31.3596 40.5028 33.094 40.5771ZM35.2761 43.5047C34.5818 44.6267 33.5436 45.4339 32.3198 45.8138C32.032 43.6343 33.0012 41.5451 34.6971 40.3981C34.7 40.3961 34.7037 40.3962 34.7066 40.3942C35.1066 40.1252 35.5326 39.9174 35.9766 39.7679C36.0019 39.7595 36.0257 39.7487 36.0511 39.7408C36.059 39.7382 36.0667 39.737 36.0745 39.7343C36.2496 41.0567 35.9729 42.3788 35.2761 43.5047ZM35.6461 38.9112C35.4119 38.991 35.1866 39.088 34.9673 39.1934C34.9407 39.2063 34.9149 39.2213 34.8884 39.2346C34.6914 39.3329 34.5014 39.4413 34.3181 39.5591C34.3037 39.5683 34.2883 39.5749 34.2735 39.5843C32.5441 39.913 30.8169 39.3071 29.7308 38.0179C31.7244 36.9231 34.18 37.3047 35.6461 38.9112Z" fill="url(#paint1_linear_256_2)"/>
</g>
<g clip-path="url(#clip1_256_2)">
<path d="M20.3124 18.1707C19.5439 18.4034 18.9513 19.029 18.6008 19.9449C16.8937 19.2301 15.3377 19.3596 14.5501 20.3185C13.9157 21.0905 13.9028 22.263 14.4875 23.5176C13.9595 23.8207 13.5741 24.2435 13.3962 24.7747C12.8267 26.4754 14.5691 28.5408 17.3636 29.4765C19.4378 30.1711 21.465 30.0163 22.5847 29.1566C23.2385 30.4333 25.3512 31.3875 28.2602 32.4113C27.2888 32.6585 26.4599 33.1336 25.9092 33.9347C25.0863 32.9888 23.6142 32.2501 21.8634 31.9939C18.9471 31.5677 16.4636 32.6246 16.2003 34.3981C16.1191 34.953 16.2724 35.5041 16.6069 36.0132C15.5192 36.8682 15.0006 37.9204 15.2184 38.896C15.488 40.1043 16.8176 40.9158 18.658 41.0511C18.5607 42.0007 18.7927 42.8421 19.3906 43.4139C20.78 44.7418 23.5326 44.041 25.6575 41.8187C26.4977 40.9401 27.1232 39.9356 27.4554 38.9434C27.5123 38.7735 27.5602 38.6045 27.5996 38.4365C27.8883 37.1988 27.6646 36.1514 26.9698 35.4864C26.8471 35.3692 26.7105 35.2734 26.5682 35.1876C26.5415 35.0601 26.5045 34.9345 26.456 34.8103C27.9444 31.76 34.2885 33.5996 36.2531 34.2575C36.4923 34.3376 36.7513 34.2089 36.8315 33.9693C36.9118 33.7297 36.7825 33.471 36.5433 33.3909C35.0878 32.9035 32.613 32.2063 30.3452 32.1876C30.3076 32.1601 30.2695 32.1328 30.2231 32.1173C27.5535 31.2233 23.992 30.0268 23.3799 28.6914C23.4188 28.6817 23.4584 28.6772 23.497 28.6655C24.314 28.4177 24.9358 27.732 25.2755 26.7176C25.3185 26.5893 25.3568 26.4561 25.3905 26.318C25.671 25.1682 25.5976 23.7856 25.1843 22.4237C24.7711 21.0617 24.0635 19.8706 23.1916 19.0707C22.255 18.2111 21.2329 17.8915 20.3124 18.1707ZM17.1045 34.5302C17.2852 33.2997 19.4023 32.5582 21.7304 32.8978C23.4284 33.1459 24.8834 33.9329 25.4499 34.8315C25.4424 34.8309 25.4339 34.8319 25.4263 34.8313C25.0823 34.8023 24.716 34.8286 24.3368 34.9059C24.3167 34.9098 24.2971 34.9138 24.2773 34.9183C23.8964 35.0008 23.5044 35.1351 23.1094 35.319C23.0922 35.3272 23.0748 35.3358 23.0576 35.344C22.8691 35.4337 22.6805 35.5334 22.4921 35.6457C22.483 35.6513 22.4737 35.6559 22.4646 35.6616C22.2692 35.7788 22.0752 35.9076 21.8827 36.0479C21.8612 36.0633 21.8405 36.0805 21.8192 36.0965C21.6902 36.1926 21.5616 36.2931 21.4348 36.3996C21.4343 36.3999 21.4337 36.4002 21.433 36.4009C21.4328 36.4013 21.4327 36.4017 21.4317 36.4019C21.4029 36.426 21.3742 36.4525 21.3456 36.4776C21.3029 36.5144 21.2604 36.5508 21.218 36.5882C21.1665 36.634 21.1153 36.679 21.064 36.727C21.0627 36.728 21.0611 36.7284 21.0601 36.73C20.9393 36.8433 20.8195 36.9607 20.7026 37.0825C20.6319 37.1567 20.5628 37.2323 20.4955 37.3081C20.4435 37.2965 20.391 37.2861 20.3395 37.2732C20.2941 37.2619 20.2486 37.251 20.2038 37.2393C20.075 37.2053 19.9481 37.1682 19.8238 37.128C19.8086 37.1229 19.793 37.1191 19.7778 37.114C19.6334 37.0662 19.4927 37.0142 19.3557 36.9587C19.3336 36.9499 19.3128 36.94 19.2911 36.9313C19.1773 36.884 19.066 36.8337 18.9585 36.7819C18.9315 36.769 18.9051 36.7558 18.8787 36.7426C18.7607 36.6833 18.6456 36.6212 18.5367 36.5563C18.5323 36.5538 18.5278 36.5514 18.5233 36.5489C18.1524 36.3269 17.8358 36.0748 17.5934 35.8028C17.5893 35.7981 17.5832 35.796 17.579 35.7913C17.2222 35.386 17.0428 34.9505 17.1045 34.5302ZM16.1102 38.6968C15.9723 38.0767 16.3856 37.3332 17.2009 36.7031C17.3622 36.8516 17.5418 36.9932 17.7355 37.127C17.7438 37.1326 17.752 37.1383 17.7607 37.1441C17.9535 37.2761 18.1599 37.4011 18.382 37.5164C18.8082 37.7387 19.2864 37.9268 19.8034 38.0739C19.8258 38.0804 19.846 38.0891 19.8684 38.0956C19.8655 38.1 19.8625 38.1047 19.8596 38.1091C19.3823 38.7858 19.0356 39.4832 18.8368 40.1544C17.3678 40.0745 16.2908 39.5086 16.1102 38.6968ZM26.7089 38.2283C26.4768 39.2223 25.8681 40.2744 24.9959 41.1866C23.2843 42.9766 21.006 43.6942 20.0217 42.7525C19.5549 42.3071 19.4511 41.5538 19.6488 40.6957C19.6928 40.5023 19.7525 40.3054 19.8259 40.1064C19.8373 40.075 19.8501 40.0441 19.8621 40.0125C19.9367 39.8216 20.0223 39.629 20.1213 39.4371C20.1378 39.4051 20.1568 39.3729 20.1737 39.341C20.2799 39.1433 20.3954 38.9468 20.5258 38.7529C20.5335 38.7415 20.5426 38.7301 20.5503 38.7187C20.686 38.5193 20.8337 38.323 20.9924 38.1323C21.003 38.1195 21.0126 38.1068 21.0231 38.0939C21.1313 37.9653 21.2437 37.8381 21.3627 37.7132C21.4641 37.6074 21.568 37.5058 21.6726 37.4078C21.714 37.3692 21.7567 37.3324 21.7986 37.2949C21.8585 37.2412 21.9178 37.1878 21.9785 37.1363C22.0355 37.0884 22.0932 37.0427 22.1509 36.9969C22.1976 36.9596 22.2442 36.9226 22.2914 36.8869C22.3578 36.8368 22.4247 36.7879 22.492 36.7411C22.5298 36.7147 22.5674 36.6887 22.6048 36.6632C22.6789 36.6133 22.7531 36.5644 22.8278 36.5181C22.8571 36.4999 22.8864 36.4828 22.9155 36.4651C22.9971 36.4158 23.0791 36.368 23.1609 36.3236C23.1786 36.3141 23.1959 36.3055 23.2135 36.296C23.4539 36.1683 23.6932 36.0624 23.9286 35.9769C23.9977 35.9518 24.0669 35.9263 24.1352 35.9053C24.2105 35.8819 24.2849 35.861 24.3592 35.8421C24.3756 35.8379 24.3923 35.8324 24.4085 35.8287C24.4782 35.812 24.5464 35.7997 24.6152 35.7871C24.6501 35.7809 24.6858 35.7736 24.7203 35.7683C24.7807 35.7591 24.8395 35.7533 24.8986 35.748C24.9394 35.7443 24.9797 35.7405 25.0195 35.7384C25.0738 35.7358 25.127 35.7353 25.1799 35.7357C25.2221 35.7363 25.2635 35.7377 25.3041 35.7402C25.3533 35.7432 25.402 35.7474 25.4495 35.7537C25.4915 35.7591 25.5324 35.7665 25.5727 35.7742C25.6166 35.7827 25.6608 35.7917 25.7033 35.803C25.7458 35.8144 25.7858 35.8287 25.8262 35.8432C25.8634 35.8561 25.9011 35.8688 25.9369 35.8841C26.0859 35.9499 26.2213 36.0362 26.3378 36.1475C26.7894 36.5792 26.9216 37.3184 26.7089 38.2283ZM15.2565 20.8986C15.7857 20.2551 17.0052 20.237 18.3547 20.8311C18.3533 20.8393 18.3527 20.8483 18.3513 20.8569C18.2578 21.3793 18.2328 21.9405 18.2737 22.5219C18.2743 22.5318 18.2753 22.5417 18.2763 22.5517C18.2892 22.7261 18.3083 22.9022 18.3333 23.0792C18.3356 23.0969 18.3362 23.1139 18.3391 23.1313C18.3183 23.1272 18.2983 23.1263 18.2775 23.1222C17.4721 22.9658 16.7067 22.9388 16.0264 23.0291C16.0173 23.0304 16.0083 23.0312 15.9997 23.0327C15.7657 23.0651 15.5419 23.1102 15.3306 23.17L15.33 23.1703C14.8781 22.2301 14.8463 21.3983 15.2565 20.8986ZM17.6538 28.6099C15.4227 27.8628 13.8696 26.2392 14.2628 25.0649C14.3976 24.6623 14.7542 24.3543 15.2552 24.1549C15.2611 24.153 15.2672 24.1536 15.2733 24.1513C15.6115 24.0178 16.0069 23.9363 16.4369 23.9058C16.4458 23.9049 16.455 23.9051 16.4639 23.9042C16.5866 23.8962 16.7125 23.893 16.8402 23.8929C16.8724 23.8931 16.9047 23.8933 16.9372 23.894C17.0532 23.8958 17.1713 23.9016 17.2903 23.9101C17.3172 23.9119 17.3434 23.913 17.3705 23.9153C17.5162 23.9279 17.6634 23.9445 17.8121 23.9668C17.8318 23.9696 17.8525 23.9741 17.8722 23.9773C17.9967 23.9968 18.1222 24.0205 18.2478 24.0471C18.2954 24.0573 18.3433 24.0685 18.3915 24.0799C18.4416 24.0913 18.4918 24.1057 18.542 24.1182C18.5676 24.2159 18.5955 24.3139 18.6251 24.4125C18.65 24.4951 18.6797 24.5749 18.7066 24.6557C18.7326 24.7333 18.7571 24.8129 18.7846 24.889C18.8068 24.9495 18.8317 25.0075 18.8547 25.0667C18.8783 25.1272 18.9022 25.1867 18.9272 25.2462C19.0019 25.4259 19.0807 25.6022 19.1657 25.7728C19.185 25.8115 19.2036 25.851 19.2235 25.8895C19.313 26.0626 19.4087 26.2286 19.5078 26.3904C19.5492 26.4583 19.5919 26.5236 19.635 26.5892C19.6957 26.6813 19.7583 26.7707 19.8219 26.8585C19.8301 26.8699 19.8382 26.8818 19.8464 26.8932C19.8566 26.9072 19.8675 26.921 19.8777 26.935C19.9166 26.9871 19.9543 27.0416 19.9942 27.0921C20.0706 27.188 20.1502 27.2783 20.2303 27.3673C20.2352 27.3728 20.2399 27.3787 20.2448 27.3842C20.2751 27.4175 20.3049 27.451 20.3355 27.4834C20.3877 27.539 20.4408 27.5905 20.494 27.6431C20.5079 27.6564 20.521 27.6718 20.5349 27.6852C20.5366 27.6872 20.5395 27.6872 20.5418 27.6889C20.5678 27.7135 20.5923 27.741 20.618 27.765C20.659 27.8024 20.7007 27.8332 20.7418 27.8687C20.8025 27.9208 20.8628 27.9738 20.9249 28.0215C21.0606 28.1272 21.1976 28.2246 21.3354 28.3079C21.3531 28.3186 21.3713 28.3262 21.389 28.3365C21.5245 28.4156 21.6609 28.4815 21.7974 28.5388C21.8134 28.5456 21.8292 28.5561 21.8449 28.5624C20.9339 29.1098 19.2809 29.1548 17.6538 28.6099ZM22.5735 19.7437C23.3266 20.4349 23.9432 21.4804 24.3093 22.6882C24.676 23.8957 24.7442 25.1079 24.5018 26.1009C24.2804 27.0099 23.8291 27.6091 23.231 27.7905C23.0846 27.8349 22.9317 27.8526 22.7742 27.8466C22.7295 27.8447 22.6848 27.8374 22.64 27.8316C22.6053 27.8272 22.5713 27.825 22.5364 27.8186C22.4897 27.8097 22.4429 27.7954 22.3961 27.7827C22.3617 27.7731 22.3281 27.7657 22.2934 27.7541C22.2466 27.7384 22.1995 27.7178 22.1526 27.6982C22.1179 27.6837 22.0833 27.6707 22.0483 27.6542C22.0005 27.6314 21.9526 27.6047 21.9049 27.5787C21.8711 27.5601 21.8372 27.542 21.8036 27.5216C21.7535 27.4913 21.7032 27.4572 21.6534 27.4231C21.6228 27.4023 21.5926 27.3816 21.5622 27.3588C21.5073 27.3183 21.4525 27.2749 21.3982 27.2297C21.376 27.2112 21.3537 27.1927 21.3314 27.1731C21.2732 27.1223 21.2152 27.0696 21.1582 27.0139C21.1064 26.9643 21.0554 26.9092 21.0045 26.8555C20.7534 26.5878 20.5141 26.2764 20.2974 25.9262C20.2927 25.9188 20.2879 25.9115 20.2832 25.9041C20.2265 25.8114 20.1713 25.7158 20.1179 25.6189C20.1084 25.6013 20.0985 25.5835 20.0885 25.5657C20.0398 25.4752 19.9927 25.3827 19.947 25.2889C19.932 25.2574 19.9166 25.2257 19.9018 25.1938C19.8627 25.1103 19.8241 25.0256 19.7874 24.9396C19.762 24.8785 19.737 24.8167 19.7129 24.7546C19.687 24.6896 19.6605 24.6248 19.6365 24.5584C19.6035 24.4684 19.5739 24.3756 19.5438 24.2826C19.5294 24.2378 19.5127 24.1941 19.499 24.1486C19.4475 23.9786 19.4034 23.8096 19.3642 23.6418C19.3579 23.6146 19.353 23.5874 19.3471 23.5604C19.2082 22.9346 19.1491 22.3125 19.1735 21.7346C19.1738 21.7236 19.1744 21.7132 19.1751 21.7024C19.1802 21.5937 19.1885 21.4867 19.1997 21.3815C19.2016 21.3614 19.2044 21.3416 19.2066 21.3221C19.2178 21.2237 19.2311 21.1265 19.2478 21.0319C19.2519 21.0082 19.2572 20.9853 19.262 20.9624C19.2796 20.8695 19.2985 20.777 19.3214 20.6883C19.3216 20.6879 19.3214 20.6869 19.3216 20.6864C19.3461 20.5915 19.3716 20.4984 19.401 20.4104C19.6441 19.6846 20.0554 19.206 20.5784 19.0472C21.1762 18.8638 21.8849 19.1117 22.5735 19.7437Z" fill="url(#paint2_linear_256_2)"/>
<path d="M32.0038 27.5149C31.4223 25.5371 29.8844 23.8453 27.7417 23.1234C27.5655 23.0639 27.3712 23.1174 27.2494 23.2578C27.1876 23.3302 27.1515 23.4178 27.1412 23.5093C26.631 25.0989 26.7787 26.7993 27.5604 28.3073C28.3446 29.8209 29.6766 30.9604 31.3131 31.5262C31.3155 31.5275 31.3177 31.5297 31.3203 31.5306C31.3236 31.5321 31.3275 31.532 31.331 31.5332C31.3431 31.5372 31.3538 31.5427 31.3659 31.5468C31.3893 31.5546 31.4133 31.555 31.437 31.559C31.4471 31.5605 31.4572 31.5634 31.4675 31.5644C31.5275 31.5696 31.5864 31.5647 31.6428 31.546C33.9413 31.3639 35.8234 29.7755 36.5362 27.6471C36.7714 26.9447 36.8792 26.1837 36.8329 25.3953C36.8219 25.2094 36.6993 25.0489 36.5231 24.9894C36.4348 24.9593 36.3416 24.9585 36.2553 24.9816C34.5091 25.112 32.9571 26.064 32.0038 27.5149ZM28.3715 27.8869C27.7643 26.7154 27.6038 25.4102 27.9053 24.1647C29.9239 25.0353 31.2204 26.9388 31.3354 28.983C31.3356 28.9864 31.3336 28.9896 31.3339 28.9931C31.3597 29.4745 31.3196 29.9468 31.2203 30.4046C31.2144 30.4306 31.2115 30.4566 31.2053 30.4824C31.2035 30.4905 31.2006 30.4978 31.1989 30.5059C29.9738 29.978 28.9807 29.0624 28.3715 27.8869ZM32.1252 30.5602C32.1769 30.3182 32.2091 30.075 32.231 29.8327C32.2336 29.8032 32.234 29.7735 32.2362 29.7439C32.2528 29.5244 32.2571 29.3056 32.2501 29.0878C32.2495 29.0708 32.2517 29.0542 32.2513 29.0367C32.856 27.3834 34.2619 26.2114 35.9257 25.9401C35.8431 28.213 34.2562 30.1254 32.1252 30.5602Z" fill="url(#paint3_linear_256_2)"/>
</g>
<g clip-path="url(#clip2_256_2)">
<path d="M57.9576 28.0274C58.1645 27.2516 57.9448 26.4183 57.3509 25.638C58.8576 24.5634 59.5671 23.1724 59.1668 21.9979C58.8447 21.052 57.8548 20.4235 56.4804 20.2597C56.5008 19.6512 56.3445 19.101 55.9866 18.6699C54.8408 17.29 52.1674 17.6834 49.9001 19.566C48.2172 20.9634 47.2811 22.7682 47.4222 24.1727C45.9925 24.0561 44.0687 25.3494 41.6662 27.283C41.9677 26.3271 42.0004 25.3722 41.6095 24.4821C42.847 24.2808 44.2503 23.4185 45.3901 22.0652C47.2885 19.8107 47.6981 17.1429 46.3292 15.985C45.9003 15.6237 45.3512 15.4637 44.7422 15.48C44.5883 14.105 43.9669 13.1099 43.0229 12.7813C41.8538 12.3741 40.4637 13.0769 39.3794 14.5701C38.6234 13.9873 37.786 13.7412 36.985 13.9483C35.1244 14.43 34.2704 17.139 35.0403 20.1157C35.3446 21.2927 35.869 22.3534 36.5375 23.1585C36.6519 23.2963 36.7703 23.4261 36.8924 23.548C37.7925 24.4453 38.8006 24.8068 39.7319 24.5664C39.8961 24.5239 40.0495 24.4582 40.1974 24.3824C40.3198 24.4268 40.4461 24.4616 40.5772 24.4857C42.3862 27.3576 37.481 31.7815 35.887 33.105C35.693 33.2662 35.666 33.5541 35.8274 33.7485C35.9888 33.9429 36.2768 33.9693 36.4709 33.8082C37.6518 32.8276 39.5479 31.0911 40.7583 29.1732C40.8014 29.1557 40.8446 29.1377 40.8823 29.1064C43.0483 27.308 45.9412 24.9106 47.3988 25.0938C47.3865 25.1319 47.3695 25.168 47.3591 25.2069C47.1395 26.0319 47.3948 26.9217 48.0782 27.7447C48.1646 27.8488 48.2576 27.9515 48.3573 28.0529C49.187 28.897 50.4009 29.5628 51.7763 29.9288C53.1517 30.2948 54.5369 30.3207 55.676 30.0008C56.9001 29.6574 57.7101 28.9569 57.9576 28.0274ZM45.7407 16.684C46.6915 17.4857 46.2068 19.676 44.6919 21.4761C43.5866 22.7888 42.1514 23.6111 41.0891 23.6194C41.0936 23.6133 41.0972 23.6055 41.1017 23.5995C41.3075 23.3223 41.4781 22.997 41.6121 22.634C41.6194 22.6149 41.6263 22.596 41.6329 22.5769C41.7634 22.2096 41.8557 21.8057 41.9074 21.3731C41.9095 21.3541 41.9113 21.3348 41.9134 21.3159C41.9365 21.1084 41.9511 20.8956 41.9548 20.6762C41.9549 20.6655 41.9558 20.6552 41.9558 20.6445C41.9591 20.4167 41.9518 20.184 41.9339 19.9464C41.9321 19.92 41.9284 19.8933 41.926 19.8668C41.9123 19.7065 41.8946 19.5443 41.8708 19.3805C41.8709 19.3798 41.871 19.3792 41.8707 19.3782C41.8704 19.3778 41.8702 19.3775 41.8706 19.3765C41.8652 19.3394 41.8578 19.301 41.8515 19.2635C41.8427 19.2078 41.8342 19.1525 41.8248 19.0968C41.8129 19.0288 41.8016 18.9616 41.7879 18.8928C41.7877 18.8912 41.7882 18.8896 41.7874 18.8879C41.7547 18.7255 41.718 18.5618 41.676 18.3983C41.6501 18.2992 41.6223 18.2006 41.5933 18.1034C41.6306 18.0654 41.667 18.0262 41.7052 17.9892C41.7387 17.9566 41.7719 17.9237 41.8054 17.8917C41.9022 17.8001 42.0005 17.7119 42.1002 17.6273C42.1125 17.6171 42.124 17.6058 42.1363 17.5956C42.253 17.4981 42.3713 17.4058 42.4907 17.3186C42.5098 17.3044 42.5292 17.292 42.548 17.2781C42.6481 17.2063 42.7495 17.1381 42.8502 17.0741C42.8754 17.058 42.9005 17.0424 42.9256 17.0269C43.0381 16.9578 43.1516 16.8927 43.2641 16.8344C43.2685 16.8319 43.273 16.8294 43.2774 16.8269C43.6615 16.6285 44.0425 16.4921 44.4014 16.4294C44.4076 16.4283 44.4126 16.4242 44.4188 16.4232C44.9512 16.3333 45.4159 16.4102 45.7407 16.684ZM42.7226 13.6443C43.3223 13.8537 43.7366 14.5966 43.8428 15.6215C43.6316 15.6804 43.4167 15.7585 43.2009 15.8527C43.1918 15.8568 43.1827 15.8608 43.1732 15.8651C42.9593 15.9595 42.7444 16.069 42.5294 16.1971C42.116 16.4424 41.7042 16.7498 41.3069 17.1118C41.2895 17.1274 41.2715 17.14 41.2542 17.1556C41.252 17.1508 41.2495 17.1457 41.2474 17.141C40.9234 16.3789 40.5133 15.7168 40.0474 15.1944C40.8891 13.9877 41.9374 13.3703 42.7226 13.6443ZM37.5385 22.9005C36.8158 22.1796 36.2421 21.1081 35.926 19.8863C35.3059 17.4884 35.8959 15.1739 37.2148 14.8331C37.8393 14.671 38.5344 14.9795 39.1596 15.5995C39.3009 15.7388 39.4368 15.8932 39.5673 16.0604C39.5879 16.0867 39.6075 16.1138 39.628 16.1407C39.7511 16.3046 39.8696 16.4788 39.9806 16.664C39.9992 16.6949 40.0165 16.728 40.0347 16.7592C40.1468 16.9536 40.2531 17.1553 40.3492 17.3683C40.3548 17.3808 40.3597 17.3946 40.3654 17.4071C40.4634 17.6275 40.5525 17.8564 40.631 18.0918C40.6363 18.1075 40.6421 18.1223 40.6474 18.1381C40.6998 18.2977 40.7487 18.4603 40.7922 18.6272C40.8287 18.7692 40.8604 18.911 40.8886 19.0515C40.8996 19.1071 40.9084 19.1627 40.9182 19.2182C40.9323 19.2973 40.9464 19.3759 40.9583 19.4545C40.969 19.5282 40.9774 19.6014 40.9859 19.6745C40.9931 19.7339 40.9999 19.793 41.0055 19.8519C41.0131 19.9347 41.0194 20.0174 41.0238 20.0992C41.0263 20.1452 41.0286 20.1909 41.0306 20.2362C41.034 20.3254 41.0364 20.4142 41.0364 20.5022C41.0365 20.5366 41.0356 20.5706 41.0353 20.6046C41.0343 20.6999 41.0317 20.7947 41.0263 20.8877C41.0251 20.9077 41.0233 20.927 41.0221 20.947C41.0041 21.2186 40.968 21.4778 40.9167 21.7229C40.9016 21.7948 40.8868 21.8671 40.8687 21.9362C40.849 22.0126 40.8275 22.0868 40.8045 22.16C40.7995 22.1761 40.7953 22.1932 40.7899 22.2089C40.7674 22.2769 40.7419 22.3414 40.7164 22.4066C40.7033 22.4394 40.6907 22.4736 40.6771 22.5058C40.653 22.562 40.627 22.615 40.6003 22.6681C40.582 22.7046 40.5641 22.741 40.5449 22.7758C40.5185 22.8234 40.4909 22.8688 40.4627 22.9136C40.4399 22.9491 40.417 22.9837 40.3934 23.0169C40.365 23.0571 40.3358 23.0962 40.3054 23.1333C40.2787 23.1662 40.2508 23.197 40.223 23.2272C40.1927 23.2601 40.1618 23.293 40.1298 23.3231C40.0978 23.3532 40.0645 23.3797 40.0309 23.4064C40.0003 23.4312 39.9698 23.4566 39.9378 23.4789C39.8034 23.5709 39.6587 23.6406 39.5027 23.681C38.898 23.8375 38.2 23.5605 37.5385 22.9005ZM58.3016 22.2928C58.5699 23.0816 57.943 24.1278 56.7273 24.962C56.721 24.9565 56.7136 24.9513 56.707 24.9455C56.3122 24.5909 55.8483 24.274 55.3326 24.0026C55.3239 23.9979 55.3149 23.9935 55.3059 23.9891C55.1508 23.9082 54.9911 23.8318 54.8274 23.7598C54.8112 23.7524 54.7964 23.7439 54.7802 23.7372C54.7946 23.7217 54.8059 23.7052 54.8203 23.6897C55.3775 23.0875 55.8035 22.451 56.0851 21.8252C56.0888 21.8168 56.0928 21.8087 56.0961 21.8006C56.1918 21.5845 56.2713 21.3706 56.3318 21.1594L56.3318 21.1588C57.369 21.2699 58.0929 21.681 58.3016 22.2928ZM50.484 20.2691C52.2942 18.7661 54.4923 18.301 55.2834 19.2538C55.5546 19.5804 55.6286 20.0458 55.5343 20.5767C55.5328 20.5827 55.5291 20.5876 55.5278 20.5939C55.4632 20.9517 55.3242 21.3308 55.1237 21.7124C55.1197 21.7204 55.1147 21.7281 55.1107 21.7361C55.053 21.8447 54.9894 21.9533 54.9222 22.062C54.905 22.0893 54.8879 22.1166 54.8701 22.1438C54.8075 22.2415 54.7404 22.3388 54.6705 22.4355C54.6548 22.4574 54.6401 22.4791 54.6238 22.501C54.5364 22.6181 54.4448 22.7346 54.3475 22.8492C54.3347 22.8646 54.32 22.8797 54.3069 22.8948C54.2247 22.9903 54.1385 23.0845 54.0497 23.1772C54.0159 23.2124 53.9812 23.2472 53.9462 23.2822C53.91 23.3188 53.8714 23.3538 53.8343 23.3899C53.7378 23.3602 53.6398 23.3323 53.5403 23.3056C53.4571 23.2833 53.3736 23.2664 53.2907 23.2467C53.211 23.228 53.1306 23.2069 53.0513 23.1902C52.9883 23.1772 52.9258 23.1678 52.8633 23.1562C52.7995 23.1444 52.7363 23.1334 52.6726 23.1232C52.4805 23.0921 52.2892 23.0663 52.0993 23.0487C52.0562 23.0447 52.0129 23.0397 51.9697 23.0363C51.7754 23.0213 51.5839 23.0152 51.3941 23.0141C51.3147 23.0136 51.2366 23.0154 51.1582 23.0176C51.0479 23.0207 50.939 23.0268 50.8308 23.0346C50.8168 23.0356 50.8025 23.0362 50.7884 23.0372C50.7711 23.0385 50.7537 23.0404 50.7364 23.0418C50.6716 23.0474 50.6054 23.0507 50.5415 23.0581C50.4198 23.0724 50.3011 23.0926 50.1833 23.1138C50.176 23.1151 50.1684 23.116 50.1612 23.1173C50.1169 23.1255 50.0728 23.1331 50.0291 23.142C49.9543 23.1571 49.8826 23.1752 49.8099 23.1928C49.7913 23.1975 49.7712 23.2005 49.7526 23.2053C49.75 23.2057 49.7484 23.2082 49.7457 23.2092C49.7111 23.2183 49.6749 23.2247 49.6409 23.2339C49.5876 23.2491 49.5394 23.2683 49.4876 23.2846C49.4114 23.3087 49.3346 23.332 49.2613 23.3596C49.1 23.4193 48.945 23.4845 48.8016 23.5578C48.7832 23.5671 48.7672 23.5786 48.7491 23.5883C48.6105 23.6618 48.4826 23.7431 48.362 23.8289C48.3478 23.839 48.3305 23.8468 48.3169 23.8569C48.3314 22.7941 49.1638 21.3653 50.484 20.2691ZM55.4295 29.121C54.4453 29.3971 53.2319 29.3706 52.0123 29.0456C50.7927 28.7213 49.7263 28.1409 49.0099 27.4118C48.3539 26.7448 48.0822 26.0456 48.243 25.4417C48.2824 25.2938 48.3478 25.1545 48.4359 25.0238C48.4611 24.9868 48.4909 24.9526 48.5194 24.9176C48.5414 24.8905 48.5612 24.8628 48.585 24.8364C48.6171 24.8014 48.6539 24.7691 48.6894 24.7361C48.7157 24.7119 48.7397 24.6872 48.7678 24.6638C48.8058 24.6323 48.8481 24.6031 48.8894 24.5735C48.92 24.5517 48.9494 24.5291 48.9818 24.5081C49.0263 24.4795 49.0742 24.4528 49.1215 24.426C49.1551 24.407 49.1883 24.3877 49.2234 24.3699C49.2755 24.3432 49.331 24.3185 49.3862 24.2941C49.42 24.2791 49.4535 24.2643 49.4889 24.2504C49.5523 24.2251 49.6181 24.2014 49.685 24.179C49.7125 24.1699 49.7399 24.1608 49.7683 24.152C49.8422 24.1294 49.9175 24.1078 49.9949 24.0887C50.0644 24.0708 50.138 24.0565 50.2105 24.0415C50.5703 23.969 50.9611 23.9297 51.3729 23.9299C51.3816 23.9297 51.3904 23.9296 51.3992 23.9294C51.5078 23.9301 51.6182 23.9335 51.7286 23.9392C51.7486 23.9404 51.769 23.9413 51.7893 23.9422C51.892 23.9485 51.9953 23.9571 52.0992 23.9677C52.1338 23.9715 52.1689 23.9751 52.2039 23.9793C52.2954 23.9901 52.3877 24.0019 52.4802 24.016C52.5454 24.0266 52.6112 24.0379 52.6766 24.0501C52.7456 24.0623 52.8146 24.0739 52.8837 24.0884C52.9776 24.1078 53.0721 24.1315 53.167 24.1549C53.2126 24.1663 53.2585 24.1751 53.3044 24.1875C53.4761 24.2332 53.643 24.2847 53.8063 24.3398C53.8327 24.3487 53.8584 24.3589 53.8845 24.3681C54.4895 24.5796 55.0496 24.8571 55.5279 25.1821C55.5371 25.1882 55.5456 25.1942 55.5545 25.2005C55.6442 25.262 55.7307 25.3256 55.8143 25.3904C55.8304 25.4026 55.8457 25.4154 55.8612 25.4275C55.9389 25.4889 56.0145 25.5514 56.0861 25.6155C56.1041 25.6315 56.1208 25.6479 56.1378 25.6641C56.2075 25.728 56.2761 25.7928 56.3394 25.859C56.3397 25.8594 56.3406 25.8598 56.3409 25.8601C56.4087 25.931 56.4745 26.0016 56.5337 26.073C57.0227 26.6619 57.2129 27.2636 57.0724 27.7919C56.9135 28.3966 56.3294 28.8685 55.4295 29.121Z" fill="url(#paint4_linear_256_2)"/>
<path d="M43.8567 33.0442C45.8442 33.5916 48.0923 33.1753 49.8345 31.7341C49.9779 31.6156 50.0348 31.4223 49.9795 31.2449C49.9506 31.1542 49.8951 31.0774 49.8228 31.0204C48.7403 29.7495 47.217 28.9794 45.5235 28.8497C43.8238 28.7191 42.1536 29.2512 40.8107 30.3443C40.8083 30.3457 40.8053 30.3464 40.8032 30.3481C40.8001 30.3501 40.7981 30.3535 40.7953 30.3558C40.7855 30.364 40.7752 30.3702 40.7653 30.3784C40.7463 30.3941 40.7334 30.4143 40.7175 30.4323C40.7109 30.4402 40.7031 30.4472 40.6968 30.4554C40.6609 30.5037 40.6339 30.5563 40.6201 30.6141C39.5643 32.6638 39.9232 35.1004 41.3571 36.8273C41.8303 37.3972 42.4204 37.8897 43.115 38.2656C43.2788 38.3541 43.4799 38.3344 43.6232 38.216C43.6953 38.1568 43.7451 38.078 43.7709 37.9925C44.5797 36.4394 44.5879 34.6187 43.8567 33.0442ZM45.4536 29.7606C46.7692 29.8615 47.9633 30.4125 48.8633 31.3247C47.0599 32.5821 44.759 32.6817 42.9608 31.7027C42.9577 31.7011 42.9561 31.6978 42.953 31.6962C42.5302 31.4645 42.1498 31.1817 41.813 30.8561C41.7939 30.8375 41.7734 30.8213 41.7547 30.8024C41.7487 30.7966 41.7441 30.7904 41.7382 30.7846C42.8321 30.0212 44.1335 29.6593 45.4536 29.7606ZM41.2041 31.5434C41.3826 31.7148 41.5723 31.8703 41.7668 32.0165C41.7904 32.0343 41.8155 32.0502 41.8396 32.0677C42.0174 32.1974 42.2011 32.3164 42.3899 32.4251C42.4047 32.4336 42.4177 32.4442 42.4327 32.453C43.5196 33.8379 43.7754 35.6503 43.1297 37.2074C41.2411 35.9401 40.4513 33.5839 41.2041 31.5434Z" fill="url(#paint5_linear_256_2)"/>
</g>
<path d="M74.16 40.7C74.16 41.1667 74.06 41.5 73.86 41.7C73.66 41.9 73.3467 42 72.92 42C72.6133 42 72.38 41.92 72.22 41.76C72.0733 41.6 72 41.3467 72 41V28.82C72 28.4733 72.0733 28.22 72.22 28.06C72.38 27.9 72.6133 27.82 72.92 27.82H79.72C80.1333 27.82 80.4333 27.8733 80.62 27.98C80.82 28.0867 80.92 28.28 80.92 28.56V30.1C80.92 30.4467 80.8467 30.7 80.7 30.86C80.5667 31.02 80.3533 31.1 80.06 31.1C79.6733 31.1 79.38 31 79.18 30.8C78.9933 30.6 78.9 30.2667 78.9 29.8V28.88H74.16V34.22H78.36C78.7333 34.22 78.92 34.4067 78.92 34.78C78.92 34.9533 78.8667 35.0867 78.76 35.18C78.6667 35.2733 78.5333 35.32 78.36 35.32H74.16V40.7ZM84.8933 40.64C84.8933 41.2 84.7999 41.5667 84.6133 41.74C84.4266 41.9133 84.0933 42 83.6133 42C83.3066 42 83.0933 41.9267 82.9733 41.78C82.8666 41.62 82.8133 41.38 82.8133 41.06V27.74C82.8133 27.42 82.8666 27.1867 82.9733 27.04C83.0933 26.88 83.3066 26.8 83.6133 26.8C84.0666 26.8 84.3933 26.9267 84.5933 27.18C84.7933 27.4333 84.8933 27.8533 84.8933 28.44V40.64ZM92.1816 42C90.7282 42 89.6016 41.58 88.8016 40.74C88.0016 39.9 87.6016 38.6467 87.6016 36.98C87.6016 35.2867 88.0082 34.0267 88.8216 33.2C89.6349 32.3733 90.7549 31.96 92.1816 31.96C93.6082 31.96 94.7282 32.3733 95.5416 33.2C96.3549 34.0267 96.7616 35.2867 96.7616 36.98C96.7616 38.6467 96.3616 39.9 95.5616 40.74C94.7616 41.58 93.6349 42 92.1816 42ZM92.1816 41.2C92.9682 41.2 93.5682 40.9 93.9816 40.3C94.3949 39.6867 94.6016 38.58 94.6016 36.98C94.6016 35.4067 94.3882 34.3133 93.9616 33.7C93.5349 33.0733 92.9416 32.76 92.1816 32.76C91.4349 32.76 90.8416 33.0733 90.4016 33.7C89.9749 34.3267 89.7616 35.42 89.7616 36.98C89.7616 38.5667 89.9682 39.6667 90.3816 40.28C90.7949 40.8933 91.3949 41.2 92.1816 41.2ZM105.834 32.82C105.834 33.34 105.574 33.6 105.054 33.6H104.394C103.394 33.6 102.647 33.8467 102.154 34.34C101.674 34.8333 101.434 35.42 101.434 36.1V40.58C101.434 41.1533 101.334 41.5333 101.134 41.72C100.947 41.9067 100.621 42 100.154 42C99.8472 42 99.6339 41.9267 99.5139 41.78C99.4072 41.62 99.3539 41.38 99.3539 41.06V32.82C99.3539 32.5 99.4206 32.28 99.5539 32.16C99.6872 32.0267 99.9072 31.96 100.214 31.96C100.587 31.96 100.874 32.1067 101.074 32.4C101.287 32.68 101.394 33.1067 101.394 33.68V34.18H101.434C101.821 33.5667 102.261 33.0467 102.754 32.62C103.247 32.18 103.881 31.96 104.654 31.96H104.894C105.227 31.96 105.461 32.0333 105.594 32.18C105.741 32.3267 105.821 32.54 105.834 32.82ZM114.149 39.48C114.283 39.3333 114.449 39.26 114.649 39.26C114.769 39.26 114.876 39.3 114.969 39.38C115.063 39.46 115.109 39.56 115.109 39.68C115.109 39.92 115.023 40.1467 114.849 40.36C113.969 41.4533 112.743 42 111.169 42C109.609 42 108.429 41.58 107.629 40.74C106.843 39.8867 106.449 38.7133 106.449 37.22C106.449 35.5133 106.849 34.2133 107.649 33.32C108.449 32.4133 109.609 31.96 111.129 31.96C112.343 31.96 113.316 32.3067 114.049 33C114.783 33.6933 115.149 34.6867 115.149 35.98C115.149 36.6333 114.769 36.96 114.009 36.96H108.629C108.616 37.0667 108.609 37.2133 108.609 37.4C108.609 38.5467 108.836 39.4533 109.289 40.12C109.743 40.7867 110.443 41.12 111.389 41.12C112.029 41.12 112.536 40.9867 112.909 40.72C113.283 40.4533 113.569 40.2 113.769 39.96C113.969 39.7067 114.096 39.5467 114.149 39.48ZM111.009 32.76C110.369 32.76 109.843 33.0333 109.429 33.58C109.016 34.1267 108.769 34.9733 108.689 36.12H112.429C112.669 36.12 112.843 36.08 112.949 36C113.056 35.9067 113.109 35.7533 113.109 35.54C113.109 34.6467 112.896 33.96 112.469 33.48C112.056 33 111.569 32.76 111.009 32.76ZM122.937 39.56C122.937 39.1867 122.824 38.88 122.597 38.64C122.384 38.3867 122.104 38.1867 121.757 38.04C121.424 37.88 120.944 37.6933 120.317 37.48C119.557 37.2267 118.957 36.9933 118.517 36.78C118.09 36.5667 117.744 36.2933 117.477 35.96C117.21 35.6133 117.077 35.1667 117.077 34.62C117.077 33.9267 117.284 33.3867 117.697 33C118.124 32.6 118.617 32.3267 119.177 32.18C119.737 32.0333 120.27 31.96 120.777 31.96C121.884 31.96 122.75 32.1267 123.377 32.46C123.684 32.62 123.937 32.8133 124.137 33.04C124.337 33.2667 124.437 33.52 124.437 33.8C124.437 34.0133 124.357 34.1867 124.197 34.32C124.05 34.4533 123.87 34.52 123.657 34.52C123.377 34.52 123.15 34.46 122.977 34.34C122.817 34.22 122.684 34.04 122.577 33.8C122.43 33.48 122.217 33.2267 121.937 33.04C121.657 32.8533 121.277 32.76 120.797 32.76C120.304 32.76 119.89 32.8867 119.557 33.14C119.237 33.38 119.077 33.7467 119.077 34.24C119.077 34.5733 119.177 34.86 119.377 35.1C119.577 35.3267 119.837 35.5133 120.157 35.66C120.477 35.8067 120.924 35.98 121.497 36.18C122.244 36.4467 122.844 36.6867 123.297 36.9C123.764 37.1133 124.157 37.3933 124.477 37.74C124.81 38.0867 124.977 38.5133 124.977 39.02C124.977 39.9133 124.59 40.6333 123.817 41.18C123.057 41.7267 122.064 42 120.837 42C120.264 42 119.717 41.94 119.197 41.82C118.69 41.7 118.264 41.5467 117.917 41.36C117.264 41.0267 116.937 40.5867 116.937 40.04C116.937 39.8267 117.017 39.6533 117.177 39.52C117.35 39.3733 117.53 39.3 117.717 39.3C118.237 39.3 118.604 39.54 118.817 40.02C118.99 40.3667 119.224 40.6533 119.517 40.88C119.824 41.0933 120.277 41.2 120.877 41.2C121.464 41.2 121.95 41.0667 122.337 40.8C122.737 40.52 122.937 40.1067 122.937 39.56ZM134.28 39.48C134.413 39.3333 134.58 39.26 134.78 39.26C134.9 39.26 135.007 39.3 135.1 39.38C135.193 39.46 135.24 39.56 135.24 39.68C135.24 39.92 135.153 40.1467 134.98 40.36C134.1 41.4533 132.893 42 131.36 42C129.773 42 128.62 41.5533 127.9 40.66C127.193 39.7667 126.84 38.5467 126.84 37C126.84 35.2533 127.273 33.98 128.14 33.18C129.007 32.3667 130.153 31.96 131.58 31.96C132.46 31.96 133.24 32.16 133.92 32.56C134.653 33 135.02 33.5133 135.02 34.1C135.02 34.34 134.933 34.5333 134.76 34.68C134.587 34.8133 134.393 34.88 134.18 34.88C133.887 34.88 133.653 34.8133 133.48 34.68C133.32 34.5333 133.193 34.32 133.1 34.04C132.967 33.6533 132.78 33.3467 132.54 33.12C132.313 32.88 131.98 32.76 131.54 32.76C130.673 32.76 130.033 33.08 129.62 33.72C129.207 34.3467 129 35.44 129 37C129 38.3733 129.193 39.4067 129.58 40.1C129.98 40.78 130.647 41.12 131.58 41.12C132.207 41.12 132.7 40.9933 133.06 40.74C133.42 40.4867 133.7 40.2333 133.9 39.98C134.1 39.7133 134.227 39.5467 134.28 39.48ZM144.345 39.48C144.478 39.3333 144.645 39.26 144.845 39.26C144.965 39.26 145.071 39.3 145.165 39.38C145.258 39.46 145.305 39.56 145.305 39.68C145.305 39.92 145.218 40.1467 145.045 40.36C144.165 41.4533 142.938 42 141.365 42C139.805 42 138.625 41.58 137.825 40.74C137.038 39.8867 136.645 38.7133 136.645 37.22C136.645 35.5133 137.045 34.2133 137.845 33.32C138.645 32.4133 139.805 31.96 141.325 31.96C142.538 31.96 143.511 32.3067 144.245 33C144.978 33.6933 145.345 34.6867 145.345 35.98C145.345 36.6333 144.965 36.96 144.205 36.96H138.825C138.811 37.0667 138.805 37.2133 138.805 37.4C138.805 38.5467 139.031 39.4533 139.485 40.12C139.938 40.7867 140.638 41.12 141.585 41.12C142.225 41.12 142.731 40.9867 143.105 40.72C143.478 40.4533 143.765 40.2 143.965 39.96C144.165 39.7067 144.291 39.5467 144.345 39.48ZM141.205 32.76C140.565 32.76 140.038 33.0333 139.625 33.58C139.211 34.1267 138.965 34.9733 138.885 36.12H142.625C142.865 36.12 143.038 36.08 143.145 36C143.251 35.9067 143.305 35.7533 143.305 35.54C143.305 34.6467 143.091 33.96 142.665 33.48C142.251 33 141.765 32.76 141.205 32.76ZM154.232 32.82C154.232 33.34 153.972 33.6 153.452 33.6H152.792C151.792 33.6 151.046 33.8467 150.552 34.34C150.072 34.8333 149.832 35.42 149.832 36.1V40.58C149.832 41.1533 149.732 41.5333 149.532 41.72C149.346 41.9067 149.019 42 148.552 42C148.246 42 148.032 41.9267 147.912 41.78C147.806 41.62 147.752 41.38 147.752 41.06V32.82C147.752 32.5 147.819 32.28 147.952 32.16C148.086 32.0267 148.306 31.96 148.612 31.96C148.986 31.96 149.272 32.1067 149.472 32.4C149.686 32.68 149.792 33.1067 149.792 33.68V34.18H149.832C150.219 33.5667 150.659 33.0467 151.152 32.62C151.646 32.18 152.279 31.96 153.052 31.96H153.292C153.626 31.96 153.859 32.0333 153.992 32.18C154.139 32.3267 154.219 32.54 154.232 32.82Z" fill="#001801"/>
<defs>
<linearGradient id="paint0_linear_256_2" x1="43.8486" y1="57.6436" x2="38.3785" y2="32.6371" gradientUnits="userSpaceOnUse">
<stop stop-color="#001801"/>
<stop offset="1" stop-color="#308C50"/>
</linearGradient>
<linearGradient id="paint1_linear_256_2" x1="34.4491" y1="46.3136" x2="32.2623" y2="36.3167" gradientUnits="userSpaceOnUse">
<stop stop-color="#001801"/>
<stop offset="1" stop-color="#308C50"/>
</linearGradient>
<linearGradient id="paint2_linear_256_2" x1="11.8371" y1="27.9953" x2="36.1102" y2="36.1234" gradientUnits="userSpaceOnUse">
<stop stop-color="#001801"/>
<stop offset="1" stop-color="#308C50"/>
</linearGradient>
<linearGradient id="paint3_linear_256_2" x1="26.3842" y1="25.7364" x2="36.0879" y2="28.9858" gradientUnits="userSpaceOnUse">
<stop stop-color="#001801"/>
<stop offset="1" stop-color="#308C50"/>
</linearGradient>
<linearGradient id="paint4_linear_256_2" x1="54.0701" y1="15.6484" x2="34.3762" y2="32.0007" gradientUnits="userSpaceOnUse">
<stop stop-color="#001801"/>
<stop offset="1" stop-color="#308C50"/>
</linearGradient>
<linearGradient id="paint5_linear_256_2" x1="48.3283" y1="29.2039" x2="40.4553" y2="35.7411" gradientUnits="userSpaceOnUse">
<stop stop-color="#001801"/>
<stop offset="1" stop-color="#308C50"/>
</linearGradient>
<clipPath id="clip0_256_2">
<rect width="25.5968" height="25.5968" fill="white" transform="translate(56.3514 54.9086) rotate(167.661)"/>
</clipPath>
<clipPath id="clip1_256_2">
<rect width="25.5968" height="25.5968" fill="white" transform="translate(7.77332 40.1313) rotate(-71.4861)"/>
</clipPath>
<clipPath id="clip2_256_2">
<rect width="25.5968" height="25.5968" fill="white" transform="translate(45.8941 5.80188) rotate(50.2963)"/>
</clipPath>
</defs>
</svg>
