<svg width="153" height="75" viewBox="0 0 153 75" fill="none" xmlns="http://www.w3.org/2000/svg">
<g clip-path="url(#clip0_36_4)">
<path d="M31.6451 67.3866C32.452 68.1207 33.5944 68.376 34.9067 68.1467C35.2624 70.6355 36.4975 72.36 38.1644 72.6105C39.5069 72.8125 40.8833 72.0107 41.939 70.4548C42.6604 70.8594 43.4219 71.0144 44.1654 70.8517C46.5457 70.331 47.7404 66.86 46.8849 62.9491C46.2499 60.0461 44.657 57.7898 42.8743 57.083C43.9078 55.4309 43.5487 52.3023 42.716 48.1964C43.6811 49.1571 44.8127 49.7928 46.1306 49.8769C45.6008 51.4957 45.7649 53.7271 46.6858 55.9474C48.2205 59.6455 51.1833 61.8055 53.435 60.877C54.1388 60.5852 54.6747 60.0225 55.0353 59.2776C56.7902 59.9505 58.3788 59.8223 59.3647 58.8885C60.5861 57.7323 60.6062 55.6163 59.4818 53.3757C60.657 52.8276 61.4768 51.9709 61.7271 50.8753C62.3077 48.3297 59.5727 45.6078 55.5006 44.6779C53.8906 44.3101 52.2834 44.2805 50.8947 44.5842C50.657 44.6362 50.4265 44.6981 50.2031 44.7692C48.5585 45.2948 47.4928 46.2854 47.2014 47.559C47.1502 47.7838 47.1336 48.0098 47.1327 48.2356C47.0027 48.3555 46.8819 48.4862 46.7709 48.6293C42.1765 49.0185 39.9022 40.3382 39.3007 37.5886C39.2275 37.2538 38.897 37.0414 38.5616 37.1148C38.2262 37.1882 38.0146 37.5191 38.0878 37.8539C38.5334 39.8909 39.4445 43.2629 41.0026 45.9208C40.9967 45.9837 40.9915 46.0471 41.0057 46.112C41.823 49.8482 42.9088 54.8354 41.7777 56.4796C41.7394 56.4409 41.7065 56.398 41.666 56.3611C40.8078 55.581 39.5749 55.3334 38.1552 55.644C37.9757 55.6832 37.7937 55.7313 37.6091 55.7882C36.0727 56.2622 34.5114 57.311 33.211 58.7418C31.9105 60.1726 31.0144 61.8277 30.6889 63.4017C30.3389 65.093 30.6782 66.5076 31.6451 67.3866ZM52.9592 59.7305C51.3983 60.377 49.0585 58.4245 47.8326 55.4728C46.939 53.3196 46.8432 51.0746 47.4965 49.7879C47.501 49.797 47.5081 49.8063 47.5127 49.8154C47.7186 50.2368 48.0044 50.6458 48.3588 51.0341C48.3773 51.0548 48.3957 51.0749 48.4147 51.0949C48.7763 51.4816 49.206 51.8452 49.6956 52.1778C49.7171 52.1921 49.7393 52.2063 49.7609 52.2207C49.9968 52.3782 50.2445 52.5286 50.5067 52.6701C50.5196 52.6768 50.5315 52.6844 50.5444 52.6911C50.8172 52.8373 51.1025 52.9738 51.4003 53.1006C51.4333 53.115 51.4677 53.1271 51.5012 53.1408C51.7032 53.2243 51.91 53.3043 52.1225 53.3779C52.1232 53.3784 52.1239 53.3788 52.1253 53.3792C52.1259 53.379 52.1265 53.3789 52.1274 53.38C52.1755 53.3968 52.2264 53.4117 52.2757 53.4276C52.3483 53.4518 52.4204 53.476 52.4935 53.4994C52.5829 53.5275 52.671 53.5559 52.7626 53.5823C52.7647 53.5831 52.7663 53.5846 52.7689 53.5847C52.9851 53.6467 53.2056 53.7046 53.4291 53.7561C53.5648 53.7868 53.7012 53.8148 53.8364 53.8405C53.8591 53.9092 53.8836 53.9776 53.9044 54.0468C53.9228 54.1075 53.9418 54.1682 53.9595 54.2285C54.0096 54.4025 54.0546 54.5763 54.0943 54.7493C54.099 54.7706 54.1055 54.7914 54.1101 54.8126C54.1549 55.0144 54.1923 55.2147 54.223 55.4132C54.2281 55.4451 54.2311 55.4762 54.2361 55.5076C54.2602 55.6732 54.2791 55.8381 54.2935 55.9996C54.2973 56.04 54.3003 56.08 54.3033 56.12C54.3164 56.2989 54.3241 56.4764 54.3243 56.6486C54.3245 56.6555 54.3248 56.6625 54.325 56.6694C54.3245 57.2567 54.2511 57.8014 54.1027 58.2736C54.1001 58.2818 54.1019 58.2903 54.0993 58.2985C53.8752 58.997 53.4924 59.5097 52.9592 59.7305ZM58.5112 57.9873C57.884 58.5801 56.729 58.6161 55.4262 58.1042C55.487 57.8126 55.527 57.5046 55.548 57.1854C55.5489 57.1719 55.5497 57.1583 55.5504 57.1442C55.5701 56.8273 55.5721 56.4996 55.5519 56.1602C55.5141 55.5082 55.4003 54.8195 55.2117 54.1141C55.2037 54.0834 55.1998 54.0538 55.1918 54.0231C55.1989 54.0235 55.2065 54.0237 55.2136 54.0241C56.3354 54.1091 57.3902 54.0277 58.3115 53.7919C59.2418 55.5608 59.332 57.2111 58.5112 57.9873ZM50.5809 45.953C51.9019 45.5312 53.5528 45.5082 55.2243 45.8898C58.5045 46.6389 60.9284 48.796 60.516 50.6001C60.3217 51.4547 59.5156 52.1006 58.3771 52.4679C58.1208 52.5512 57.8496 52.6188 57.5664 52.6719C57.5219 52.6804 57.4769 52.687 57.4316 52.695C57.157 52.7411 56.8729 52.7753 56.5801 52.7936C56.5312 52.7967 56.4804 52.797 56.4314 52.7994C56.1269 52.8133 55.8173 52.8156 55.5003 52.7985C55.4816 52.7975 55.462 52.7948 55.4433 52.7938C55.1163 52.7745 54.7844 52.739 54.4514 52.6867C54.4291 52.6833 54.4076 52.681 54.3853 52.6776C54.16 52.6411 53.9333 52.5986 53.7047 52.5469C53.5107 52.5023 53.3198 52.4519 53.1327 52.3982C53.0587 52.3769 52.9861 52.3527 52.9131 52.3299C52.8088 52.2974 52.7052 52.2655 52.6029 52.2306C52.5073 52.1975 52.4138 52.1621 52.3203 52.1266C52.2441 52.0982 52.1686 52.0696 52.094 52.0395C51.9894 51.9969 51.8857 51.9529 51.7842 51.9071C51.7271 51.8814 51.6707 51.8557 51.6148 51.8298C51.505 51.7782 51.3963 51.7257 51.2902 51.6707C51.2487 51.6493 51.2082 51.627 51.1673 51.6055C51.053 51.5447 50.9402 51.4823 50.8314 51.4178C50.808 51.4038 50.7858 51.3896 50.7624 51.3757C50.4461 51.1843 50.1559 50.979 49.8922 50.7641C49.8148 50.701 49.7368 50.6379 49.6648 50.573C49.585 50.5015 49.5088 50.4292 49.4349 50.3558C49.4187 50.3396 49.4006 50.3239 49.385 50.3076C49.317 50.2379 49.2551 50.167 49.1924 50.0955C49.161 50.0592 49.1276 50.0227 49.0973 49.9861C49.0445 49.922 48.9967 49.8575 48.9494 49.7922C48.9167 49.7472 48.8841 49.7029 48.854 49.658C48.8132 49.5964 48.7755 49.5347 48.7391 49.4728C48.7105 49.4232 48.6832 49.3739 48.6578 49.3247C48.627 49.2654 48.5981 49.2056 48.5723 49.1458C48.5493 49.093 48.5295 49.0402 48.5104 48.9878C48.4896 48.9307 48.4694 48.8729 48.453 48.8154C48.4366 48.758 48.4255 48.7014 48.4142 48.6441C48.4034 48.5918 48.3919 48.539 48.3849 48.4866C48.3578 48.2669 48.3641 48.0488 48.4127 47.8355C48.6016 47.0081 49.3715 46.3389 50.5809 45.953ZM38.3489 71.3825C37.2298 71.2136 36.3591 69.804 36.1117 67.8164C36.1222 67.8122 36.1331 67.8066 36.1442 67.8023C36.8186 67.5474 37.4906 67.1856 38.1401 66.7328C38.1511 66.7253 38.1621 66.7172 38.173 66.7091C38.3675 66.5725 38.5594 66.4276 38.7485 66.275C38.7674 66.26 38.7869 66.2475 38.8052 66.2321C38.8149 66.2592 38.8278 66.2831 38.8375 66.3102C39.2161 67.3585 39.718 68.2699 40.2972 69.0004C40.305 69.0101 40.3123 69.02 40.32 69.0291C40.5209 69.2793 40.7293 69.5089 40.9463 69.7137L40.9471 69.7142C40.1654 70.8962 39.2175 71.5128 38.3489 71.3825ZM45.672 63.2144C46.3551 66.337 45.5435 69.2793 43.9001 69.6389C43.3367 69.7621 42.729 69.5608 42.1474 69.1155C42.1411 69.1098 42.1375 69.1024 42.1306 69.0969C41.7393 68.7955 41.3687 68.3911 41.0337 67.9109C41.0264 67.901 41.0203 67.8903 41.013 67.8804C40.9181 67.743 40.8268 67.5984 40.7376 67.4495C40.7154 67.4118 40.6932 67.3741 40.6714 67.3356C40.5926 67.1991 40.5171 67.0573 40.4442 66.9125C40.4275 66.88 40.4105 66.8487 40.3943 66.8154C40.3076 66.6368 40.2243 66.4535 40.1467 66.2646C40.1362 66.2396 40.1271 66.2124 40.1171 66.1872C40.0531 66.0284 39.9933 65.8654 39.9369 65.7005C39.9156 65.6378 39.8953 65.5742 39.8749 65.5101C39.8534 65.4436 39.8352 65.3751 39.8148 65.3078C39.9109 65.2099 40.0058 65.109 40.1001 65.0058C40.1791 64.9193 40.2515 64.8291 40.327 64.7414C40.3994 64.6569 40.4751 64.573 40.5448 64.4879C40.5998 64.4199 40.6501 64.3505 40.7032 64.2823C40.7572 64.2126 40.81 64.1433 40.8619 64.0728C41.0195 63.8604 41.1701 63.6457 41.3099 63.4277C41.3416 63.3782 41.3747 63.329 41.4057 63.279C41.5452 63.054 41.6722 62.8267 41.7919 62.5985C41.8422 62.5029 41.8887 62.4076 41.9351 62.3117C42.0002 62.1767 42.0609 62.0414 42.119 61.9061C42.1266 61.8885 42.1348 61.8709 42.1424 61.8533C42.1516 61.8316 42.1601 61.8094 42.1693 61.7877C42.2029 61.706 42.2403 61.6241 42.2713 61.5423C42.33 61.3865 42.3798 61.2307 42.4278 61.0753C42.4308 61.0658 42.4344 61.0561 42.4374 61.0466C42.4551 60.988 42.4735 60.93 42.49 60.8717C42.5184 60.7721 42.5415 60.6743 42.5657 60.5756C42.5716 60.5501 42.5805 60.5241 42.5863 60.4986C42.5875 60.4952 42.5855 60.4918 42.5859 60.4879C42.5965 60.4405 42.6115 60.3927 42.6216 60.346C42.6366 60.2722 42.6435 60.2021 42.6562 60.1294C42.6747 60.0224 42.6944 59.9151 42.7069 59.8095C42.7356 59.5776 42.7538 59.3499 42.7549 59.1311C42.7551 59.1031 42.7512 59.0766 42.7508 59.0487C42.7487 58.8357 42.7306 58.6306 42.7023 58.4315C42.699 58.4081 42.7004 58.3824 42.6967 58.3597C43.9698 59.0407 45.1739 60.9372 45.672 63.2144ZM31.9044 63.6537C32.1858 62.2939 32.9755 60.8465 34.1291 59.578C35.282 58.3091 36.6481 57.385 37.9751 56.9759C39.1894 56.601 40.2026 56.7098 40.8308 57.2809C40.9846 57.4207 41.1118 57.5867 41.2146 57.7746C41.2434 57.828 41.2661 57.8853 41.2905 57.9416C41.3095 57.9851 41.3306 58.0262 41.3475 58.0715C41.3697 58.1321 41.3857 58.1966 41.4034 58.2601C41.4161 58.3068 41.4309 58.3512 41.4416 58.3998C41.4559 58.4653 41.4647 58.5345 41.4745 58.6029C41.4818 58.6534 41.4907 58.7029 41.4958 58.7552C41.5026 58.8268 41.5049 58.9013 41.5077 58.975C41.5096 59.0273 41.5121 59.0795 41.5117 59.133C41.5113 59.2125 41.5065 59.2949 41.5015 59.3767C41.4985 59.4269 41.4954 59.4765 41.4901 59.5279C41.481 59.6201 41.4686 59.7143 41.4537 59.8091C41.4476 59.8479 41.4415 59.8867 41.4343 59.9264C41.4156 60.0297 41.3945 60.134 41.3693 60.2393C41.3475 60.3343 41.3187 60.4321 41.2916 60.5289C41.1543 61.0082 40.9578 61.5043 40.7004 62.001C40.6951 62.0117 40.6898 62.0223 40.6845 62.033C40.6159 62.1637 40.5429 62.2947 40.467 62.4244C40.4531 62.4478 40.4393 62.4718 40.4255 62.4958C40.3538 62.6156 40.2789 62.735 40.2013 62.8536C40.1749 62.8931 40.1488 62.9331 40.1218 62.9727C40.0517 63.0763 39.9798 63.1804 39.9051 63.2832C39.8516 63.3553 39.7969 63.4276 39.7413 63.4988C39.6834 63.5744 39.6264 63.6504 39.5657 63.7247C39.4836 63.8259 39.3961 63.9251 39.3086 64.025C39.2664 64.073 39.2271 64.1229 39.1835 64.1705C39.0211 64.349 38.8548 64.5182 38.6864 64.6809C38.6591 64.7072 38.6308 64.7318 38.6033 64.7575C37.9703 65.3554 37.2859 65.8578 36.595 66.232C36.582 66.2393 36.5695 66.2458 36.5563 66.2525C36.4261 66.3223 36.2954 66.3871 36.1649 66.4474C36.1402 66.4592 36.1152 66.4698 36.0909 66.4808C35.9683 66.5362 35.8456 66.5884 35.7236 66.6348C35.6931 66.6466 35.6629 66.6564 35.6328 66.6668C35.5121 66.711 35.3911 66.7533 35.2717 66.7883C35.2711 66.7885 35.27 66.7893 35.2694 66.7895C35.1416 66.827 35.0153 66.8622 34.8922 66.8892C33.8764 67.1114 33.0316 66.9651 32.482 66.4657C31.8517 65.8964 31.647 64.8971 31.9044 63.6537Z" fill="url(#paint0_linear_36_4)"/>
<path d="M34.3975 47.2417C32.4961 49.2977 31.5945 52.27 32.2454 55.2718C32.2988 55.5188 32.4965 55.7081 32.7451 55.7522C32.8725 55.7739 32.9999 55.755 33.1138 55.7034C35.323 55.1909 37.2033 53.834 38.4173 51.8718C39.6362 49.9027 40.0372 47.5554 39.557 45.2527C39.5568 45.2489 39.5578 45.2449 39.557 45.2412C39.5566 45.2362 39.5537 45.2318 39.5526 45.2269C39.5489 45.2099 39.5479 45.1937 39.5442 45.1767C39.537 45.1439 39.5207 45.1157 39.5089 45.0853C39.5036 45.0724 39.4999 45.0586 39.494 45.0459C39.4582 44.9724 39.4115 44.907 39.3504 44.8543C37.5367 42.3006 34.373 41.2121 31.3942 41.8638C30.4111 42.0788 29.4486 42.4832 28.5613 43.0865C28.3522 43.2288 28.2503 43.4837 28.3037 43.7306C28.3302 43.8545 28.3941 43.9638 28.4812 44.0483C29.8499 45.994 32.0414 47.1407 34.3975 47.2417ZM37.362 51.2187C36.4188 52.743 35.0083 53.8395 33.3458 54.3557C32.9548 51.3948 34.2715 48.5567 36.5754 46.9985C36.5793 46.9958 36.5844 46.9959 36.5882 46.9932C37.1317 46.6277 37.7104 46.3454 38.3136 46.1423C38.3479 46.131 38.3803 46.1163 38.4148 46.1056C38.4255 46.102 38.4359 46.1003 38.4466 46.0967C38.6845 47.8932 38.3085 49.6893 37.362 51.2187ZM37.8645 44.9785C37.5464 45.0869 37.2403 45.2187 36.9425 45.362C36.9063 45.3794 36.8713 45.3998 36.8352 45.4178C36.5677 45.5514 36.3095 45.6987 36.0605 45.8587C36.0409 45.8712 36.02 45.8802 35.9999 45.8929C33.6505 46.3394 31.3042 45.5163 29.8287 43.765C32.5371 42.2778 35.8728 42.7961 37.8645 44.9785Z" fill="url(#paint1_linear_36_4)"/>
</g>
<g clip-path="url(#clip1_36_4)">
<path d="M17.0342 16.8028C15.9902 17.119 15.1852 17.9689 14.709 19.213C12.39 18.242 10.2761 18.4179 9.20618 19.7205C8.34432 20.7694 8.32681 22.3622 9.12108 24.0664C8.4038 24.4783 7.88024 25.0526 7.63857 25.7742C6.86488 28.0847 9.23202 30.8904 13.0282 32.1616C15.8461 33.1052 18.6 32.8949 20.121 31.727C21.0092 33.4614 23.8792 34.7576 27.8311 36.1484C26.5115 36.4842 25.3854 37.1297 24.6373 38.218C23.5194 36.933 21.5196 35.9295 19.1412 35.5815C15.1794 35.0024 11.8056 36.4383 11.448 38.8474C11.3376 39.6013 11.5458 40.3499 12.0003 41.0415C10.5227 42.203 9.8181 43.6325 10.1141 44.9578C10.4803 46.5993 12.2866 47.7017 14.7867 47.8855C14.6545 49.1755 14.9696 50.3186 15.7818 51.0953C17.6694 52.8992 21.4088 51.9472 24.2953 48.9282C25.4367 47.7347 26.2864 46.3702 26.7378 45.0221C26.8151 44.7914 26.8802 44.5618 26.9337 44.3336C27.3259 42.6522 27.022 41.2293 26.0781 40.326C25.9114 40.1667 25.7259 40.0365 25.5325 39.92C25.4962 39.7468 25.446 39.5762 25.3801 39.4075C27.4021 35.2637 36.0204 37.7627 38.6893 38.6565C39.0143 38.7653 39.3661 38.5905 39.4751 38.2649C39.5841 37.9394 39.4085 37.588 39.0836 37.4792C37.1063 36.8171 33.7443 35.87 30.6635 35.8445C30.6125 35.8071 30.5607 35.7702 30.4977 35.7491C26.8711 34.5346 22.0328 32.9092 21.2014 31.095C21.2542 31.0819 21.308 31.0757 21.3604 31.0599C22.4702 30.7232 23.315 29.7917 23.7765 28.4136C23.8348 28.2394 23.8869 28.0585 23.9327 27.8709C24.3137 26.3088 24.214 24.4306 23.6526 22.5804C23.0912 20.7302 22.1299 19.1121 20.9455 18.0255C19.6731 16.8577 18.2846 16.4235 17.0342 16.8028ZM12.6762 39.027C12.9217 37.3554 15.7978 36.348 18.9605 36.8093C21.2672 37.1464 23.2437 38.2155 24.0133 39.4362C24.0031 39.4354 23.9916 39.4368 23.9813 39.436C23.514 39.3967 23.0163 39.4323 22.5012 39.5374C22.474 39.5426 22.4473 39.5481 22.4203 39.5542C21.9029 39.6663 21.3705 39.8487 20.8338 40.0985C20.8105 40.1096 20.7869 40.1214 20.7635 40.1325C20.5074 40.2543 20.2512 40.3898 19.9952 40.5424C19.9828 40.55 19.9702 40.5563 19.9579 40.5639C19.6924 40.7231 19.4289 40.8981 19.1674 41.0887C19.1381 41.1097 19.11 41.133 19.0811 41.1548C18.9058 41.2853 18.7311 41.4218 18.559 41.5665C18.5582 41.5669 18.5574 41.5673 18.5564 41.5682C18.5562 41.5688 18.556 41.5694 18.5546 41.5696C18.5155 41.6023 18.4766 41.6384 18.4377 41.6725C18.3797 41.7225 18.3219 41.7719 18.2643 41.8226C18.1944 41.885 18.1248 41.9461 18.0552 42.0112C18.0535 42.0126 18.0513 42.0132 18.0499 42.0153C17.8858 42.1692 17.723 42.3288 17.5642 42.4942C17.4682 42.595 17.3743 42.6977 17.2828 42.8007C17.2122 42.7849 17.141 42.7708 17.0709 42.7533C17.0093 42.7379 16.9475 42.7231 16.8866 42.7073C16.7116 42.6611 16.5393 42.6106 16.3704 42.556C16.3497 42.5491 16.3286 42.544 16.308 42.5371C16.1117 42.472 15.9206 42.4015 15.7344 42.326C15.7044 42.314 15.6762 42.3006 15.6467 42.2888C15.4921 42.2246 15.3409 42.1563 15.1949 42.0858C15.1582 42.0683 15.1223 42.0504 15.0864 42.0324C14.9262 41.9519 14.7698 41.8675 14.6219 41.7793C14.6159 41.776 14.6098 41.7727 14.6037 41.7693C14.0998 41.4677 13.6698 41.1253 13.3405 40.7558C13.3348 40.7493 13.3266 40.7466 13.3209 40.7401C12.8362 40.1895 12.5924 39.5979 12.6762 39.027ZM11.3255 44.6872C11.1382 43.8448 11.6996 42.8348 12.8072 41.9788C13.0264 42.1806 13.2703 42.3729 13.5335 42.5546C13.5447 42.5623 13.5559 42.57 13.5676 42.5778C13.8297 42.7572 14.11 42.927 14.4117 43.0837C14.9907 43.3856 15.6404 43.6412 16.3427 43.841C16.3731 43.8499 16.4006 43.8617 16.431 43.8705C16.427 43.8764 16.4229 43.8829 16.419 43.8888C15.7707 44.8082 15.2996 45.7555 15.0296 46.6674C13.0339 46.5588 11.5709 45.79 11.3255 44.6872ZM25.7237 44.0508C25.4083 45.4012 24.5815 46.8303 23.3966 48.0695C21.0714 50.5013 17.9764 51.476 16.6392 50.1968C16.0051 49.5917 15.864 48.5684 16.1326 47.4027C16.1925 47.1399 16.2735 46.8725 16.3732 46.6021C16.3888 46.5595 16.4061 46.5175 16.4225 46.4745C16.5237 46.2152 16.6401 45.9537 16.7745 45.6929C16.797 45.6494 16.8228 45.6057 16.8458 45.5623C16.9901 45.2938 17.1469 45.0268 17.3241 44.7634C17.3345 44.7479 17.3469 44.7324 17.3573 44.7169C17.5417 44.4461 17.7423 44.1794 17.958 43.9204C17.9723 43.9029 17.9853 43.8856 17.9997 43.8682C18.1465 43.6935 18.2993 43.5207 18.4609 43.351C18.5987 43.2073 18.7399 43.0693 18.882 42.9362C18.9382 42.8836 18.9962 42.8337 19.0532 42.7827C19.1345 42.7098 19.2151 42.6373 19.2975 42.5673C19.3749 42.5022 19.4533 42.4401 19.5317 42.378C19.5952 42.3272 19.6585 42.2771 19.7225 42.2285C19.8127 42.1605 19.9037 42.094 19.9951 42.0304C20.0464 41.9945 20.0975 41.9592 20.1484 41.9246C20.249 41.8568 20.3498 41.7904 20.4513 41.7275C20.491 41.7028 20.5309 41.6795 20.5704 41.6554C20.6812 41.5884 20.7926 41.5236 20.9038 41.4633C20.9278 41.4504 20.9513 41.4386 20.9753 41.4257C21.3018 41.2522 21.6269 41.1084 21.9466 40.9922C22.0405 40.9582 22.1346 40.9236 22.2273 40.8951C22.3296 40.8632 22.4308 40.8349 22.5317 40.8091C22.5539 40.8034 22.5767 40.796 22.5987 40.7909C22.6933 40.7683 22.786 40.7515 22.8795 40.7344C22.9268 40.726 22.9753 40.7161 23.0222 40.7089C23.1043 40.6964 23.1842 40.6885 23.2645 40.6813C23.3199 40.6763 23.3746 40.6711 23.4286 40.6682C23.5024 40.6648 23.5747 40.6641 23.6465 40.6646C23.7038 40.6654 23.7602 40.6673 23.8153 40.6707C23.8821 40.6747 23.9482 40.6805 24.0128 40.689C24.0699 40.6964 24.1255 40.7065 24.1802 40.7169C24.2399 40.7284 24.2999 40.7407 24.3576 40.7561C24.4153 40.7715 24.4697 40.791 24.5246 40.8107C24.575 40.8282 24.6262 40.8454 24.6749 40.8662C24.8774 40.9556 25.0613 41.0729 25.2195 41.2241C25.833 41.8105 26.0126 42.8147 25.7237 44.0508ZM10.1658 20.5086C10.8847 19.6345 12.5414 19.6099 14.3746 20.4169C14.3728 20.4281 14.372 20.4402 14.37 20.452C14.243 21.1617 14.209 21.9241 14.2646 22.7139C14.2654 22.7273 14.2667 22.7408 14.2681 22.7544C14.2856 22.9913 14.3116 23.2305 14.3456 23.471C14.3487 23.4949 14.3495 23.5181 14.3534 23.5417C14.3251 23.5361 14.298 23.5349 14.2698 23.5294C13.1757 23.3168 12.1359 23.2803 11.2117 23.4029C11.1993 23.4046 11.1871 23.4058 11.1754 23.4077C10.8575 23.4518 10.5535 23.5131 10.2664 23.5943L10.2656 23.5947C9.65175 22.3175 9.60855 21.1875 10.1658 20.5086ZM13.4225 30.9843C10.3915 29.9694 8.28168 27.7637 8.81587 26.1685C8.99899 25.6216 9.48347 25.2032 10.164 24.9322C10.1721 24.9297 10.1803 24.9305 10.1886 24.9274C10.648 24.746 11.1852 24.6352 11.7693 24.5938C11.7815 24.5927 11.7939 24.5929 11.806 24.5917C11.9727 24.5808 12.1437 24.5765 12.3172 24.5763C12.361 24.5766 12.4048 24.5769 12.449 24.5779C12.6066 24.5803 12.767 24.5882 12.9287 24.5998C12.9652 24.6022 13.0007 24.6036 13.0376 24.6068C13.2355 24.6239 13.4355 24.6464 13.6375 24.6767C13.6643 24.6805 13.6924 24.6866 13.7191 24.691C13.8883 24.7175 14.0588 24.7497 14.2294 24.7859C14.2941 24.7997 14.3591 24.8149 14.4246 24.8303C14.4927 24.8459 14.5608 24.8655 14.6291 24.8824C14.6639 25.0152 14.7018 25.1483 14.742 25.2823C14.7758 25.3944 14.8161 25.5028 14.8527 25.6126C14.8881 25.7181 14.9213 25.8261 14.9586 25.9296C14.9888 26.0117 15.0226 26.0905 15.0539 26.171C15.086 26.2531 15.1185 26.334 15.1523 26.4147C15.2539 26.6589 15.3609 26.8983 15.4764 27.1301C15.5027 27.1828 15.5279 27.2364 15.5549 27.2887C15.6765 27.5238 15.8065 27.7493 15.9411 27.9692C15.9973 28.0613 16.0553 28.1502 16.1139 28.2392C16.1963 28.3643 16.2814 28.4858 16.3678 28.605C16.3789 28.6206 16.3899 28.6367 16.4011 28.6522C16.415 28.6713 16.4297 28.6899 16.4436 28.709C16.4965 28.7797 16.5476 28.8538 16.6019 28.9224C16.7056 29.0527 16.8138 29.1753 16.9226 29.2962C16.9292 29.3037 16.9357 29.3117 16.9424 29.3192C16.9835 29.3644 17.0239 29.41 17.0655 29.454C17.1364 29.5295 17.2086 29.5995 17.2809 29.6709C17.2997 29.689 17.3176 29.71 17.3364 29.7281C17.3387 29.7308 17.3427 29.7308 17.3458 29.7332C17.3811 29.7666 17.4144 29.804 17.4493 29.8366C17.505 29.8873 17.5617 29.9292 17.6175 29.9774C17.6999 30.0482 17.7819 30.1201 17.8662 30.185C18.0505 30.3286 18.2366 30.4609 18.4239 30.5741C18.4479 30.5886 18.4726 30.5989 18.4967 30.6129C18.6807 30.7203 18.8661 30.8099 19.0515 30.8877C19.0733 30.8969 19.0946 30.9113 19.116 30.9197C17.8785 31.6634 15.6328 31.7245 13.4225 30.9843ZM20.1058 18.9397C21.1289 19.8787 21.9665 21.2989 22.4639 22.9398C22.962 24.5802 23.0547 26.227 22.7254 27.5759C22.4245 28.8107 21.8115 29.6247 20.9991 29.8711C20.8001 29.9315 20.5924 29.9556 20.3784 29.9474C20.3178 29.9448 20.2569 29.9349 20.1961 29.9269C20.149 29.921 20.1029 29.918 20.0554 29.9093C19.992 29.8972 19.9284 29.8779 19.8648 29.8605C19.8181 29.8475 19.7724 29.8374 19.7253 29.8217C19.6617 29.8004 19.5978 29.7724 19.534 29.7458C19.4869 29.7261 19.4398 29.7084 19.3924 29.6859C19.3274 29.655 19.2623 29.6188 19.1976 29.5834C19.1517 29.5582 19.1056 29.5336 19.0599 29.5059C18.9918 29.4647 18.9236 29.4183 18.8559 29.3721C18.8143 29.3438 18.7733 29.3156 18.732 29.2848C18.6574 29.2297 18.5829 29.1707 18.5092 29.1094C18.479 29.0842 18.4488 29.059 18.4184 29.0325C18.3394 28.9635 18.2606 28.8919 18.1831 28.8162C18.1128 28.7488 18.0436 28.6739 17.9744 28.601C17.6333 28.2373 17.3082 27.8142 17.0138 27.3386C17.0073 27.3285 17.0009 27.3185 16.9944 27.3085C16.9174 27.1826 16.8424 27.0527 16.77 26.9211C16.7571 26.8971 16.7435 26.8729 16.73 26.8488C16.6638 26.7258 16.5998 26.6003 16.5378 26.4728C16.5174 26.43 16.4965 26.3869 16.4763 26.3435C16.4233 26.2302 16.3708 26.1151 16.3209 25.9982C16.2865 25.9153 16.2524 25.8313 16.2198 25.747C16.1846 25.6586 16.1486 25.5706 16.1159 25.4805C16.0711 25.3581 16.0309 25.232 15.99 25.1057C15.9705 25.0449 15.9478 24.9855 15.9292 24.9237C15.8592 24.6927 15.7993 24.4632 15.746 24.2352C15.7374 24.1983 15.7308 24.1613 15.7228 24.1246C15.5341 23.2745 15.4538 22.4293 15.4869 21.6443C15.4873 21.6294 15.4881 21.6153 15.4891 21.6006C15.496 21.453 15.5074 21.3075 15.5225 21.1646C15.5251 21.1373 15.5289 21.1105 15.5319 21.084C15.5472 20.9503 15.5652 20.8182 15.588 20.6897C15.5935 20.6575 15.6006 20.6265 15.6071 20.5953C15.6311 20.4691 15.6568 20.3435 15.6879 20.223C15.6881 20.2224 15.6879 20.221 15.6881 20.2204C15.7215 20.0915 15.756 19.9649 15.796 19.8454C16.1262 18.8594 16.685 18.2093 17.3955 17.9935C18.2076 17.7443 19.1704 18.0812 20.1058 18.9397Z" fill="url(#paint2_linear_36_4)"/>
<path d="M32.9168 29.4967C32.1268 26.8099 30.0376 24.5116 27.1267 23.531C26.8873 23.4502 26.6234 23.5228 26.458 23.7136C26.3741 23.8119 26.325 23.931 26.3109 24.0552C25.6179 26.2146 25.8185 28.5246 26.8805 30.5732C27.9457 32.6294 29.7553 34.1774 31.9784 34.9461C31.9817 34.9478 31.9847 34.9508 31.9882 34.952C31.9927 34.9541 31.998 34.9539 32.0027 34.9555C32.0192 34.961 32.0337 34.9685 32.0502 34.974C32.082 34.9847 32.1146 34.9851 32.1468 34.9907C32.1605 34.9926 32.1743 34.9966 32.1882 34.998C32.2696 35.005 32.3498 34.9984 32.4263 34.973C35.5488 34.7256 38.1057 32.5678 39.0739 29.6764C39.3935 28.7222 39.5399 27.6884 39.477 26.6173C39.4621 26.3648 39.2955 26.1467 39.0561 26.0659C38.9362 26.0251 38.8096 26.0239 38.6924 26.0553C36.3202 26.2325 34.2118 27.5258 32.9168 29.4967ZM27.9823 30.0021C27.1575 28.4106 26.9395 26.6375 27.3489 24.9455C30.0913 26.1283 31.8525 28.7141 32.0087 31.4911C32.0091 31.4958 32.0063 31.5001 32.0067 31.5048C32.0417 32.1588 31.9873 32.8004 31.8523 33.4224C31.8444 33.4577 31.8404 33.493 31.832 33.5281C31.8296 33.5391 31.8256 33.5489 31.8233 33.5599C30.159 32.8429 28.8099 31.599 27.9823 30.0021ZM33.0817 33.6337C33.1518 33.305 33.1957 32.9747 33.2254 32.6455C33.229 32.6055 33.2294 32.565 33.2324 32.5248C33.255 32.2266 33.2609 31.9294 33.2513 31.6336C33.2506 31.6104 33.2535 31.5878 33.253 31.5641C34.0745 29.3181 35.9844 27.7259 38.2446 27.3574C38.1324 30.4452 35.9767 33.0431 33.0817 33.6337Z" fill="url(#paint3_linear_36_4)"/>
</g>
<g clip-path="url(#clip2_36_4)">
<path d="M68.1745 30.193C68.4556 29.1391 68.1571 28.0071 67.3504 26.947C69.3972 25.4872 70.361 23.5976 69.8172 22.002C69.3796 20.717 68.0348 19.8632 66.1678 19.6407C66.1955 18.8141 65.9831 18.0666 65.4969 17.481C63.9404 15.6064 60.3086 16.1409 57.2286 18.6983C54.9423 20.5966 53.6707 23.0484 53.8623 24.9565C51.9201 24.798 49.3066 26.555 46.043 29.1818C46.4525 27.8831 46.497 26.5859 45.9659 25.3768C47.647 25.1033 49.5533 23.9319 51.1018 22.0935C53.6807 19.0307 54.2371 15.4065 52.3776 13.8336C51.7949 13.3427 51.0489 13.1254 50.2216 13.1475C50.0125 11.2797 49.1684 9.92786 47.886 9.48143C46.2978 8.92819 44.4093 9.88299 42.9363 11.9114C41.9093 11.1197 40.7716 10.7854 39.6836 11.0667C37.156 11.7212 35.9958 15.4013 37.0417 19.4451C37.4551 21.0439 38.1675 22.485 39.0756 23.5787C39.2311 23.7659 39.392 23.9421 39.5578 24.1078C40.7805 25.3268 42.1501 25.8179 43.4152 25.4913C43.6383 25.4335 43.8467 25.3443 44.0476 25.2413C44.2139 25.3017 44.3854 25.3489 44.5635 25.3817C47.021 29.283 40.3574 35.2928 38.192 37.0908C37.9284 37.3098 37.8917 37.7009 38.111 37.965C38.3303 38.2291 38.7215 38.265 38.9851 38.046C40.5894 36.714 43.1652 34.3549 44.8095 31.7495C44.8681 31.7258 44.9268 31.7013 44.9779 31.6588C47.9204 29.2156 51.8504 25.9589 53.8305 26.2077C53.8138 26.2595 53.7908 26.3085 53.7766 26.3614C53.4783 27.4821 53.8252 28.6909 54.7535 29.809C54.8709 29.9503 54.9973 30.0899 55.1326 30.2276C56.2598 31.3743 57.9089 32.2788 59.7773 32.776C61.6458 33.2732 63.5275 33.3084 65.0751 32.8739C66.7379 32.4073 67.8383 31.4557 68.1745 30.193ZM51.578 14.7831C52.8697 15.8723 52.2112 18.8477 50.1533 21.2931C48.6518 23.0764 46.702 24.1935 45.259 24.2048C45.265 24.1965 45.27 24.186 45.276 24.1777C45.5556 23.8011 45.7874 23.3593 45.9694 22.8661C45.9793 22.8401 45.9887 22.8146 45.9977 22.7885C46.1749 22.2896 46.3003 21.7409 46.3706 21.1532C46.3735 21.1274 46.3759 21.1012 46.3787 21.0755C46.4101 20.7936 46.4299 20.5045 46.435 20.2065C46.4351 20.192 46.4363 20.178 46.4364 20.1634C46.4408 19.8539 46.4309 19.5378 46.4066 19.2151C46.4042 19.1791 46.3992 19.143 46.3959 19.107C46.3773 18.8892 46.3532 18.6688 46.3209 18.4463C46.321 18.4454 46.3211 18.4445 46.3208 18.4432C46.3204 18.4427 46.32 18.4422 46.3205 18.4409C46.3133 18.3904 46.3031 18.3384 46.2947 18.2873C46.2827 18.2117 46.2712 18.1366 46.2583 18.0609C46.2422 17.9686 46.2269 17.8772 46.2082 17.7838C46.208 17.7816 46.2086 17.7794 46.2075 17.7771C46.1631 17.5566 46.1132 17.3342 46.0562 17.112C46.0211 16.9774 45.9833 16.8434 45.9439 16.7114C45.9946 16.6597 46.044 16.6065 46.0958 16.5562C46.1414 16.512 46.1865 16.4672 46.232 16.4238C46.3634 16.2993 46.4971 16.1795 46.6325 16.0646C46.6492 16.0508 46.6648 16.0354 46.6815 16.0216C46.8401 15.889 47.0007 15.7637 47.1629 15.6452C47.189 15.626 47.2152 15.609 47.2408 15.5903C47.3768 15.4927 47.5145 15.4001 47.6513 15.3131C47.6855 15.2912 47.7197 15.2701 47.7538 15.249C47.9066 15.1552 48.0608 15.0667 48.2136 14.9874C48.2196 14.984 48.2257 14.9806 48.2317 14.9772C48.7535 14.7078 49.2711 14.5225 49.7586 14.4372C49.7671 14.4358 49.7738 14.4303 49.7823 14.4288C50.5056 14.3068 51.1369 14.4111 51.578 14.7831ZM47.478 10.6537C48.2927 10.9382 48.8556 11.9474 48.9998 13.3397C48.7129 13.4198 48.4209 13.5259 48.1278 13.6539C48.1154 13.6594 48.103 13.6648 48.0901 13.6707C47.7996 13.7989 47.5076 13.9477 47.2156 14.1217C46.6539 14.4549 46.0946 14.8726 45.5548 15.3643C45.5312 15.3855 45.5067 15.4026 45.4831 15.4238C45.4802 15.4173 45.4769 15.4104 45.474 15.404C45.0339 14.3687 44.4767 13.4693 43.8438 12.7595C44.9872 11.1202 46.4113 10.2815 47.478 10.6537ZM40.4355 23.2282C39.4537 22.2489 38.6744 20.7933 38.245 19.1334C37.4026 15.876 38.2041 12.7317 39.9958 12.2688C40.8441 12.0485 41.7883 12.4675 42.6378 13.3098C42.8296 13.4991 43.0143 13.7089 43.1916 13.936C43.2196 13.9717 43.2462 14.0085 43.2741 14.0451C43.4412 14.2677 43.6022 14.5044 43.753 14.756C43.7782 14.798 43.8019 14.843 43.8266 14.8854C43.9789 15.1494 44.1232 15.4234 44.2538 15.7127C44.2614 15.7298 44.2681 15.7485 44.2758 15.7655C44.4089 16.0648 44.53 16.3758 44.6365 16.6956C44.6438 16.717 44.6516 16.7371 44.6589 16.7585C44.7301 16.9754 44.7964 17.1962 44.8557 17.423C44.9052 17.6158 44.9482 17.8085 44.9865 17.9994C45.0015 18.0749 45.0135 18.1505 45.0268 18.2258C45.0459 18.3333 45.0651 18.44 45.0812 18.5469C45.0957 18.647 45.1072 18.7464 45.1188 18.8457C45.1285 18.9264 45.1378 19.0066 45.1453 19.0867C45.1556 19.1992 45.1642 19.3115 45.1702 19.4227C45.1737 19.4852 45.1767 19.5472 45.1794 19.6087C45.184 19.7299 45.1874 19.8506 45.1873 19.9701C45.1874 20.0168 45.1862 20.063 45.1859 20.1092C45.1845 20.2387 45.1809 20.3675 45.1736 20.4938C45.172 20.521 45.1695 20.5472 45.1679 20.5744C45.1434 20.9433 45.0944 21.2954 45.0248 21.6284C45.0043 21.7261 44.9841 21.8243 44.9596 21.9182C44.9328 22.0219 44.9036 22.1228 44.8723 22.2222C44.8654 22.244 44.8598 22.2673 44.8525 22.2887C44.8219 22.3811 44.7873 22.4687 44.7527 22.5572C44.7348 22.6018 44.7178 22.6483 44.6992 22.6919C44.6665 22.7683 44.6312 22.8404 44.595 22.9124C44.5701 22.9621 44.5457 23.0114 44.5197 23.0588C44.4837 23.1234 44.4462 23.1852 44.408 23.246C44.3771 23.2942 44.3458 23.3412 44.3139 23.3862C44.2753 23.4409 44.2355 23.494 44.1943 23.5444C44.158 23.5891 44.1201 23.631 44.0824 23.6721C44.0412 23.7167 43.9992 23.7613 43.9557 23.8023C43.9122 23.8432 43.867 23.8791 43.8213 23.9154C43.7799 23.9491 43.7383 23.9836 43.6949 24.0139C43.5123 24.139 43.3157 24.2336 43.1039 24.2884C42.2823 24.501 41.3341 24.1248 40.4355 23.2282ZM68.6418 22.4027C69.0063 23.4742 68.1546 24.8954 66.5031 26.0287C66.4946 26.0213 66.4846 26.0142 66.4757 26.0063C65.9393 25.5246 65.3091 25.0941 64.6084 24.7254C64.5967 24.719 64.5845 24.713 64.5722 24.707C64.3616 24.5971 64.1446 24.4933 63.9222 24.3955C63.9002 24.3855 63.8801 24.374 63.858 24.3649C63.8776 24.3438 63.8929 24.3214 63.9125 24.3003C64.6695 23.4821 65.2482 22.6175 65.6308 21.7674C65.6358 21.7559 65.6412 21.745 65.6458 21.7339C65.7757 21.4405 65.8837 21.1498 65.9659 20.863L65.966 20.8621C67.375 21.013 68.3583 21.5714 68.6418 22.4027ZM58.0217 19.6535C60.4808 17.6116 63.467 16.9799 64.5417 18.2742C64.9101 18.7178 65.0106 19.3501 64.8825 20.0713C64.8804 20.0795 64.8754 20.0861 64.8737 20.0947C64.7859 20.5808 64.5971 21.0958 64.3247 21.6141C64.3192 21.6251 64.3125 21.6355 64.3071 21.6464C64.2286 21.7939 64.1422 21.9415 64.0509 22.0891C64.0277 22.1261 64.0044 22.1632 63.9802 22.2002C63.8952 22.333 63.804 22.4651 63.709 22.5965C63.6877 22.6263 63.6678 22.6557 63.6456 22.6854C63.5268 22.8446 63.4024 23.0028 63.2703 23.1585C63.2529 23.1793 63.2329 23.2 63.2152 23.2204C63.1035 23.3502 62.9863 23.4782 62.8657 23.6041C62.8198 23.6519 62.7727 23.6991 62.7251 23.7467C62.676 23.7964 62.6235 23.844 62.5731 23.8931C62.4419 23.8527 62.3088 23.8148 62.1737 23.7785C62.0606 23.7481 61.9472 23.7253 61.8347 23.6985C61.7264 23.6731 61.617 23.6444 61.5094 23.6217C61.4237 23.604 61.339 23.5913 61.254 23.5755C61.1673 23.5595 61.0814 23.5445 60.995 23.5308C60.734 23.4885 60.474 23.4534 60.2162 23.4295C60.1576 23.424 60.0987 23.4173 60.0401 23.4127C59.7761 23.3922 59.5159 23.384 59.2582 23.3825C59.1502 23.3818 59.0442 23.3843 58.9377 23.3872C58.7878 23.3914 58.6398 23.3997 58.4929 23.4104C58.4739 23.4117 58.4544 23.4125 58.4353 23.4138C58.4118 23.4156 58.3882 23.4183 58.3646 23.4201C58.2766 23.4278 58.1867 23.4322 58.0998 23.4422C57.9345 23.4617 57.7732 23.4891 57.6132 23.5179C57.6033 23.5197 57.5931 23.5209 57.5832 23.5226C57.5231 23.5338 57.4631 23.5441 57.4038 23.5563C57.3022 23.5768 57.2047 23.6013 57.106 23.6252C57.0807 23.6317 57.0534 23.6358 57.0281 23.6422C57.0246 23.6428 57.0225 23.6461 57.0188 23.6475C56.9718 23.6599 56.9225 23.6686 56.8764 23.6811C56.804 23.7017 56.7385 23.7278 56.6681 23.7499C56.5646 23.7826 56.4602 23.8144 56.3607 23.8519C56.1415 23.933 55.931 24.0215 55.7362 24.1211C55.7112 24.1338 55.6895 24.1494 55.6649 24.1626C55.4766 24.2624 55.3029 24.3728 55.1391 24.4894C55.1197 24.503 55.0963 24.5137 55.0778 24.5274C55.0975 23.0837 56.2283 21.1426 58.0217 19.6535ZM64.7402 31.6786C63.4032 32.0537 61.7547 32.0177 60.0979 31.5762C58.4411 31.1356 56.9924 30.3471 56.0192 29.3567C55.1281 28.4506 54.759 27.5008 54.9774 26.6804C55.0309 26.4795 55.1198 26.2902 55.2394 26.1126C55.2736 26.0624 55.3141 26.0159 55.3529 25.9684C55.3828 25.9315 55.4096 25.8939 55.442 25.8581C55.4857 25.8105 55.5356 25.7667 55.5838 25.7218C55.6195 25.6889 55.6521 25.6554 55.6903 25.6236C55.7419 25.5808 55.7994 25.5412 55.8556 25.501C55.8971 25.4713 55.937 25.4406 55.9811 25.4121C56.0415 25.3732 56.1066 25.3369 56.1708 25.3005C56.2164 25.2748 56.2616 25.2486 56.3093 25.2243C56.3801 25.1881 56.4555 25.1546 56.5304 25.1214C56.5764 25.101 56.6219 25.0809 56.6699 25.062C56.756 25.0277 56.8454 24.9954 56.9364 24.965C56.9737 24.9526 57.011 24.9402 57.0495 24.9284C57.1498 24.8975 57.2522 24.8682 57.3573 24.8423C57.4517 24.818 57.5518 24.7986 57.6502 24.7782C58.139 24.6798 58.6698 24.6263 59.2292 24.6266C59.2412 24.6263 59.2531 24.6261 59.265 24.6259C59.4126 24.6268 59.5625 24.6314 59.7126 24.6392C59.7397 24.6408 59.7674 24.6421 59.795 24.6433C59.9344 24.6518 60.0749 24.6635 60.2159 24.6779C60.263 24.6832 60.3106 24.688 60.3582 24.6937C60.4825 24.7083 60.6079 24.7244 60.7336 24.7435C60.8222 24.7579 60.9115 24.7733 61.0004 24.7899C61.0941 24.8065 61.1878 24.8222 61.2816 24.8419C61.4093 24.8683 61.5376 24.9005 61.6665 24.9323C61.7286 24.9477 61.7909 24.9597 61.8533 24.9765C62.0865 25.0387 62.3132 25.1086 62.535 25.1834C62.5709 25.1956 62.6058 25.2094 62.6412 25.2219C63.4632 25.5093 64.224 25.8862 64.8738 26.3277C64.8863 26.336 64.8979 26.3441 64.9099 26.3527C65.0317 26.4363 65.1494 26.5226 65.2629 26.6107C65.2847 26.6272 65.3056 26.6446 65.3265 26.6611C65.4321 26.7445 65.5349 26.8294 65.6322 26.9165C65.6566 26.9381 65.6792 26.9605 65.7023 26.9825C65.797 27.0693 65.8902 27.1573 65.9762 27.2472C65.9766 27.2477 65.9779 27.2483 65.9783 27.2488C66.0703 27.345 66.1597 27.441 66.2402 27.538C66.9045 28.338 67.1628 29.1554 66.972 29.8731C66.7561 30.6946 65.9627 31.3356 64.7402 31.6786Z" fill="url(#paint4_linear_36_4)"/>
<path d="M49.0187 37.0083C51.7186 37.7519 54.7727 37.1864 57.1395 35.2285C57.3342 35.0676 57.4115 34.8049 57.3364 34.5639C57.2971 34.4408 57.2217 34.3364 57.1235 34.2589C55.6529 32.5325 53.5836 31.4863 51.2829 31.3101C48.974 31.1326 46.705 31.8555 44.8807 33.3404C44.8774 33.3423 44.8733 33.3433 44.8705 33.3457C44.8663 33.3484 44.8636 33.353 44.8598 33.3561C44.8464 33.3672 44.8324 33.3756 44.8191 33.3867C44.7933 33.4082 44.7757 33.4356 44.7541 33.4601C44.7451 33.4707 44.7346 33.4803 44.726 33.4914C44.6772 33.557 44.6406 33.6285 44.6218 33.707C43.1876 36.4915 43.6751 39.8016 45.623 42.1475C46.2658 42.9217 47.0674 43.5907 48.0111 44.1014C48.2336 44.2217 48.5067 44.195 48.7015 44.034C48.7993 43.9536 48.867 43.8466 48.902 43.7304C50.0009 41.6206 50.012 39.1472 49.0187 37.0083ZM51.188 32.5475C52.9753 32.6846 54.5974 33.4331 55.82 34.6724C53.3702 36.3806 50.2444 36.5158 47.8016 35.1859C47.7974 35.1837 47.7952 35.1791 47.791 35.177C47.2166 34.8623 46.6999 34.478 46.2423 34.0358C46.2164 34.0105 46.1885 33.9885 46.1631 33.9628C46.155 33.955 46.1488 33.9464 46.1407 33.9386C47.6268 32.9016 49.3947 32.4099 51.188 32.5475ZM45.4151 34.9695C45.6576 35.2023 45.9153 35.4135 46.1795 35.6121C46.2116 35.6363 46.2458 35.6579 46.2784 35.6817C46.52 35.8579 46.7695 36.0195 47.026 36.1671C47.0461 36.1787 47.0637 36.1931 47.0842 36.2052C48.5608 38.0864 48.9083 40.5485 48.0311 42.6639C45.4654 40.9422 44.3924 37.7415 45.4151 34.9695Z" fill="url(#paint5_linear_36_4)"/>
</g>
<path d="M77.744 45.83C77.744 46.25 77.654 46.55 77.474 46.73C77.294 46.91 77.012 47 76.628 47C76.352 47 76.142 46.928 75.998 46.784C75.866 46.64 75.8 46.412 75.8 46.1V35.138C75.8 34.826 75.866 34.598 75.998 34.454C76.142 34.31 76.352 34.238 76.628 34.238H82.748C83.12 34.238 83.39 34.286 83.558 34.382C83.738 34.478 83.828 34.652 83.828 34.904V36.29C83.828 36.602 83.762 36.83 83.63 36.974C83.51 37.118 83.318 37.19 83.054 37.19C82.706 37.19 82.442 37.1 82.262 36.92C82.094 36.74 82.01 36.44 82.01 36.02V35.192H77.744V39.998H81.524C81.86 39.998 82.028 40.166 82.028 40.502C82.028 40.658 81.98 40.778 81.884 40.862C81.8 40.946 81.68 40.988 81.524 40.988H77.744V45.83ZM87.404 45.776C87.404 46.28 87.32 46.61 87.152 46.766C86.984 46.922 86.684 47 86.252 47C85.976 47 85.784 46.934 85.676 46.802C85.58 46.658 85.532 46.442 85.532 46.154V34.166C85.532 33.878 85.58 33.668 85.676 33.536C85.784 33.392 85.976 33.32 86.252 33.32C86.66 33.32 86.954 33.434 87.134 33.662C87.314 33.89 87.404 34.268 87.404 34.796V45.776ZM93.9634 47C92.6554 47 91.6414 46.622 90.9214 45.866C90.2014 45.11 89.8414 43.982 89.8414 42.482C89.8414 40.958 90.2074 39.824 90.9394 39.08C91.6714 38.336 92.6794 37.964 93.9634 37.964C95.2474 37.964 96.2554 38.336 96.9874 39.08C97.7194 39.824 98.0854 40.958 98.0854 42.482C98.0854 43.982 97.7254 45.11 97.0054 45.866C96.2854 46.622 95.2714 47 93.9634 47ZM93.9634 46.28C94.6714 46.28 95.2114 46.01 95.5834 45.47C95.9554 44.918 96.1414 43.922 96.1414 42.482C96.1414 41.066 95.9494 40.082 95.5654 39.53C95.1814 38.966 94.6474 38.684 93.9634 38.684C93.2914 38.684 92.7574 38.966 92.3614 39.53C91.9774 40.094 91.7854 41.078 91.7854 42.482C91.7854 43.91 91.9714 44.9 92.3434 45.452C92.7154 46.004 93.2554 46.28 93.9634 46.28ZM106.251 38.738C106.251 39.206 106.017 39.44 105.549 39.44H104.955C104.055 39.44 103.383 39.662 102.939 40.106C102.507 40.55 102.291 41.078 102.291 41.69V45.722C102.291 46.238 102.201 46.58 102.021 46.748C101.853 46.916 101.559 47 101.139 47C100.863 47 100.671 46.934 100.563 46.802C100.467 46.658 100.419 46.442 100.419 46.154V38.738C100.419 38.45 100.479 38.252 100.599 38.144C100.719 38.024 100.917 37.964 101.193 37.964C101.529 37.964 101.787 38.096 101.967 38.36C102.159 38.612 102.255 38.996 102.255 39.512V39.962H102.291C102.639 39.41 103.035 38.942 103.479 38.558C103.923 38.162 104.493 37.964 105.189 37.964H105.405C105.705 37.964 105.915 38.03 106.035 38.162C106.167 38.294 106.239 38.486 106.251 38.738ZM113.734 44.732C113.854 44.6 114.004 44.534 114.184 44.534C114.292 44.534 114.388 44.57 114.472 44.642C114.556 44.714 114.598 44.804 114.598 44.912C114.598 45.128 114.52 45.332 114.364 45.524C113.572 46.508 112.468 47 111.052 47C109.648 47 108.586 46.622 107.866 45.866C107.158 45.098 106.804 44.042 106.804 42.698C106.804 41.162 107.164 39.992 107.884 39.188C108.604 38.372 109.648 37.964 111.016 37.964C112.108 37.964 112.984 38.276 113.644 38.9C114.304 39.524 114.634 40.418 114.634 41.582C114.634 42.17 114.292 42.464 113.608 42.464H108.766C108.754 42.56 108.748 42.692 108.748 42.86C108.748 43.892 108.952 44.708 109.36 45.308C109.768 45.908 110.398 46.208 111.25 46.208C111.826 46.208 112.282 46.088 112.618 45.848C112.954 45.608 113.212 45.38 113.392 45.164C113.572 44.936 113.686 44.792 113.734 44.732ZM110.908 38.684C110.332 38.684 109.858 38.93 109.486 39.422C109.114 39.914 108.892 40.676 108.82 41.708H112.186C112.402 41.708 112.558 41.672 112.654 41.6C112.75 41.516 112.798 41.378 112.798 41.186C112.798 40.382 112.606 39.764 112.222 39.332C111.85 38.9 111.412 38.684 110.908 38.684ZM121.643 44.804C121.643 44.468 121.541 44.192 121.337 43.976C121.145 43.748 120.893 43.568 120.581 43.436C120.281 43.292 119.849 43.124 119.285 42.932C118.601 42.704 118.061 42.494 117.665 42.302C117.281 42.11 116.969 41.864 116.729 41.564C116.489 41.252 116.369 40.85 116.369 40.358C116.369 39.734 116.555 39.248 116.927 38.9C117.311 38.54 117.755 38.294 118.259 38.162C118.763 38.03 119.243 37.964 119.699 37.964C120.695 37.964 121.475 38.114 122.039 38.414C122.315 38.558 122.543 38.732 122.723 38.936C122.903 39.14 122.993 39.368 122.993 39.62C122.993 39.812 122.921 39.968 122.777 40.088C122.645 40.208 122.483 40.268 122.291 40.268C122.039 40.268 121.835 40.214 121.679 40.106C121.535 39.998 121.415 39.836 121.319 39.62C121.187 39.332 120.995 39.104 120.743 38.936C120.491 38.768 120.149 38.684 119.717 38.684C119.273 38.684 118.901 38.798 118.601 39.026C118.313 39.242 118.169 39.572 118.169 40.016C118.169 40.316 118.259 40.574 118.439 40.79C118.619 40.994 118.853 41.162 119.141 41.294C119.429 41.426 119.831 41.582 120.347 41.762C121.019 42.002 121.559 42.218 121.967 42.41C122.387 42.602 122.741 42.854 123.029 43.166C123.329 43.478 123.479 43.862 123.479 44.318C123.479 45.122 123.131 45.77 122.435 46.262C121.751 46.754 120.857 47 119.753 47C119.237 47 118.745 46.946 118.277 46.838C117.821 46.73 117.437 46.592 117.125 46.424C116.537 46.124 116.243 45.728 116.243 45.236C116.243 45.044 116.315 44.888 116.459 44.768C116.615 44.636 116.777 44.57 116.945 44.57C117.413 44.57 117.743 44.786 117.935 45.218C118.091 45.53 118.301 45.788 118.565 45.992C118.841 46.184 119.249 46.28 119.789 46.28C120.317 46.28 120.755 46.16 121.103 45.92C121.463 45.668 121.643 45.296 121.643 44.804ZM131.852 44.732C131.972 44.6 132.122 44.534 132.302 44.534C132.41 44.534 132.506 44.57 132.59 44.642C132.674 44.714 132.716 44.804 132.716 44.912C132.716 45.128 132.638 45.332 132.482 45.524C131.69 46.508 130.604 47 129.224 47C127.796 47 126.758 46.598 126.11 45.794C125.474 44.99 125.156 43.892 125.156 42.5C125.156 40.928 125.546 39.782 126.326 39.062C127.106 38.33 128.138 37.964 129.422 37.964C130.214 37.964 130.916 38.144 131.528 38.504C132.188 38.9 132.518 39.362 132.518 39.89C132.518 40.106 132.44 40.28 132.284 40.412C132.128 40.532 131.954 40.592 131.762 40.592C131.498 40.592 131.288 40.532 131.132 40.412C130.988 40.28 130.874 40.088 130.79 39.836C130.67 39.488 130.502 39.212 130.286 39.008C130.082 38.792 129.782 38.684 129.386 38.684C128.606 38.684 128.03 38.972 127.658 39.548C127.286 40.112 127.1 41.096 127.1 42.5C127.1 43.736 127.274 44.666 127.622 45.29C127.982 45.902 128.582 46.208 129.422 46.208C129.986 46.208 130.43 46.094 130.754 45.866C131.078 45.638 131.33 45.41 131.51 45.182C131.69 44.942 131.804 44.792 131.852 44.732ZM140.91 44.732C141.03 44.6 141.18 44.534 141.36 44.534C141.468 44.534 141.564 44.57 141.648 44.642C141.732 44.714 141.774 44.804 141.774 44.912C141.774 45.128 141.696 45.332 141.54 45.524C140.748 46.508 139.644 47 138.228 47C136.824 47 135.762 46.622 135.042 45.866C134.334 45.098 133.98 44.042 133.98 42.698C133.98 41.162 134.34 39.992 135.06 39.188C135.78 38.372 136.824 37.964 138.192 37.964C139.284 37.964 140.16 38.276 140.82 38.9C141.48 39.524 141.81 40.418 141.81 41.582C141.81 42.17 141.468 42.464 140.784 42.464H135.942C135.93 42.56 135.924 42.692 135.924 42.86C135.924 43.892 136.128 44.708 136.536 45.308C136.944 45.908 137.574 46.208 138.426 46.208C139.002 46.208 139.458 46.088 139.794 45.848C140.13 45.608 140.388 45.38 140.568 45.164C140.748 44.936 140.862 44.792 140.91 44.732ZM138.084 38.684C137.508 38.684 137.034 38.93 136.662 39.422C136.29 39.914 136.068 40.676 135.996 41.708H139.362C139.578 41.708 139.734 41.672 139.83 41.6C139.926 41.516 139.974 41.378 139.974 41.186C139.974 40.382 139.782 39.764 139.398 39.332C139.026 38.9 138.588 38.684 138.084 38.684ZM149.809 38.738C149.809 39.206 149.575 39.44 149.107 39.44H148.513C147.613 39.44 146.941 39.662 146.497 40.106C146.065 40.55 145.849 41.078 145.849 41.69V45.722C145.849 46.238 145.759 46.58 145.579 46.748C145.411 46.916 145.117 47 144.697 47C144.421 47 144.229 46.934 144.121 46.802C144.025 46.658 143.977 46.442 143.977 46.154V38.738C143.977 38.45 144.037 38.252 144.157 38.144C144.277 38.024 144.475 37.964 144.751 37.964C145.087 37.964 145.345 38.096 145.525 38.36C145.717 38.612 145.813 38.996 145.813 39.512V39.962H145.849C146.197 39.41 146.593 38.942 147.037 38.558C147.481 38.162 148.051 37.964 148.747 37.964H148.963C149.263 37.964 149.473 38.03 149.593 38.162C149.725 38.294 149.797 38.486 149.809 38.738Z" fill="#BAD9C2"/>
<defs>
<linearGradient id="paint0_linear_36_4" x1="49.0075" y1="70.4263" x2="41.5764" y2="36.4553" gradientUnits="userSpaceOnUse">
<stop stop-color="#308C50"/>
<stop offset="1" stop-color="#BAD9C2"/>
</linearGradient>
<linearGradient id="paint1_linear_36_4" x1="36.2385" y1="55.0346" x2="33.2678" y2="41.4539" gradientUnits="userSpaceOnUse">
<stop stop-color="#308C50"/>
<stop offset="1" stop-color="#BAD9C2"/>
</linearGradient>
<linearGradient id="paint2_linear_36_4" x1="5.52061" y1="30.1493" x2="38.4952" y2="41.1913" gradientUnits="userSpaceOnUse">
<stop stop-color="#308C50"/>
<stop offset="1" stop-color="#BAD9C2"/>
</linearGradient>
<linearGradient id="paint3_linear_36_4" x1="25.2826" y1="27.0807" x2="38.4649" y2="31.495" gradientUnits="userSpaceOnUse">
<stop stop-color="#308C50"/>
<stop offset="1" stop-color="#BAD9C2"/>
</linearGradient>
<linearGradient id="paint4_linear_36_4" x1="62.8934" y1="13.3763" x2="36.1395" y2="35.5907" gradientUnits="userSpaceOnUse">
<stop stop-color="#308C50"/>
<stop offset="1" stop-color="#BAD9C2"/>
</linearGradient>
<linearGradient id="paint5_linear_36_4" x1="55.0933" y1="31.7913" x2="44.3978" y2="40.672" gradientUnits="userSpaceOnUse">
<stop stop-color="#308C50"/>
<stop offset="1" stop-color="#BAD9C2"/>
</linearGradient>
<clipPath id="clip0_36_4">
<rect width="34.7728" height="34.7728" fill="white" transform="translate(65.9923 66.7107) rotate(167.661)"/>
</clipPath>
<clipPath id="clip1_36_4">
<rect width="34.7728" height="34.7728" fill="white" transform="translate(0 46.6361) rotate(-71.4861)"/>
</clipPath>
<clipPath id="clip2_36_4">
<rect width="34.7728" height="34.7728" fill="white" transform="translate(51.7864) rotate(50.2963)"/>
</clipPath>
</defs>
</svg>
